NunitoSans-OpszLight.ufo
<glyph name="exclam" format="2">
  <advance width="254.56180795180722"/>
  <unicode hex="0021"/>
  <outline>
    <contour>
      <point x="100.10843373493977" y="190.13253012048193" type="line"/>
      <point x="154.5301204819277" y="190.13253012048193" type="line"/>
      <point x="171.33734939759034" y="705.0" type="line"/>
      <point x="83.0722891566265" y="705.0" type="line"/>
    </contour>
    <contour>
      <point x="78.50602409638554" y="0.0" type="line"/>
      <point x="176.13253012048193" y="0.0" type="line"/>
      <point x="176.13253012048193" y="92.87951807228914" type="line"/>
      <point x="78.50602409638554" y="92.87951807228914" type="line"/>
    </contour>
  </outline>
</glyph>
<glyph name="numbersign" format="2">
  <advance width="600.0"/>
  <unicode hex="0023"/>
  <outline>
    <contour>
      <point x="81.48192771084337" y="0.0" type="line"/>
      <point x="143.78313253012047" y="0.0" type="line"/>
      <point x="179.63855421686745" y="185.27710843373495" type="line"/>
      <point x="337.13253012048193" y="185.27710843373495" type="line"/>
      <point x="301.27710843373495" y="0.0" type="line"/>
      <point x="361.8072289156626" y="0.0" type="line"/>
      <point x="398.43373493975906" y="185.27710843373495" type="line"/>
      <point x="526.9397590361446" y="185.27710843373495" type="line"/>
      <point x="526.9397590361446" y="242.12048192771084" type="line"/>
      <point x="408.49397590361446" y="242.12048192771084" type="line"/>
      <point x="454.89156626506025" y="470.87951807228916" type="line"/>
      <point x="567.7710843373494" y="470.87951807228916" type="line"/>
      <point x="567.7710843373494" y="527.7228915662652" type="line"/>
      <point x="464.9518072289157" y="527.7228915662652" type="line"/>
      <point x="498.8072289156626" y="705.0" type="line"/>
      <point x="437.50602409638554" y="705.0" type="line"/>
      <point x="403.4216867469879" y="527.7228915662652" type="line"/>
      <point x="245.9277108433735" y="527.7228915662652" type="line"/>
      <point x="280.0120481927711" y="705.0" type="line"/>
      <point x="218.4819277108434" y="705.0" type="line"/>
      <point x="184.6265060240964" y="527.7228915662652" type="line"/>
      <point x="55.34939759036145" y="527.7228915662652" type="line"/>
      <point x="55.34939759036145" y="470.87951807228916" type="line"/>
      <point x="174.56626506024097" y="470.87951807228916" type="line"/>
      <point x="128.16867469879517" y="242.12048192771084" type="line"/>
      <point x="14.518072289156628" y="242.12048192771084" type="line"/>
      <point x="14.518072289156628" y="185.27710843373495" type="line"/>
      <point x="118.10843373493975" y="185.27710843373495" type="line"/>
    </contour>
    <contour>
      <point x="187.86746987951807" y="240.97590361445782" type="line"/>
      <point x="234.49397590361446" y="472.0240963855421" type="line"/>
      <point x="395.1927710843373" y="472.0240963855421" type="line"/>
      <point x="348.56626506024094" y="240.97590361445782" type="line"/>
    </contour>
  </outline>
</glyph>
<glyph name="dollar" format="2">
  <advance width="600.0"/>
  <unicode hex="0024"/>
  <outline>
    <contour>
      <point x="277.5903614457831" y="-115.0" type="line"/>
      <point x="340.4096385542169" y="-115.0" type="line"/>
      <point x="340.4096385542169" y="32.37349397590362" type="line"/>
      <point x="324.26506024096386" y="16.228915662650603" type="line"/>
      <point x="454.9518072289157" y="23.602409638554217"/>
      <point x="547.1807228915662" y="93.14457831325302"/>
      <point x="547.1807228915662" y="197.43373493975903" type="curve" smooth="yes"/>
      <point x="547.1807228915662" y="292.5783132530121"/>
      <point x="487.95180722891564" y="355.34939759036143"/>
      <point x="355.86746987951807" y="373.0361445783132" type="curve" smooth="yes"/>
      <point x="257.5783132530121" y="386.1807228915663" type="line" smooth="yes"/>
      <point x="167.6144578313253" y="397.72289156626505"/>
      <point x="132.90361445783134" y="429.7469879518072"/>
      <point x="132.90361445783134" y="497.2530120481928" type="curve" smooth="yes"/>
      <point x="132.90361445783134" y="571.3012048192771"/>
      <point x="199.7831325301205" y="625.7228915662652"/>
      <point x="304.28915662650604" y="625.7228915662652" type="curve" smooth="yes"/>
      <point x="387.144578313253" y="625.7228915662652"/>
      <point x="449.83132530120486" y="600.1807228915663"/>
      <point x="502.9156626506024" y="546.3012048192771" type="curve"/>
      <point x="531.3493975903615" y="602.6626506024096" type="line"/>
      <point x="480.0361445783132" y="657.2289156626506"/>
      <point x="401.03614457831327" y="686.0"/>
      <point x="327.66265060240966" y="688.4578313253012" type="curve"/>
      <point x="340.4096385542169" y="675.3132530120482" type="line"/>
      <point x="340.4096385542169" y="820.0" type="line"/>
      <point x="277.5903614457831" y="820.0" type="line"/>
      <point x="277.5903614457831" y="675.3132530120482" type="line"/>
      <point x="289.56626506024094" y="689.0" type="line"/>
      <point x="154.19277108433735" y="684.1686746987951"/>
      <point x="63.734939759036145" y="603.2289156626506"/>
      <point x="63.734939759036145" y="497.16867469879514" type="curve" smooth="yes"/>
      <point x="63.734939759036145" y="392.710843373494"/>
      <point x="127.27710843373494" y="340.566265060241"/>
      <point x="242.42168674698794" y="325.421686746988" type="curve" smooth="yes"/>
      <point x="340.93975903614455" y="312.27710843373495" type="line" smooth="yes"/>
      <point x="427.13253012048193" y="301.50602409638554"/>
      <point x="477.5542168674699" y="267.3975903614458"/>
      <point x="477.5542168674699" y="197.12048192771084" type="curve" smooth="yes"/>
      <point x="477.5542168674699" y="130.1566265060241"/>
      <point x="419.3614457831325" y="79.04819277108435"/>
      <point x="301.0843373493976" y="79.04819277108435" type="curve" smooth="yes"/>
      <point x="204.6024096385542" y="79.04819277108435"/>
      <point x="140.16867469879517" y="104.13253012048192"/>
      <point x="76.855421686747" y="157.0722891566265" type="curve"/>
      <point x="48.192771084337345" y="98.79518072289157" type="line"/>
      <point x="112.50602409638554" y="41.084337349397586"/>
      <point x="201.19277108433735" y="16.228915662650603"/>
      <point x="295.65060240963857" y="15.542168674698795" type="curve"/>
      <point x="277.5903614457831" y="31.602409638554217" type="line"/>
    </contour>
  </outline>
</glyph>
<glyph name="percent" format="2">
  <advance width="966.9759036144578"/>
  <unicode hex="0025"/>
  <outline>
    <contour>
      <point x="301.09638554216866" y="-24.373493975903614" type="line"/>
      <point x="715.9518072289156" y="700.1927710843373" type="line"/>
      <point x="665.8795180722891" y="729.3734939759037" type="line"/>
      <point x="251.79518072289156" y="4.80722891566265" type="line"/>
    </contour>
    <contour>
      <point x="238.4819277108434" y="282.45783132530124" type="curve" smooth="yes"/>
      <point x="342.7710843373494" y="282.45783132530124"/>
      <point x="416.2289156626506" y="362.6024096385542"/>
      <point x="416.2289156626506" y="498.68674698795184" type="curve" smooth="yes"/>
      <point x="416.2289156626506" y="633.5421686746988"/>
      <point x="341.7710843373494" y="713.4578313253012"/>
      <point x="238.4819277108434" y="713.4578313253012" type="curve" smooth="yes"/>
      <point x="135.19277108433735" y="713.4578313253012"/>
      <point x="60.734939759036145" y="634.7710843373494"/>
      <point x="60.734939759036145" y="498.68674698795184" type="curve" smooth="yes"/>
      <point x="60.734939759036145" y="361.6024096385542"/>
      <point x="133.96385542168676" y="282.45783132530124"/>
    </contour>
    <contour>
      <point x="238.4819277108434" y="335.6144578313253" type="curve" smooth="yes"/>
      <point x="172.51807228915663" y="335.6144578313253"/>
      <point x="123.09638554216868" y="390.03614457831327"/>
      <point x="123.09638554216868" y="498.68674698795184" type="curve" smooth="yes"/>
      <point x="123.09638554216868" y="607.1084337349398"/>
      <point x="172.51807228915663" y="660.3012048192771"/>
      <point x="238.4819277108434" y="660.3012048192771" type="curve" smooth="yes"/>
      <point x="304.4457831325301" y="660.3012048192771"/>
      <point x="353.86746987951807" y="605.8795180722892"/>
      <point x="353.86746987951807" y="498.68674698795184" type="curve" smooth="yes"/>
      <point x="353.86746987951807" y="389.49397590361446"/>
      <point x="303.6746987951807" y="335.6144578313253"/>
    </contour>
    <contour>
      <point x="728.4939759036145" y="-8.457831325301205" type="curve" smooth="yes"/>
      <point x="833.0120481927711" y="-8.457831325301205"/>
      <point x="906.2409638554217" y="71.6867469879518"/>
      <point x="906.2409638554217" y="207.5421686746988" type="curve" smooth="yes"/>
      <point x="906.2409638554217" y="342.6265060240964"/>
      <point x="832.0120481927711" y="422.5421686746988"/>
      <point x="728.4939759036145" y="422.5421686746988" type="curve" smooth="yes"/>
      <point x="625.2048192771084" y="422.5421686746988"/>
      <point x="550.9759036144578" y="343.855421686747"/>
      <point x="550.9759036144578" y="207.5421686746988" type="curve" smooth="yes"/>
      <point x="550.9759036144578" y="70.6867469879518"/>
      <point x="624.2048192771084" y="-8.457831325301205"/>
    </contour>
    <contour>
      <point x="728.4939759036145" y="44.6987951807229" type="curve" smooth="yes"/>
      <point x="662.5301204819276" y="44.6987951807229"/>
      <point x="613.1084337349398" y="99.12048192771084"/>
      <point x="613.1084337349398" y="207.5421686746988" type="curve" smooth="yes"/>
      <point x="613.1084337349398" y="316.1927710843373"/>
      <point x="662.5301204819276" y="369.3855421686747"/>
      <point x="728.4939759036145" y="369.3855421686747" type="curve" smooth="yes"/>
      <point x="794.4578313253012" y="369.3855421686747"/>
      <point x="843.8795180722891" y="314.96385542168673"/>
      <point x="843.8795180722891" y="207.5421686746988" type="curve" smooth="yes"/>
      <point x="843.8795180722891" y="98.57831325301206"/>
      <point x="793.6867469879518" y="44.6987951807229"/>
    </contour>
  </outline>
</glyph>
<glyph name="ampersand" format="2">
  <advance width="694.4819277108434"/>
  <unicode hex="0026"/>
  <outline>
    <contour>
      <point x="285.49397590361446" y="-8.457831325301205" type="curve" smooth="yes"/>
      <point x="378.6385542168675" y="-8.457831325301205"/>
      <point x="463.95180722891564" y="26.85542168674699"/>
      <point x="517.8674698795181" y="97.10843373493975" type="curve"/>
      <point x="500.49397590361446" y="97.10843373493975" type="line"/>
      <point x="589.8915662650602" y="0.0" type="line"/>
      <point x="673.9518072289156" y="0.0" type="line"/>
      <point x="535.7349397590361" y="147.0963855421687" type="line"/>
      <point x="540.710843373494" y="126.26506024096385" type="line"/>
      <point x="584.4578313253012" y="192.80722891566265"/>
      <point x="620.144578313253" y="292.7469879518072"/>
      <point x="623.3734939759036" y="405.8313253012048" type="curve"/>
      <point x="556.722891566265" y="405.8313253012048" type="line"/>
      <point x="554.2650602409639" y="315.49397590361446"/>
      <point x="529.722891566265" y="223.8433734939759"/>
      <point x="499.6385542168675" y="172.13253012048193" type="curve"/>
      <point x="511.1807228915663" y="173.27710843373492" type="line"/>
      <point x="309.33734939759034" y="393.31325301204816" type="line"/>
      <point x="318.48192771084337" y="379.1686746987952" type="line"/>
      <point x="433.0722891566265" y="453.67469879518075"/>
      <point x="483.33734939759034" y="506.8192771084337"/>
      <point x="483.33734939759034" y="577.8795180722891" type="curve" smooth="yes"/>
      <point x="483.33734939759034" y="661.9397590361446"/>
      <point x="412.10843373493975" y="713.4578313253012"/>
      <point x="318.4096385542168" y="713.4578313253012" type="curve" smooth="yes"/>
      <point x="212.9156626506024" y="713.4578313253012"/>
      <point x="138.56626506024097" y="649.9397590361446"/>
      <point x="138.56626506024097" y="560.6506024096385" type="curve" smooth="yes"/>
      <point x="138.56626506024097" y="505.90361445783134"/>
      <point x="163.93975903614458" y="459.04819277108436"/>
      <point x="233.56626506024097" y="386.2530120481928" type="curve"/>
      <point x="245.33734939759037" y="401.54216867469876" type="line"/>
      <point x="212.36144578313252" y="378.9397590361446" type="line" smooth="yes"/>
      <point x="124.25301204819277" y="317.6024096385542"/>
      <point x="63.71084337349398" y="263.60240963855426"/>
      <point x="63.71084337349398" y="165.28915662650604" type="curve" smooth="yes"/>
      <point x="63.71084337349398" y="60.31325301204819"/>
      <point x="145.91566265060243" y="-8.457831325301205"/>
    </contour>
    <contour>
      <point x="288.7831325301205" y="52.98795180722891" type="curve" smooth="yes"/>
      <point x="189.96385542168676" y="52.98795180722891"/>
      <point x="136.10843373493975" y="93.92771084337349"/>
      <point x="136.10843373493975" y="169.72289156626508" type="curve" smooth="yes"/>
      <point x="136.10843373493975" y="245.91566265060243"/>
      <point x="176.27710843373495" y="287.3975903614458"/>
      <point x="254.09638554216866" y="340.5903614457831" type="curve" smooth="yes"/>
      <point x="286.32530120481925" y="362.13253012048193" type="line"/>
      <point x="254.06024096385545" y="360.3614457831325" type="line"/>
      <point x="479.855421686747" y="118.6024096385542" type="line"/>
      <point x="479.3975903614458" y="142.12048192771084" type="line"/>
      <point x="435.91566265060237" y="79.61445783132531"/>
      <point x="370.7469879518073" y="52.98795180722891"/>
    </contour>
    <contour>
      <point x="318.4096385542168" y="655.3855421686748" type="curve" smooth="yes"/>
      <point x="372.5783132530121" y="655.3855421686748"/>
      <point x="417.8313253012048" y="624.5301204819277"/>
      <point x="417.8313253012048" y="570.277108433735" type="curve" smooth="yes"/>
      <point x="417.8313253012048" y="521.1084337349398"/>
      <point x="374.28915662650604" y="478.3975903614458"/>
      <point x="277.4698795180723" y="415.66265060240966" type="curve"/>
      <point x="291.44578313253015" y="413.6024096385542" type="line"/>
      <point x="225.33734939759037" y="485.65060240963857"/>
      <point x="206.59036144578315" y="516.1084337349397"/>
      <point x="206.59036144578315" y="561.1927710843373" type="curve" smooth="yes"/>
      <point x="206.59036144578315" y="617.7590361445783"/>
      <point x="256.69879518072287" y="655.3855421686748"/>
    </contour>
  </outline>
</glyph>
<glyph name="quotesingle" format="2">
  <advance width="229.28859891566267"/>
  <unicode hex="0027"/>
  <outline>
    <contour>
      <point x="91.48192771084338" y="434.04819277108436" type="line"/>
      <point x="139.5301204819277" y="434.04819277108436" type="line"/>
      <point x="155.87951807228916" y="705.0" type="line"/>
      <point x="73.36144578313252" y="705.0" type="line"/>
    </contour>
  </outline>
</glyph>
<glyph name="parenleft" format="2">
  <advance width="328.5771978313253"/>
  <unicode hex="0028"/>
  <outline>
    <contour>
      <point x="236.26506024096386" y="-191.14457831325302" type="curve"/>
      <point x="290.93975903614455" y="-173.65060240963854" type="line"/>
      <point x="206.855421686747" y="-30.024096385542165"/>
      <point x="166.7710843373494" y="115.6867469879518"/>
      <point x="166.7710843373494" y="263.0" type="curve" smooth="yes"/>
      <point x="166.7710843373494" y="410.3132530120482"/>
      <point x="206.855421686747" y="556.0240963855422"/>
      <point x="290.93975903614455" y="699.6506024096386" type="curve"/>
      <point x="236.26506024096386" y="717.144578313253" type="line"/>
      <point x="140.6024096385542" y="569.3493975903615"/>
      <point x="96.0" y="422.5783132530121"/>
      <point x="96.0" y="263.0" type="curve" smooth="yes"/>
      <point x="96.0" y="102.65060240963855"/>
      <point x="140.6024096385542" y="-45.12048192771084"/>
    </contour>
  </outline>
</glyph>
<glyph name="parenright" format="2">
  <advance width="328.5771978313253"/>
  <unicode hex="0029"/>
  <outline>
    <contour>
      <point x="92.21686746987952" y="-191.14457831325302" type="line"/>
      <point x="187.87951807228916" y="-43.34939759036145"/>
      <point x="232.48192771084337" y="103.42168674698796"/>
      <point x="232.48192771084337" y="263.0" type="curve" smooth="yes"/>
      <point x="232.48192771084337" y="423.3493975903615"/>
      <point x="187.87951807228916" y="571.1204819277109"/>
      <point x="92.21686746987952" y="717.144578313253" type="curve"/>
      <point x="37.54216867469879" y="699.6506024096386" type="line"/>
      <point x="121.62650602409639" y="556.0240963855422"/>
      <point x="161.71084337349396" y="410.3132530120482"/>
      <point x="161.71084337349396" y="263.0" type="curve" smooth="yes"/>
      <point x="161.71084337349396" y="115.6867469879518"/>
      <point x="121.62650602409639" y="-30.02409638554217"/>
      <point x="37.54216867469879" y="-173.65060240963854" type="curve"/>
    </contour>
  </outline>
</glyph>
<glyph name="asterisk" format="2">
  <advance width="476.49397590361446"/>
  <unicode hex="002A"/>
  <outline>
    <contour>
      <point x="163.18072289156626" y="336.8433734939759" type="line"/>
      <point x="236.74698795180723" y="485.84337349397595" type="line"/>
      <point x="240.74698795180723" y="485.84337349397595" type="line"/>
      <point x="312.3132530120482" y="337.3855421686747" type="line"/>
      <point x="363.07228915662654" y="367.56626506024094" type="line"/>
      <point x="277.15662650602405" y="500.9879518072289" type="line"/>
      <point x="279.15662650602405" y="504.98795180722885" type="line"/>
      <point x="440.49397590361446" y="495.1566265060241" type="line"/>
      <point x="440.49397590361446" y="554.8313253012049" type="line"/>
      <point x="277.92771084337346" y="546.2289156626506" type="line"/>
      <point x="276.92771084337346" y="550.2289156626506" type="line"/>
      <point x="363.07228915662654" y="682.4216867469879" type="line"/>
      <point x="310.5421686746988" y="713.6024096385543" type="line"/>
      <point x="240.74698795180723" y="563.9156626506024" type="line"/>
      <point x="236.74698795180723" y="563.9156626506024" type="line"/>
      <point x="165.18072289156626" y="713.6024096385543" type="line"/>
      <point x="112.65060240963855" y="682.6506024096385" type="line"/>
      <point x="198.33734939759037" y="550.2289156626506" type="line"/>
      <point x="197.33734939759037" y="546.2289156626506" type="line"/>
      <point x="36.0" y="554.8313253012049" type="line"/>
      <point x="36.0" y="495.3855421686747" type="line"/>
      <point x="197.10843373493975" y="504.98795180722885" type="line"/>
      <point x="199.10843373493978" y="500.9879518072289" type="line"/>
      <point x="112.65060240963855" y="367.56626506024094" type="line"/>
    </contour>
  </outline>
</glyph>
<glyph name="plus" format="2">
  <advance width="600.0"/>
  <unicode hex="002B"/>
  <outline>
    <contour>
      <point x="271.50602409638554" y="40.0" type="line"/>
      <point x="328.49397590361446" y="40.0" type="line"/>
      <point x="328.49397590361446" y="259.73493975903614" type="line"/>
      <point x="544.0" y="259.73493975903614" type="line"/>
      <point x="544.0" y="315.26506024096386" type="line"/>
      <point x="328.49397590361446" y="315.26506024096386" type="line"/>
      <point x="328.49397590361446" y="528.0" type="line"/>
      <point x="271.50602409638554" y="528.0" type="line"/>
      <point x="271.50602409638554" y="315.26506024096386" type="line"/>
      <point x="56.0" y="315.26506024096386" type="line"/>
      <point x="56.0" y="259.73493975903614" type="line"/>
      <point x="271.50602409638554" y="259.73493975903614" type="line"/>
    </contour>
  </outline>
</glyph>
<glyph name="hyphen" format="2">
  <advance width="420.14430060240966"/>
  <unicode hex="002D"/>
  <outline>
    <contour>
      <point x="74.16867469879519" y="237.59036144578315" type="line"/>
      <point x="345.95180722891564" y="237.59036144578315" type="line"/>
      <point x="345.95180722891564" y="298.0120481927711" type="line"/>
      <point x="74.16867469879519" y="298.0120481927711" type="line"/>
    </contour>
  </outline>
</glyph>
<glyph name="period" format="2">
  <advance width="262.36075036144575"/>
  <unicode hex="002E"/>
  <outline>
    <contour>
      <point x="81.19277108433735" y="0.0" type="line"/>
      <point x="181.10843373493975" y="0.0" type="line"/>
      <point x="181.10843373493975" y="95.16867469879517" type="line"/>
      <point x="81.19277108433735" y="95.16867469879517" type="line"/>
    </contour>
  </outline>
</glyph>
<glyph name="slash" format="2">
  <advance width="287.97242192771085"/>
  <unicode hex="002F"/>
  <outline>
    <contour>
      <point x="46.903614457831324" y="-58.66265060240964" type="line"/>
      <point x="299.27710843373495" y="733.5421686746988" type="line"/>
      <point x="241.0" y="747.6626506024096" type="line"/>
      <point x="-11.373493975903614" y="-44.7710843373494" type="line"/>
    </contour>
  </outline>
</glyph>
<glyph name="zero" format="2">
  <advance width="600.0"/>
  <unicode hex="0030"/>
  <outline>
    <contour>
      <point x="300.0" y="-8.457831325301205" type="curve" smooth="yes"/>
      <point x="458.89156626506025" y="-8.457831325301205"/>
      <point x="546.3493975903615" y="117.2289156626506"/>
      <point x="546.3493975903615" y="354.77108433734935" type="curve" smooth="yes"/>
      <point x="546.3493975903615" y="587.7710843373494"/>
      <point x="461.43373493975906" y="713.4578313253012"/>
      <point x="300.7710843373494" y="713.4578313253012" type="curve" smooth="yes"/>
      <point x="140.33734939759034" y="713.4578313253012"/>
      <point x="53.65060240963855" y="589.0"/>
      <point x="53.65060240963855" y="352.2289156626506" type="curve" smooth="yes"/>
      <point x="53.65060240963855" y="117.0"/>
      <point x="140.33734939759034" y="-8.457831325301205"/>
    </contour>
    <contour>
      <point x="300.0" y="57.19277108433735" type="curve" smooth="yes"/>
      <point x="181.9277108433735" y="57.19277108433735"/>
      <point x="125.27710843373494" y="152.15662650602408"/>
      <point x="125.27710843373494" y="353.0" type="curve" smooth="yes"/>
      <point x="125.27710843373494" y="554.843373493976"/>
      <point x="181.9277108433735" y="647.8072289156627"/>
      <point x="300.7710843373494" y="647.8072289156627" type="curve" smooth="yes"/>
      <point x="418.8433734939759" y="647.8072289156627"/>
      <point x="474.72289156626505" y="555.6144578313254"/>
      <point x="474.72289156626505" y="353.77108433734935" type="curve" smooth="yes"/>
      <point x="474.72289156626505" y="151.15662650602408"/>
      <point x="418.0722891566265" y="57.19277108433735"/>
    </contour>
  </outline>
</glyph>
<glyph name="one" format="2">
  <advance width="600.0"/>
  <unicode hex="0031"/>
  <outline>
    <contour>
      <point x="74.6867469879518" y="0.0" type="line"/>
      <point x="563.1204819277109" y="0.0" type="line"/>
      <point x="563.1204819277109" y="63.33734939759036" type="line"/>
      <point x="364.2168674698795" y="63.33734939759036" type="line"/>
      <point x="364.2168674698795" y="705.0" type="line"/>
      <point x="309.3975903614458" y="705.0" type="line"/>
      <point x="73.87951807228916" y="549.8313253012049" type="line"/>
      <point x="108.51807228915663" y="493.4096385542168" type="line"/>
      <point x="333.68674698795184" y="641.5180722891566" type="line"/>
      <point x="293.44578313253015" y="650.7469879518072" type="line"/>
      <point x="293.44578313253015" y="63.33734939759036" type="line"/>
      <point x="74.6867469879518" y="63.33734939759036" type="line"/>
    </contour>
  </outline>
</glyph>
<glyph name="two" format="2">
  <advance width="600.0"/>
  <unicode hex="0032"/>
  <outline>
    <contour>
      <point x="81.79518072289157" y="0.0" type="line"/>
      <point x="536.3493975903614" y="0.0" type="line"/>
      <point x="536.3493975903614" y="64.87951807228916" type="line"/>
      <point x="184.06024096385542" y="64.87951807228916" type="line"/>
      <point x="184.06024096385542" y="69.33734939759036" type="line"/>
      <point x="387.34939759036143" y="279.71084337349396" type="line" smooth="yes"/>
      <point x="474.9759036144578" y="370.10843373493975"/>
      <point x="505.72289156626505" y="438.33734939759034"/>
      <point x="505.72289156626505" y="520.0240963855422" type="curve" smooth="yes"/>
      <point x="505.72289156626505" y="638.3132530120482"/>
      <point x="419.578313253012" y="713.4578313253012"/>
      <point x="289.3132530120482" y="713.4578313253012" type="curve" smooth="yes"/>
      <point x="203.16867469879517" y="713.4578313253012"/>
      <point x="122.96385542168676" y="682.9156626506025"/>
      <point x="60.734939759036145" y="621.7469879518072" type="curve"/>
      <point x="91.5421686746988" y="563.4698795180723" type="line"/>
      <point x="150.85542168674698" y="623.722891566265"/>
      <point x="219.93975903614458" y="647.8072289156627"/>
      <point x="287.421686746988" y="647.8072289156627" type="curve" smooth="yes"/>
      <point x="376.61445783132535" y="647.8072289156627"/>
      <point x="434.09638554216866" y="599.6987951807229"/>
      <point x="434.09638554216866" y="517.1927710843373" type="curve" smooth="yes"/>
      <point x="434.09638554216866" y="454.0843373493976"/>
      <point x="415.0963855421687" y="402.06024096385545"/>
      <point x="337.7590361445783" y="321.18072289156623" type="curve" smooth="yes"/>
      <point x="81.79518072289157" y="54.81927710843374" type="line"/>
    </contour>
  </outline>
</glyph>
<glyph name="three" format="2">
  <advance width="600.0"/>
  <unicode hex="0033"/>
  <outline>
    <contour>
      <point x="291.93975903614455" y="-8.457831325301205" type="curve" smooth="yes"/>
      <point x="431.20481927710847" y="-8.457831325301205"/>
      <point x="529.5783132530121" y="60.91566265060241"/>
      <point x="529.5783132530121" y="190.91566265060243" type="curve" smooth="yes"/>
      <point x="529.5783132530121" y="286.0"/>
      <point x="464.6385542168675" y="345.3975903614458"/>
      <point x="387.0120481927711" y="359.7710843373494" type="curve"/>
      <point x="387.0120481927711" y="364.2289156626506" type="line"/>
      <point x="464.6385542168675" y="390.68674698795184"/>
      <point x="514.6626506024097" y="456.31325301204816"/>
      <point x="514.6626506024097" y="534.6265060240963" type="curve" smooth="yes"/>
      <point x="514.6626506024097" y="645.6867469879518"/>
      <point x="428.28915662650604" y="713.4578313253012"/>
      <point x="302.2530120481928" y="713.4578313253012" type="curve" smooth="yes"/>
      <point x="213.33734939759037" y="713.4578313253012"/>
      <point x="127.04819277108435" y="685.4578313253013"/>
      <point x="70.36144578313254" y="622.5180722891566" type="curve"/>
      <point x="99.3975903614458" y="564.4698795180723" type="line"/>
      <point x="155.71084337349396" y="627.2650602409639"/>
      <point x="231.65060240963857" y="647.8072289156627"/>
      <point x="301.50602409638554" y="647.8072289156627" type="curve" smooth="yes"/>
      <point x="381.07228915662654" y="647.8072289156627"/>
      <point x="443.49397590361446" y="611.0120481927711"/>
      <point x="443.49397590361446" y="531.7349397590361" type="curve" smooth="yes"/>
      <point x="443.49397590361446" y="435.9759036144578"/>
      <point x="368.4457831325301" y="390.4096385542168"/>
      <point x="269.3132530120482" y="390.4096385542168" type="curve" smooth="yes"/>
      <point x="184.59036144578315" y="390.4096385542168" type="line"/>
      <point x="184.59036144578315" y="326.2168674698795" type="line"/>
      <point x="285.0" y="326.2168674698795" type="line" smooth="yes"/>
      <point x="397.7590361445783" y="326.2168674698795"/>
      <point x="458.4096385542168" y="278.56626506024094"/>
      <point x="458.4096385542168" y="190.43373493975903" type="curve" smooth="yes"/>
      <point x="458.4096385542168" y="93.98795180722892"/>
      <point x="379.5903614457831" y="57.19277108433735"/>
      <point x="292.79518072289153" y="57.19277108433735" type="curve" smooth="yes"/>
      <point x="225.02409638554215" y="57.19277108433735"/>
      <point x="151.4819277108434" y="77.19277108433734"/>
      <point x="88.3975903614458" y="135.44578313253012" type="curve"/>
      <point x="57.59036144578314" y="76.93975903614458" type="line"/>
      <point x="122.98795180722891" y="16.228915662650603"/>
      <point x="206.87951807228916" y="-8.457831325301205"/>
    </contour>
  </outline>
</glyph>
<glyph name="four" format="2">
  <advance width="600.0"/>
  <unicode hex="0034"/>
  <outline>
    <contour>
      <point x="393.0722891566265" y="0.0" type="line"/>
      <point x="461.5542168674699" y="0.0" type="line"/>
      <point x="461.5542168674699" y="149.73493975903614" type="line"/>
      <point x="559.1204819277109" y="149.73493975903614" type="line"/>
      <point x="559.1204819277109" y="212.32530120481928" type="line"/>
      <point x="461.5542168674699" y="212.32530120481928" type="line"/>
      <point x="461.5542168674699" y="705.0" type="line"/>
      <point x="379.9277108433735" y="705.0" type="line"/>
      <point x="55.87951807228916" y="205.63855421686748" type="line"/>
      <point x="55.87951807228916" y="149.73493975903614" type="line"/>
      <point x="393.0722891566265" y="149.73493975903614" type="line"/>
    </contour>
    <contour>
      <point x="394.67469879518075" y="212.32530120481928" type="line"/>
      <point x="113.6987951807229" y="212.32530120481928" type="line"/>
      <point x="123.53012048192771" y="199.63855421686745" type="line"/>
      <point x="390.21686746987956" y="611.0843373493975" type="line"/>
      <point x="394.67469879518075" y="611.0843373493975" type="line"/>
    </contour>
  </outline>
</glyph>
<glyph name="five" format="2">
  <advance width="600.0"/>
  <unicode hex="0035"/>
  <outline>
    <contour>
      <point x="307.48192771084337" y="-8.457831325301205" type="curve" smooth="yes"/>
      <point x="451.28915662650604" y="-8.457831325301205"/>
      <point x="545.3493975903614" y="73.37349397590361"/>
      <point x="545.3493975903614" y="219.83132530120483" type="curve" smooth="yes"/>
      <point x="545.3493975903614" y="352.28915662650604"/>
      <point x="461.34939759036143" y="442.8313253012048"/>
      <point x="325.3493975903615" y="442.8313253012048" type="curve" smooth="yes"/>
      <point x="256.0120481927711" y="442.8313253012048"/>
      <point x="198.9277108433735" y="407.66265060240966"/>
      <point x="167.0722891566265" y="360.0963855421687" type="curve"/>
      <point x="162.61445783132532" y="360.0963855421687" type="line"/>
      <point x="162.61445783132532" y="640.1204819277108" type="line"/>
      <point x="518.0602409638553" y="640.1204819277108" type="line"/>
      <point x="518.0602409638553" y="705.0" type="line"/>
      <point x="95.96385542168674" y="705.0" type="line"/>
      <point x="95.96385542168674" y="291.0240963855422" type="line"/>
      <point x="159.95180722891567" y="291.0240963855422" type="line"/>
      <point x="206.43373493975903" y="357.7831325301205"/>
      <point x="258.0843373493976" y="378.32530120481925"/>
      <point x="320.87951807228916" y="378.32530120481925" type="curve" smooth="yes"/>
      <point x="417.3855421686747" y="378.32530120481925"/>
      <point x="474.6385542168675" y="314.73493975903614"/>
      <point x="474.6385542168675" y="215.6024096385542" type="curve" smooth="yes"/>
      <point x="474.6385542168675" y="112.9277108433735"/>
      <point x="412.8433734939759" y="57.19277108433735"/>
      <point x="308.7951807228916" y="57.19277108433735" type="curve" smooth="yes"/>
      <point x="230.855421686747" y="57.19277108433735"/>
      <point x="168.0843373493976" y="80.73493975903614"/>
      <point x="108.5421686746988" y="140.53012048192772" type="curve"/>
      <point x="75.96385542168674" y="82.25301204819277" type="line"/>
      <point x="137.04819277108433" y="21.542168674698797"/>
      <point x="212.48192771084337" y="-8.457831325301205"/>
    </contour>
  </outline>
</glyph>
<glyph name="six" format="2">
  <advance width="600.0"/>
  <unicode hex="0036"/>
  <outline>
    <contour>
      <point x="322.45783132530124" y="-8.457831325301205" type="curve" smooth="yes"/>
      <point x="453.5180722891566" y="-8.457831325301205"/>
      <point x="545.8915662650603" y="85.91566265060241"/>
      <point x="545.8915662650603" y="217.74698795180723" type="curve" smooth="yes"/>
      <point x="545.8915662650603" y="349.7469879518072"/>
      <point x="455.12048192771084" y="441.2048192771084"/>
      <point x="324.4096385542169" y="441.2048192771084" type="curve" smooth="yes"/>
      <point x="232.1566265060241" y="441.2048192771084"/>
      <point x="152.36144578313252" y="384.86746987951807"/>
      <point x="133.2168674698795" y="293.9879518072289" type="curve"/>
      <point x="128.75903614457832" y="293.9879518072289" type="line"/>
      <point x="128.75903614457832" y="340.1807228915663" type="line" smooth="yes"/>
      <point x="128.75903614457832" y="538.5903614457832"/>
      <point x="201.9277108433735" y="647.8072289156627"/>
      <point x="340.7469879518072" y="647.8072289156627" type="curve" smooth="yes"/>
      <point x="405.144578313253" y="647.8072289156627"/>
      <point x="461.4578313253012" y="628.4939759036145"/>
      <point x="515.5421686746988" y="568.156626506024" type="curve"/>
      <point x="544.5783132530121" y="625.9759036144578" type="line"/>
      <point x="486.1204819277109" y="684.3734939759037"/>
      <point x="424.28915662650604" y="713.4578313253012"/>
      <point x="340.7469879518072" y="713.4578313253012" type="curve" smooth="yes"/>
      <point x="164.3975903614458" y="713.4578313253012"/>
      <point x="61.42168674698795" y="579.7710843373494"/>
      <point x="61.42168674698795" y="336.60240963855426" type="curve" smooth="yes"/>
      <point x="61.42168674698795" y="118.2289156626506"/>
      <point x="155.25301204819277" y="-8.457831325301205"/>
    </contour>
    <contour>
      <point x="320.31325301204816" y="56.04819277108434" type="curve" smooth="yes"/>
      <point x="221.95180722891567" y="56.04819277108434"/>
      <point x="156.2168674698795" y="120.78313253012048"/>
      <point x="156.2168674698795" y="217.3734939759036" type="curve" smooth="yes"/>
      <point x="156.2168674698795" y="310.1927710843373"/>
      <point x="222.95180722891567" y="376.69879518072287"/>
      <point x="318.5421686746988" y="376.69879518072287" type="curve" smooth="yes"/>
      <point x="412.5903614457832" y="376.69879518072287"/>
      <point x="476.7831325301205" y="312.73493975903614"/>
      <point x="476.7831325301205" y="217.3734939759036" type="curve" smooth="yes"/>
      <point x="476.7831325301205" y="120.78313253012048"/>
      <point x="414.3614457831326" y="56.04819277108434"/>
    </contour>
  </outline>
</glyph>
<glyph name="seven" format="2">
  <advance width="600.0"/>
  <unicode hex="0037"/>
  <outline>
    <contour>
      <point x="123.55421686746988" y="0.0" type="line"/>
      <point x="201.9277108433735" y="0.0" type="line"/>
      <point x="531.0361445783133" y="649.2650602409639" type="line"/>
      <point x="531.0361445783133" y="705.0" type="line"/>
      <point x="68.19277108433734" y="705.0" type="line"/>
      <point x="68.19277108433734" y="638.7469879518072" type="line"/>
      <point x="477.03614457831327" y="638.7469879518072" type="line"/>
      <point x="470.49397590361446" y="681.8674698795181" type="line"/>
    </contour>
  </outline>
</glyph>
<glyph name="eight" format="2">
  <advance width="600.0"/>
  <unicode hex="0038"/>
  <outline>
    <contour>
      <point x="300.0" y="-8.457831325301205" type="curve" smooth="yes"/>
      <point x="455.51807228915663" y="-8.457831325301205"/>
      <point x="551.1204819277109" y="63.45783132530121"/>
      <point x="551.1204819277109" y="184.3734939759036" type="curve" smooth="yes"/>
      <point x="551.1204819277109" y="273.9759036144578"/>
      <point x="486.34939759036143" y="340.91566265060237"/>
      <point x="404.09638554216866" y="358.2289156626506" type="curve"/>
      <point x="404.09638554216866" y="362.6867469879518" type="line"/>
      <point x="478.12048192771084" y="382.68674698795184"/>
      <point x="534.6626506024097" y="449.48192771084337"/>
      <point x="534.6626506024097" y="526.3132530120482" type="curve" smooth="yes"/>
      <point x="534.6626506024097" y="642.2289156626506"/>
      <point x="441.7469879518072" y="713.4578313253012"/>
      <point x="300.0" y="713.4578313253012" type="curve" smooth="yes"/>
      <point x="158.25301204819277" y="713.4578313253012"/>
      <point x="65.33734939759036" y="642.2289156626506"/>
      <point x="65.33734939759036" y="526.3132530120482" type="curve" smooth="yes"/>
      <point x="65.33734939759036" y="447.71084337349396"/>
      <point x="119.10843373493977" y="382.6867469879518"/>
      <point x="194.90361445783134" y="362.6867469879518" type="curve"/>
      <point x="194.90361445783134" y="358.2289156626506" type="line"/>
      <point x="105.56626506024097" y="339.144578313253"/>
      <point x="48.87951807228916" y="273.9759036144578"/>
      <point x="48.87951807228916" y="184.3734939759036" type="curve" smooth="yes"/>
      <point x="48.87951807228916" y="63.45783132530121"/>
      <point x="145.25301204819277" y="-8.457831325301205"/>
    </contour>
    <contour>
      <point x="300.0" y="54.50602409638554" type="curve" smooth="yes"/>
      <point x="183.32530120481925" y="54.50602409638554"/>
      <point x="118.44578313253012" y="100.98795180722891"/>
      <point x="118.44578313253012" y="189.20481927710844" type="curve" smooth="yes"/>
      <point x="118.44578313253012" y="277.4216867469879"/>
      <point x="183.32530120481925" y="326.67469879518075"/>
      <point x="300.0" y="326.67469879518075" type="curve" smooth="yes"/>
      <point x="416.67469879518075" y="326.67469879518075"/>
      <point x="481.5542168674699" y="277.4216867469879"/>
      <point x="481.5542168674699" y="189.20481927710844" type="curve" smooth="yes"/>
      <point x="481.5542168674699" y="100.98795180722891"/>
      <point x="416.67469879518075" y="54.50602409638554"/>
    </contour>
    <contour>
      <point x="300.0" y="389.6385542168675" type="curve" smooth="yes"/>
      <point x="198.0963855421687" y="389.6385542168675"/>
      <point x="134.9036144578313" y="438.7469879518072"/>
      <point x="134.9036144578313" y="522.1084337349398" type="curve" smooth="yes"/>
      <point x="134.9036144578313" y="603.2409638554217"/>
      <point x="198.0963855421687" y="651.2650602409639"/>
      <point x="300.0" y="651.2650602409639" type="curve" smooth="yes"/>
      <point x="401.90361445783134" y="651.2650602409639"/>
      <point x="465.0963855421687" y="603.2409638554217"/>
      <point x="465.0963855421687" y="522.1084337349398" type="curve" smooth="yes"/>
      <point x="465.0963855421687" y="438.7469879518072"/>
      <point x="401.90361445783134" y="389.6385542168675"/>
    </contour>
  </outline>
</glyph>
<glyph name="nine" format="2">
  <advance width="600.0"/>
  <unicode hex="0039"/>
  <outline>
    <contour>
      <point x="261.79518072289153" y="-8.457831325301205" type="curve" smooth="yes"/>
      <point x="436.60240963855426" y="-8.457831325301205"/>
      <point x="538.5783132530121" y="127.7710843373494"/>
      <point x="538.5783132530121" y="368.39759036144574" type="curve" smooth="yes"/>
      <point x="538.5783132530121" y="591.3132530120482"/>
      <point x="451.8313253012048" y="713.4578313253012"/>
      <point x="277.54216867469876" y="713.4578313253012" type="curve" smooth="yes"/>
      <point x="148.25301204819277" y="713.4578313253012"/>
      <point x="54.10843373493976" y="617.3132530120482"/>
      <point x="54.10843373493976" y="487.2530120481928" type="curve" smooth="yes"/>
      <point x="54.10843373493976" y="355.2530120481928"/>
      <point x="144.10843373493978" y="265.1686746987952"/>
      <point x="275.5903614457831" y="265.1686746987952" type="curve" smooth="yes"/>
      <point x="367.84337349397595" y="265.1686746987952"/>
      <point x="447.6385542168675" y="320.13253012048193"/>
      <point x="466.78313253012044" y="411.0120481927711" type="curve"/>
      <point x="471.24096385542174" y="411.0120481927711" type="line"/>
      <point x="471.24096385542174" y="364.8192771084337" type="line" smooth="yes"/>
      <point x="471.24096385542174" y="167.18072289156626"/>
      <point x="398.8433734939759" y="57.19277108433735"/>
      <point x="262.0240963855422" y="57.19277108433735" type="curve" smooth="yes"/>
      <point x="197.3975903614458" y="57.19277108433735"/>
      <point x="143.08433734939757" y="69.42168674698794"/>
      <point x="86.22891566265059" y="129.75903614457832" type="curve"/>
      <point x="55.42168674698795" y="73.71084337349397" type="line"/>
      <point x="113.87951807228916" y="15.313253012048191"/>
      <point x="178.4819277108434" y="-8.457831325301205"/>
    </contour>
    <contour>
      <point x="281.4578313253012" y="328.3012048192771" type="curve" smooth="yes"/>
      <point x="187.40963855421685" y="328.3012048192771"/>
      <point x="124.21686746987952" y="392.7228915662651"/>
      <point x="124.21686746987952" y="487.6265060240964" type="curve" smooth="yes"/>
      <point x="124.21686746987952" y="583.7590361445783"/>
      <point x="185.63855421686748" y="648.9518072289156"/>
      <point x="279.6867469879518" y="648.9518072289156" type="curve" smooth="yes"/>
      <point x="380.5903614457832" y="648.9518072289156"/>
      <point x="443.7831325301205" y="588.0722891566265"/>
      <point x="443.7831325301205" y="487.6265060240964" type="curve" smooth="yes"/>
      <point x="443.7831325301205" y="395.26506024096386"/>
      <point x="377.04819277108436" y="328.3012048192771"/>
    </contour>
  </outline>
</glyph>
<glyph name="colon" format="2">
  <advance width="262.36075036144575"/>
  <unicode hex="003A"/>
  <outline>
    <contour>
      <point x="81.19277108433735" y="402.49397590361446" type="line"/>
      <point x="181.10843373493975" y="402.49397590361446" type="line"/>
      <point x="181.10843373493975" y="496.06024096385545" type="line"/>
      <point x="81.19277108433735" y="496.06024096385545" type="line"/>
    </contour>
    <contour>
      <point x="81.19277108433735" y="0.0" type="line"/>
      <point x="181.10843373493975" y="0.0" type="line"/>
      <point x="181.10843373493975" y="92.56626506024095" type="line"/>
      <point x="81.19277108433735" y="92.56626506024095" type="line"/>
    </contour>
  </outline>
</glyph>
<glyph name="less" format="2">
  <advance width="600.0"/>
  <unicode hex="003C"/>
  <outline>
    <contour>
      <point x="544.0" y="32.31325301204819" type="line"/>
      <point x="544.0" y="93.98795180722891" type="line"/>
      <point x="139.65060240963857" y="281.2289156626506" type="line"/>
      <point x="139.65060240963857" y="285.68674698795184" type="line"/>
      <point x="544.0" y="473.9277108433735" type="line"/>
      <point x="544.0" y="534.6024096385541" type="line"/>
      <point x="56.0" y="308.09638554216866" type="line"/>
      <point x="56.0" y="258.5903614457831" type="line"/>
    </contour>
  </outline>
</glyph>
<glyph name="equal" format="2">
  <advance width="600.0"/>
  <unicode hex="003D"/>
  <outline>
    <contour>
      <point x="56.0" y="357.33734939759034" type="line"/>
      <point x="544.0" y="357.33734939759034" type="line"/>
      <point x="544.0" y="412.86746987951807" type="line"/>
      <point x="56.0" y="412.86746987951807" type="line"/>
    </contour>
    <contour>
      <point x="56.0" y="156.19277108433735" type="line"/>
      <point x="544.0" y="156.19277108433735" type="line"/>
      <point x="544.0" y="211.72289156626505" type="line"/>
      <point x="56.0" y="211.72289156626505" type="line"/>
    </contour>
  </outline>
</glyph>
<glyph name="greater" format="2">
  <advance width="600.0"/>
  <unicode hex="003E"/>
  <outline>
    <contour>
      <point x="56.0" y="32.31325301204819" type="line"/>
      <point x="544.0" y="258.8192771084337" type="line"/>
      <point x="544.0" y="308.32530120481925" type="line"/>
      <point x="56.0" y="534.6024096385541" type="line"/>
      <point x="56.0" y="473.9277108433735" type="line"/>
      <point x="460.34939759036143" y="285.68674698795184" type="line"/>
      <point x="460.34939759036143" y="281.2289156626506" type="line"/>
      <point x="56.0" y="93.7590361445783" type="line"/>
    </contour>
  </outline>
</glyph>
<glyph name="question" format="2">
  <advance width="483.4689740963855"/>
  <unicode hex="003F"/>
  <outline>
    <contour>
      <point x="183.3734939759036" y="190.13253012048193" type="line"/>
      <point x="240.02409638554215" y="190.13253012048193" type="line"/>
      <point x="241.25301204819277" y="204.21686746987953" type="line" smooth="yes"/>
      <point x="246.02409638554215" y="276.89156626506025"/>
      <point x="262.2530120481928" y="309.51807228915663"/>
      <point x="327.421686746988" y="359.3975903614458" type="curve" smooth="yes"/>
      <point x="382.7951807228916" y="401.33734939759034"/>
      <point x="454.0240963855422" y="461.87951807228916"/>
      <point x="454.0240963855422" y="548.8795180722892" type="curve" smooth="yes"/>
      <point x="454.0240963855422" y="658.0843373493976"/>
      <point x="367.5903614457831" y="713.4578313253012"/>
      <point x="237.32530120481928" y="713.4578313253012" type="curve" smooth="yes"/>
      <point x="158.95180722891567" y="713.4578313253012"/>
      <point x="69.28915662650603" y="679.9759036144579"/>
      <point x="10.0" y="623.7469879518072" type="curve"/>
      <point x="39.036144578313255" y="565.5542168674699" type="line"/>
      <point x="99.49397590361446" y="621.1807228915662"/>
      <point x="164.95180722891564" y="647.3493975903615"/>
      <point x="235.34939759036143" y="647.3493975903615" type="curve" smooth="yes"/>
      <point x="309.60240963855426" y="647.3493975903615"/>
      <point x="383.2530120481928" y="625.9518072289156"/>
      <point x="383.2530120481928" y="546.5903614457832" type="curve" smooth="yes"/>
      <point x="383.2530120481928" y="481.16867469879514"/>
      <point x="331.08433734939763" y="438.9156626506024"/>
      <point x="280.77108433734935" y="400.7469879518072" type="curve" smooth="yes"/>
      <point x="211.3734939759036" y="347.49397590361446"/>
      <point x="183.3734939759036" y="292.9277108433735"/>
      <point x="183.3734939759036" y="207.04819277108436" type="curve" smooth="yes"/>
    </contour>
    <contour>
      <point x="163.76971084337347" y="0.0" type="line"/>
      <point x="261.16867469879514" y="0.0" type="line"/>
      <point x="261.16867469879514" y="92.87951807228914" type="line"/>
      <point x="163.77108433734938" y="92.87951807228914" type="line"/>
    </contour>
  </outline>
</glyph>
<glyph name="at" format="2">
  <advance width="991.5783132530121"/>
  <unicode hex="0040"/>
  <outline>
    <contour>
      <point x="507.3734939759036" y="-150.289156626506" type="curve" smooth="yes"/>
      <point x="626.4578313253012" y="-150.289156626506"/>
      <point x="732.3132530120481" y="-110.12048192771084"/>
      <point x="797.0843373493975" y="-40.09638554216867" type="curve"/>
      <point x="764.5662650602409" y="2.457831325301205" type="line"/>
      <point x="707.6506024096385" y="-60.566265060240966"/>
      <point x="616.1686746987951" y="-94.50602409638553"/>
      <point x="507.3734939759036" y="-94.50602409638553" type="curve" smooth="yes"/>
      <point x="283.4939759036145" y="-94.50602409638553"/>
      <point x="145.18072289156626" y="45.51807228915663"/>
      <point x="145.18072289156626" y="273.93975903614455" type="curve" smooth="yes"/>
      <point x="145.18072289156626" y="502.87951807228916"/>
      <point x="294.03614457831327" y="657.6746987951807"/>
      <point x="518.7469879518072" y="657.6746987951807" type="curve" smooth="yes"/>
      <point x="718.3734939759036" y="657.6746987951807"/>
      <point x="849.7710843373494" y="531.710843373494"/>
      <point x="849.7710843373494" y="344.0843373493976" type="curve" smooth="yes"/>
      <point x="849.7710843373494" y="207.12048192771084"/>
      <point x="798.5421686746988" y="112.55421686746988"/>
      <point x="718.578313253012" y="112.55421686746988" type="curve" smooth="yes"/>
      <point x="677.867469879518" y="112.55421686746988"/>
      <point x="657.0120481927711" y="135.18072289156626"/>
      <point x="657.0120481927711" y="182.80722891566265" type="curve" smooth="yes"/>
      <point x="657.0120481927711" y="195.26506024096383"/>
      <point x="657.2409638554217" y="207.63855421686748"/>
      <point x="664.0120481927711" y="244.49397590361446" type="curve" smooth="yes"/>
      <point x="705.5542168674699" y="486.144578313253" type="line"/>
      <point x="646.566265060241" y="486.144578313253" type="line"/>
      <point x="636.566265060241" y="417.43373493975906" type="line"/>
      <point x="632.1084337349398" y="417.43373493975906" type="line"/>
      <point x="612.1084337349398" y="467.51807228915663"/>
      <point x="566.9397590361446" y="498.91566265060237"/>
      <point x="507.6265060240964" y="498.91566265060237" type="curve" smooth="yes"/>
      <point x="381.855421686747" y="498.91566265060237"/>
      <point x="289.5421686746988" y="391.14457831325296"/>
      <point x="289.5421686746988" y="243.6024096385542" type="curve" smooth="yes"/>
      <point x="289.5421686746988" y="130.6867469879518"/>
      <point x="349.45783132530124" y="63.31325301204819"/>
      <point x="448.9156626506024" y="63.31325301204819" type="curve" smooth="yes"/>
      <point x="506.4578313253012" y="63.31325301204819"/>
      <point x="561.3734939759036" y="96.3132530120482"/>
      <point x="596.7710843373494" y="151.6265060240964" type="curve"/>
      <point x="601.4578313253012" y="151.6265060240964" type="line"/>
      <point x="608.6024096385541" y="97.54216867469879"/>
      <point x="647.8313253012049" y="63.31325301204819"/>
      <point x="712.1204819277108" y="63.31325301204819" type="curve" smooth="yes"/>
      <point x="827.8072289156626" y="63.31325301204819"/>
      <point x="905.7831325301205" y="174.85542168674698"/>
      <point x="905.7831325301205" y="344.0843373493976" type="curve" smooth="yes"/>
      <point x="905.7831325301205" y="562.144578313253"/>
      <point x="752.4698795180724" y="713.4578313253012"/>
      <point x="518.7469879518072" y="713.4578313253012" type="curve" smooth="yes"/>
      <point x="262.855421686747" y="713.4578313253012"/>
      <point x="85.56626506024097" y="531.9156626506024"/>
      <point x="85.56626506024097" y="273.93975903614455" type="curve" smooth="yes"/>
      <point x="85.56626506024097" y="18.626506024096386"/>
      <point x="252.45783132530119" y="-150.289156626506"/>
    </contour>
    <contour>
      <point x="457.49397590361446" y="117.78313253012048" type="curve" smooth="yes"/>
      <point x="389.3855421686747" y="117.78313253012048"/>
      <point x="352.4457831325301" y="161.72289156626508"/>
      <point x="352.4457831325301" y="243.83132530120483" type="curve" smooth="yes"/>
      <point x="352.4457831325301" y="360.566265060241"/>
      <point x="420.09638554216866" y="444.2168674698795"/>
      <point x="511.28915662650604" y="444.2168674698795" type="curve" smooth="yes"/>
      <point x="582.9397590361446" y="444.2168674698795"/>
      <point x="617.6506024096385" y="407.5903614457832"/>
      <point x="617.6506024096385" y="329.16867469879514" type="curve" smooth="yes"/>
      <point x="617.6506024096385" y="206.20481927710844"/>
      <point x="549.4578313253012" y="117.78313253012048"/>
    </contour>
  </outline>
</glyph>
<glyph name="A" format="2">
  <advance width="772.6987951807229"/>
  <unicode hex="0041"/>
  <anchor x="387.12048192771084" y="0.0" name="bottom"/>
  <anchor x="715.0361445783133" y="0.0" name="ogonek"/>
  <anchor x="387.12048192771084" y="705.0" name="top"/>
  <outline>
    <contour>
      <point x="46.674698795180724" y="0.0" type="line"/>
      <point x="122.36144578313252" y="0.0" type="line"/>
      <point x="208.67469879518072" y="202.3975903614458" type="line"/>
      <point x="170.49397590361446" y="179.9277108433735" type="line"/>
      <point x="603.289156626506" y="179.9277108433735" type="line"/>
      <point x="563.3373493975903" y="202.3975903614458" type="line"/>
      <point x="649.6506024096385" y="0.0" type="line"/>
      <point x="726.0240963855422" y="0.0" type="line"/>
      <point x="419.81927710843377" y="705.0" type="line"/>
      <point x="352.87951807228916" y="705.0" type="line"/>
    </contour>
    <contour>
      <point x="383.89156626506025" y="616.5180722891566" type="line"/>
      <point x="388.34939759036143" y="616.5180722891566" type="line"/>
      <point x="552.566265060241" y="228.91566265060243" type="line"/>
      <point x="580.1084337349397" y="244.80722891566265" type="line"/>
      <point x="193.67469879518072" y="244.80722891566265" type="line"/>
      <point x="218.67469879518072" y="228.91566265060243" type="line"/>
    </contour>
  </outline>
</glyph>
<glyph name="B" format="2">
  <advance width="738.6385542168675"/>
  <unicode hex="0042"/>
  <anchor x="373.6867469879518" y="0.0" name="bottom"/>
  <anchor x="372.68674698795184" y="705.0" name="top"/>
  <outline>
    <contour>
      <point x="117.19277108433735" y="0.0" type="line"/>
      <point x="415.578313253012" y="0.0" type="line" smooth="yes"/>
      <point x="565.0120481927711" y="0.0"/>
      <point x="650.2168674698795" y="66.83132530120483"/>
      <point x="650.2168674698795" y="192.6024096385542" type="curve" smooth="yes"/>
      <point x="650.2168674698795" y="293.9156626506024"/>
      <point x="583.7349397590361" y="349.31325301204816"/>
      <point x="521.7349397590361" y="360.4578313253012" type="curve"/>
      <point x="521.7349397590361" y="364.9156626506024" type="line"/>
      <point x="582.3614457831326" y="378.28915662650604"/>
      <point x="633.7590361445783" y="432.6024096385542"/>
      <point x="633.7590361445783" y="520.4578313253012" type="curve" smooth="yes"/>
      <point x="633.7590361445783" y="640.7710843373494"/>
      <point x="550.0120481927711" y="705.0"/>
      <point x="404.8072289156626" y="705.0" type="curve" smooth="yes"/>
      <point x="117.19277108433735" y="705.0" type="line"/>
    </contour>
    <contour>
      <point x="189.10843373493975" y="64.87951807228916" type="line"/>
      <point x="189.10843373493975" y="324.2168674698795" type="line"/>
      <point x="413.89156626506025" y="324.2168674698795" type="line" smooth="yes"/>
      <point x="519.421686746988" y="324.2168674698795"/>
      <point x="577.5301204819277" y="283.0240963855421"/>
      <point x="577.5301204819277" y="190.80722891566265" type="curve" smooth="yes"/>
      <point x="577.5301204819277" y="109.67469879518072"/>
      <point x="527.277108433735" y="64.87951807228916"/>
      <point x="413.89156626506025" y="64.87951807228916" type="curve" smooth="yes"/>
    </contour>
    <contour>
      <point x="189.10843373493975" y="389.09638554216866" type="line"/>
      <point x="189.10843373493975" y="640.1204819277108" type="line"/>
      <point x="398.43373493975906" y="640.1204819277108" type="line" smooth="yes"/>
      <point x="510.9638554216868" y="640.1204819277108"/>
      <point x="561.0722891566265" y="599.5542168674699"/>
      <point x="561.0722891566265" y="520.9638554216867" type="curve" smooth="yes"/>
      <point x="561.0722891566265" y="432.7469879518072"/>
      <point x="506.65060240963857" y="389.09638554216866"/>
      <point x="398.43373493975906" y="389.09638554216866" type="curve" smooth="yes"/>
    </contour>
  </outline>
</glyph>
<glyph name="C" format="2">
  <advance width="719.0602409638554"/>
  <unicode hex="0043"/>
  <anchor x="404.28915662650604" y="0.0" name="bottom"/>
  <anchor x="405.83132530120486" y="705.0" name="top"/>
  <outline>
    <contour>
      <point x="407.34939759036143" y="-8.686746987951807" type="curve" smooth="yes"/>
      <point x="505.5783132530121" y="-8.686746987951807"/>
      <point x="587.2650602409639" y="22.168674698795183"/>
      <point x="647.1204819277108" y="82.87951807228916" type="curve"/>
      <point x="616.5421686746987" y="138.2168674698795" type="line"/>
      <point x="553.4578313253012" y="81.73493975903614"/>
      <point x="490.289156626506" y="58.566265060240966"/>
      <point x="407.72289156626505" y="58.566265060240966" type="curve" smooth="yes"/>
      <point x="254.04819277108436" y="58.566265060240966"/>
      <point x="160.48192771084337" y="160.0722891566265"/>
      <point x="160.48192771084337" y="353.2289156626506" type="curve" smooth="yes"/>
      <point x="160.48192771084337" y="545.3855421686746"/>
      <point x="253.50602409638554" y="646.433734939759"/>
      <point x="407.72289156626505" y="646.433734939759" type="curve" smooth="yes"/>
      <point x="490.289156626506" y="646.433734939759"/>
      <point x="553.4578313253012" y="623.2650602409639"/>
      <point x="616.5421686746987" y="566.7831325301205" type="curve"/>
      <point x="647.1204819277108" y="622.1204819277109" type="line"/>
      <point x="587.2650602409639" y="682.8313253012047"/>
      <point x="505.5783132530121" y="713.4578313253012"/>
      <point x="407.34939759036143" y="713.4578313253012" type="curve" smooth="yes"/>
      <point x="208.14457831325302" y="713.4578313253012"/>
      <point x="85.56626506024097" y="577.6867469879518"/>
      <point x="85.56626506024097" y="353.0" type="curve" smooth="yes"/>
      <point x="85.56626506024097" y="127.31325301204821"/>
      <point x="209.14457831325302" y="-8.686746987951807"/>
    </contour>
  </outline>
</glyph>
<glyph name="D" format="2">
  <advance width="790.7831325301205"/>
  <unicode hex="0044"/>
  <anchor x="400.83132530120486" y="0.0" name="bottom"/>
  <anchor x="212.2048192771084" y="358.0" name="center"/>
  <anchor x="399.8313253012048" y="705.0" name="top"/>
  <outline>
    <contour>
      <point x="117.19277108433735" y="0.0" type="line"/>
      <point x="356.32530120481925" y="0.0" type="line" smooth="yes"/>
      <point x="578.156626506024" y="0.0"/>
      <point x="704.9879518072289" y="127.45783132530121"/>
      <point x="704.9879518072289" y="353.0" type="curve" smooth="yes"/>
      <point x="704.9879518072289" y="578.3132530120482"/>
      <point x="579.9277108433735" y="705.0"/>
      <point x="356.32530120481925" y="705.0" type="curve" smooth="yes"/>
      <point x="117.19277108433735" y="705.0" type="line"/>
    </contour>
    <contour>
      <point x="189.10843373493978" y="65.56626506024097" type="line"/>
      <point x="189.10843373493978" y="639.433734939759" type="line"/>
      <point x="353.49397590361446" y="639.433734939759" type="line" smooth="yes"/>
      <point x="533.4216867469879" y="639.433734939759"/>
      <point x="630.0722891566265" y="549.3253012048192"/>
      <point x="630.0722891566265" y="353.0" type="curve" smooth="yes"/>
      <point x="630.0722891566265" y="156.67469879518072"/>
      <point x="532.6506024096386" y="65.56626506024097"/>
      <point x="353.49397590361446" y="65.56626506024097" type="curve" smooth="yes"/>
    </contour>
  </outline>
</glyph>
<glyph name="E" format="2">
  <advance width="660.3493975903614"/>
  <unicode hex="0045"/>
  <anchor x="351.14457831325296" y="0.0" name="bottom"/>
  <anchor x="525.4939759036143" y="0.0" name="ogonek"/>
  <anchor x="351.14457831325296" y="705.0" name="top"/>
  <anchor x="55.16867469879518" y="705.0" name="topleft"/>
  <outline>
    <contour>
      <point x="117.19277108433735" y="0.0" type="line"/>
      <point x="572.1807228915662" y="0.0" type="line"/>
      <point x="572.1807228915662" y="65.56626506024095" type="line"/>
      <point x="189.10843373493975" y="65.56626506024095" type="line"/>
      <point x="189.10843373493975" y="324.2168674698795" type="line"/>
      <point x="551.9518072289156" y="324.2168674698795" type="line"/>
      <point x="551.9518072289156" y="389.78313253012044" type="line"/>
      <point x="189.10843373493975" y="389.78313253012044" type="line"/>
      <point x="189.10843373493975" y="639.4337349397591" type="line"/>
      <point x="572.1807228915662" y="639.4337349397591" type="line"/>
      <point x="572.1807228915662" y="705.0" type="line"/>
      <point x="117.19277108433735" y="705.0" type="line"/>
    </contour>
  </outline>
</glyph>
<glyph name="F" format="2">
  <advance width="627.8915662650602"/>
  <unicode hex="0046"/>
  <anchor x="347.0240963855422" y="0.0" name="bottom"/>
  <anchor x="351.144578313253" y="705.0" name="top"/>
  <outline>
    <contour>
      <point x="117.19277108433735" y="0.0" type="line"/>
      <point x="189.10843373493978" y="0.0" type="line"/>
      <point x="189.10843373493978" y="321.9277108433735" type="line"/>
      <point x="551.9518072289158" y="321.9277108433735" type="line"/>
      <point x="551.9518072289158" y="387.49397590361446" type="line"/>
      <point x="189.10843373493978" y="387.49397590361446" type="line"/>
      <point x="189.10843373493978" y="639.4337349397591" type="line"/>
      <point x="571.9518072289156" y="639.4337349397591" type="line"/>
      <point x="571.9518072289156" y="705.0" type="line"/>
      <point x="117.19277108433735" y="705.0" type="line"/>
    </contour>
  </outline>
</glyph>
<glyph name="G" format="2">
  <advance width="789.9759036144579"/>
  <unicode hex="0047"/>
  <anchor x="425.0602409638554" y="0.0" name="bottom"/>
  <anchor x="419.66265060240966" y="705.0" name="top"/>
  <outline>
    <contour>
      <point x="431.14457831325296" y="-8.457831325301205" type="curve" smooth="yes"/>
      <point x="523.8915662650603" y="-8.457831325301205"/>
      <point x="629.1204819277109" y="12.313253012048193"/>
      <point x="683.3253012048193" y="40.45783132530121" type="curve"/>
      <point x="683.3253012048193" y="365.7590361445783" type="line"/>
      <point x="431.54216867469876" y="365.7590361445783" type="line"/>
      <point x="431.54216867469876" y="300.65060240963857" type="line"/>
      <point x="616.3855421686746" y="300.65060240963857" type="line"/>
      <point x="616.3855421686746" y="43.92771084337349" type="line"/>
      <point x="641.8192771084338" y="94.36144578313252" type="line"/>
      <point x="587.1084337349398" y="69.73493975903614"/>
      <point x="514.144578313253" y="57.10843373493976"/>
      <point x="432.66265060240966" y="57.10843373493976" type="curve" smooth="yes"/>
      <point x="258.9879518072289" y="57.10843373493976"/>
      <point x="160.4819277108434" y="152.5301204819277"/>
      <point x="160.4819277108434" y="353.0" type="curve" smooth="yes"/>
      <point x="160.4819277108434" y="545.6144578313252"/>
      <point x="255.50602409638554" y="646.433734939759"/>
      <point x="416.26506024096386" y="646.433734939759" type="curve" smooth="yes"/>
      <point x="509.3734939759036" y="646.433734939759"/>
      <point x="584.7710843373494" y="622.4939759036145"/>
      <point x="645.6867469879518" y="567.0120481927711" type="curve"/>
      <point x="676.0361445783133" y="622.1204819277108" type="line"/>
      <point x="619.2650602409637" y="681.8313253012047"/>
      <point x="524.433734939759" y="713.4578313253012"/>
      <point x="417.89156626506025" y="713.4578313253012" type="curve" smooth="yes"/>
      <point x="211.54216867469881" y="713.4578313253012"/>
      <point x="85.56626506024097" y="579.4578313253012"/>
      <point x="85.56626506024097" y="353.0" type="curve" smooth="yes"/>
      <point x="85.56626506024097" y="121.91566265060241"/>
      <point x="214.3132530120482" y="-8.457831325301205"/>
    </contour>
  </outline>
</glyph>
<glyph name="H" format="2">
  <advance width="812.0361445783133"/>
  <unicode hex="0048"/>
  <anchor x="406.51807228915663" y="0.0" name="bottom"/>
  <anchor x="406.51807228915663" y="549.433734939759" name="center"/>
  <anchor x="405.51807228915663" y="705.0" name="top"/>
  <anchor x="52.93975903614457" y="705.0" name="topleft"/>
  <outline>
    <contour>
      <point x="117.19277108433735" y="0.0" type="line"/>
      <point x="189.10843373493978" y="0.0" type="line"/>
      <point x="189.10843373493978" y="325.53012048192767" type="line"/>
      <point x="622.9277108433735" y="325.53012048192767" type="line"/>
      <point x="622.9277108433735" y="0.0" type="line"/>
      <point x="694.8433734939758" y="0.0" type="line"/>
      <point x="694.8433734939758" y="705.0" type="line"/>
      <point x="622.9277108433735" y="705.0" type="line"/>
      <point x="622.9277108433735" y="391.5542168674699" type="line"/>
      <point x="189.10843373493978" y="391.5542168674699" type="line"/>
      <point x="189.10843373493978" y="705.0" type="line"/>
      <point x="117.19277108433735" y="705.0" type="line"/>
    </contour>
  </outline>
</glyph>
<glyph name="J" format="2">
  <advance width="411.0120481927711"/>
  <unicode hex="004A"/>
  <anchor x="254.43373493975906" y="0.0" name="bottom"/>
  <anchor x="257.9759036144579" y="705.0" name="top"/>
  <outline>
    <contour>
      <point x="15.144578313253012" y="-6.686746987951807" type="line"/>
      <point x="101.09638554216868" y="-2.6867469879518073" type="line" smooth="yes"/>
      <point x="208.96385542168673" y="2.542168674698795"/>
      <point x="293.8192771084337" y="83.3132530120482"/>
      <point x="293.8192771084337" y="190.89156626506022" type="curve" smooth="yes"/>
      <point x="293.8192771084337" y="705.0" type="line"/>
      <point x="221.90361445783134" y="705.0" type="line"/>
      <point x="221.90361445783134" y="195.18072289156626" type="line" smooth="yes"/>
      <point x="221.90361445783134" y="116.98795180722892"/>
      <point x="164.62650602409641" y="66.87951807228916"/>
      <point x="93.51807228915663" y="63.10843373493976" type="curve" smooth="yes"/>
      <point x="10.0" y="59.10843373493976" type="line"/>
    </contour>
  </outline>
</glyph>
<glyph name="K" format="2">
  <advance width="668.9156626506024"/>
  <unicode hex="004B"/>
  <anchor x="348.6385542168675" y="0.0" name="bottom"/>
  <anchor x="347.86746987951807" y="705.0" name="top"/>
  <anchor x="55.16867469879518" y="705.0" name="topleft"/>
  <outline>
    <contour>
      <point x="117.19277108433735" y="0.0" type="line"/>
      <point x="189.10843373493978" y="0.0" type="line"/>
      <point x="189.10843373493978" y="334.56626506024094" type="line"/>
      <point x="193.56626506024097" y="334.56626506024094" type="line"/>
      <point x="558.5421686746988" y="0.0" type="line"/>
      <point x="658.8072289156627" y="0.0" type="line"/>
      <point x="244.19277108433735" y="380.8072289156627" type="line"/>
      <point x="239.4457831325301" y="337.56626506024094" type="line"/>
      <point x="633.5783132530121" y="705.0" type="line"/>
      <point x="539.3734939759037" y="705.0" type="line"/>
      <point x="193.56626506024097" y="382.26506024096386" type="line"/>
      <point x="189.10843373493978" y="382.26506024096386" type="line"/>
      <point x="189.10843373493978" y="705.0" type="line"/>
      <point x="117.19277108433735" y="705.0" type="line"/>
    </contour>
  </outline>
</glyph>
<glyph name="M" format="2">
  <advance width="927.156626506024"/>
  <unicode hex="004D"/>
  <anchor x="454.8313253012048" y="0.0" name="bottom"/>
  <anchor x="454.8313253012048" y="705.0" name="top"/>
  <outline>
    <contour>
      <point x="119.19277108433735" y="0.0" type="line"/>
      <point x="188.65060240963857" y="0.0" type="line"/>
      <point x="188.65060240963857" y="603.6385542168674" type="line"/>
      <point x="193.10843373493975" y="603.6385542168674" type="line"/>
      <point x="435.93975903614455" y="111.60240963855422" type="line"/>
      <point x="492.7590361445783" y="111.60240963855422" type="line"/>
      <point x="734.0481927710844" y="603.6385542168674" type="line"/>
      <point x="738.5060240963855" y="603.6385542168674" type="line"/>
      <point x="738.5060240963855" y="0.0" type="line"/>
      <point x="807.9638554216867" y="0.0" type="line"/>
      <point x="807.9638554216867" y="705.0" type="line"/>
      <point x="716.132530120482" y="705.0" type="line"/>
      <point x="466.8072289156627" y="195.66265060240963" type="line"/>
      <point x="462.3493975903615" y="195.66265060240963" type="line"/>
      <point x="211.4819277108434" y="705.0" type="line"/>
      <point x="119.19277108433735" y="705.0" type="line"/>
    </contour>
  </outline>
</glyph>
<glyph name="N" format="2">
  <advance width="826.9759036144578"/>
  <unicode hex="004E"/>
  <anchor x="417.14457831325296" y="0.0" name="bottom"/>
  <anchor x="418.0602409638554" y="705.0" name="top"/>
  <outline>
    <contour>
      <point x="117.19277108433735" y="0.0" type="line"/>
      <point x="186.65060240963857" y="0.0" type="line"/>
      <point x="186.65060240963857" y="590.3253012048193" type="line"/>
      <point x="191.10843373493975" y="590.3253012048193" type="line"/>
      <point x="639.2409638554217" y="0.0" type="line"/>
      <point x="709.7831325301205" y="0.0" type="line"/>
      <point x="709.7831325301205" y="705.0" type="line"/>
      <point x="640.3253012048192" y="705.0" type="line"/>
      <point x="640.3253012048192" y="112.8433734939759" type="line"/>
      <point x="635.8674698795181" y="112.8433734939759" type="line"/>
      <point x="186.44578313253012" y="705.0" type="line"/>
      <point x="117.19277108433735" y="705.0" type="line"/>
    </contour>
  </outline>
</glyph>
<glyph name="O" format="2">
  <advance width="817.0120481927711"/>
  <unicode hex="004F"/>
  <anchor x="417.7469879518072" y="-8.228915662650603" name="Qtail"/>
  <anchor x="408.12048192771084" y="0.0" name="bottom"/>
  <anchor x="418.7469879518072" y="358.31325301204816" name="center"/>
  <anchor x="477.43373493975906" y="0.0" name="ogonek"/>
  <anchor x="407.89156626506025" y="705.0" name="top"/>
  <anchor x="39.144578313253014" y="705.0" name="topleft"/>
  <anchor x="482.49397590361446" y="705.0" name="topright"/>
  <outline>
    <contour>
      <point x="408.12048192771084" y="-8.457831325301205" type="curve" smooth="yes"/>
      <point x="609.6385542168675" y="-8.457831325301205"/>
      <point x="731.2168674698795" y="126.91566265060241"/>
      <point x="731.2168674698795" y="353.2289156626506" type="curve" smooth="yes"/>
      <point x="731.2168674698795" y="578.3132530120482"/>
      <point x="610.4096385542169" y="713.4578313253012"/>
      <point x="408.12048192771084" y="713.4578313253012" type="curve" smooth="yes"/>
      <point x="205.8313253012048" y="713.4578313253012"/>
      <point x="85.56626506024097" y="578.3132530120482"/>
      <point x="85.56626506024097" y="352.2289156626506" type="curve" smooth="yes"/>
      <point x="85.56626506024097" y="126.91566265060241"/>
      <point x="207.3734939759036" y="-8.457831325301205"/>
    </contour>
    <contour>
      <point x="408.12048192771084" y="58.56626506024096" type="curve" smooth="yes"/>
      <point x="251.90361445783134" y="58.56626506024096"/>
      <point x="160.4819277108434" y="158.9879518072289"/>
      <point x="160.4819277108434" y="353.0" type="curve" smooth="yes"/>
      <point x="160.4819277108434" y="547.012048192771"/>
      <point x="251.90361445783134" y="646.433734939759"/>
      <point x="408.12048192771084" y="646.433734939759" type="curve" smooth="yes"/>
      <point x="565.8795180722891" y="646.433734939759"/>
      <point x="656.3012048192771" y="548.0120481927711"/>
      <point x="656.3012048192771" y="353.0" type="curve" smooth="yes"/>
      <point x="656.3012048192771" y="158.21686746987953"/>
      <point x="564.8795180722891" y="58.56626506024096"/>
    </contour>
  </outline>
</glyph>
<glyph name="P" format="2">
  <advance width="705.5542168674699"/>
  <unicode hex="0050"/>
  <anchor x="348.9759036144578" y="0.0" name="bottom"/>
  <anchor x="348.7469879518072" y="705.0" name="top"/>
  <outline>
    <contour>
      <point x="117.19277108433735" y="0.0" type="line"/>
      <point x="189.10843373493978" y="0.0" type="line"/>
      <point x="189.10843373493978" y="284.75903614457826" type="line"/>
      <point x="399.78313253012044" y="284.75903614457826" type="line" smooth="yes"/>
      <point x="547.9277108433735" y="284.75903614457826"/>
      <point x="636.9879518072289" y="365.50602409638554"/>
      <point x="636.9879518072289" y="496.10843373493975" type="curve" smooth="yes"/>
      <point x="636.9879518072289" y="627.1686746987951"/>
      <point x="548.9277108433735" y="705.0"/>
      <point x="399.78313253012044" y="705.0" type="curve" smooth="yes"/>
      <point x="117.19277108433735" y="705.0" type="line"/>
    </contour>
    <contour>
      <point x="189.10843373493978" y="349.6385542168675" type="line"/>
      <point x="189.10843373493978" y="640.1204819277109" type="line"/>
      <point x="389.66265060240966" y="640.1204819277109" type="line" smooth="yes"/>
      <point x="503.87951807228916" y="640.1204819277109"/>
      <point x="563.5301204819277" y="594.7831325301205"/>
      <point x="563.5301204819277" y="495.6506024096385" type="curve" smooth="yes"/>
      <point x="563.5301204819277" y="396.51807228915663"/>
      <point x="503.65060240963857" y="349.6385542168675"/>
      <point x="389.66265060240966" y="349.6385542168675" type="curve" smooth="yes"/>
    </contour>
  </outline>
</glyph>
<glyph name="R" format="2">
  <advance width="734.4096385542169"/>
  <unicode hex="0052"/>
  <anchor x="367.20481927710847" y="0.0" name="bottom"/>
  <anchor x="366.9759036144578" y="705.0" name="top"/>
  <outline>
    <contour>
      <point x="117.19277108433735" y="0.0" type="line"/>
      <point x="189.10843373493978" y="0.0" type="line"/>
      <point x="189.10843373493978" y="298.30120481927713" type="line"/>
      <point x="337.83132530120486" y="298.30120481927713" type="line" smooth="yes"/>
      <point x="410.10843373493975" y="298.30120481927713"/>
      <point x="445.27710843373495" y="283.21686746987956"/>
      <point x="476.9879518072289" y="222.56626506024097" type="curve" smooth="yes"/>
      <point x="594.156626506024" y="0.0" type="line"/>
      <point x="673.6746987951807" y="0.0" type="line"/>
      <point x="547.5060240963855" y="238.56626506024097" type="line" smooth="yes"/>
      <point x="525.277108433735" y="280.0240963855422"/>
      <point x="507.04819277108436" y="297.0240963855421"/>
      <point x="483.27710843373495" y="307.0240963855421" type="curve" smooth="yes"/>
      <point x="478.04819277108436" y="309.2530120481928" type="line"/>
      <point x="478.0481927710843" y="313.71084337349396" type="line"/>
      <point x="574.3855421686748" y="333.3975903614458"/>
      <point x="635.2168674698795" y="399.0240963855422"/>
      <point x="635.2168674698795" y="506.566265060241" type="curve" smooth="yes"/>
      <point x="635.2168674698795" y="637.1686746987951"/>
      <point x="549.8433734939758" y="705.0"/>
      <point x="401.72289156626505" y="705.0" type="curve" smooth="yes"/>
      <point x="117.19277108433735" y="705.0" type="line"/>
    </contour>
    <contour>
      <point x="189.10843373493978" y="361.72289156626505" type="line"/>
      <point x="189.10843373493978" y="640.1204819277109" type="line"/>
      <point x="395.2048192771084" y="640.1204819277109" type="line" smooth="yes"/>
      <point x="511.1927710843374" y="640.1204819277109"/>
      <point x="561.9879518072289" y="601.9518072289156"/>
      <point x="561.9879518072289" y="505.50602409638554" type="curve" smooth="yes"/>
      <point x="561.9879518072289" y="407.51807228915663"/>
      <point x="515.5060240963855" y="361.72289156626505"/>
      <point x="402.289156626506" y="361.72289156626505" type="curve" smooth="yes"/>
    </contour>
  </outline>
</glyph>
<glyph name="S" format="2">
  <advance width="666.6144578313254"/>
  <unicode hex="0053"/>
  <anchor x="330.72289156626505" y="0.0" name="bottom"/>
  <anchor x="351.3493975903615" y="705.0" name="top"/>
  <outline>
    <contour>
      <point x="350.28915662650604" y="-8.457831325301205" type="curve" smooth="yes"/>
      <point x="501.6987951807229" y="-8.457831325301205"/>
      <point x="601.5903614457832" y="78.6867469879518"/>
      <point x="601.5903614457832" y="197.12048192771084" type="curve" smooth="yes"/>
      <point x="601.5903614457832" y="289.8674698795181"/>
      <point x="539.4457831325301" y="349.1566265060241"/>
      <point x="401.67469879518075" y="376.0120481927711" type="curve" smooth="yes"/>
      <point x="283.13253012048193" y="399.09638554216866" type="line" smooth="yes"/>
      <point x="188.25301204819277" y="417.72289156626505"/>
      <point x="154.5421686746988" y="451.8313253012048"/>
      <point x="154.5421686746988" y="514.0240963855422" type="curve" smooth="yes"/>
      <point x="154.5421686746988" y="601.2409638554217"/>
      <point x="241.90361445783134" y="646.4337349397591"/>
      <point x="352.95180722891564" y="646.4337349397591" type="curve" smooth="yes"/>
      <point x="436.03614457831327" y="646.4337349397591"/>
      <point x="502.1807228915663" y="626.3493975903615"/>
      <point x="559.722891566265" y="566.0120481927711" type="curve"/>
      <point x="590.3012048192771" y="626.5783132530121" type="line"/>
      <point x="532.3012048192771" y="683.6024096385541"/>
      <point x="455.1807228915663" y="713.4578313253012"/>
      <point x="353.1807228915663" y="713.4578313253012" type="curve" smooth="yes"/>
      <point x="198.14457831325302" y="713.4578313253012"/>
      <point x="82.62650602409639" y="635.855421686747"/>
      <point x="82.62650602409639" y="515.7951807228915" type="curve" smooth="yes"/>
      <point x="82.62650602409639" y="422.5903614457832"/>
      <point x="130.91566265060243" y="359.6144578313253"/>
      <point x="260.7469879518072" y="333.3012048192771" type="curve" smooth="yes"/>
      <point x="380.28915662650604" y="309.2168674698795" type="line" smooth="yes"/>
      <point x="483.10843373493975" y="288.04819277108436"/>
      <point x="529.6746987951807" y="261.9397590361446"/>
      <point x="529.6746987951807" y="194.74698795180723" type="curve" smooth="yes"/>
      <point x="529.6746987951807" y="109.6144578313253"/>
      <point x="461.48192771084337" y="58.566265060240966"/>
      <point x="350.28915662650604" y="58.566265060240966" type="curve" smooth="yes"/>
      <point x="249.57831325301206" y="58.566265060240966"/>
      <point x="166.20481927710844" y="74.10843373493975"/>
      <point x="95.89156626506025" y="134.9879518072289" type="curve"/>
      <point x="66.08433734939759" y="74.42168674698796" type="line"/>
      <point x="129.22891566265062" y="16.626506024096386"/>
      <point x="230.74698795180723" y="-8.457831325301205"/>
    </contour>
  </outline>
</glyph>
<glyph name="T" format="2">
  <advance width="649.3855421686748"/>
  <unicode hex="0054"/>
  <anchor x="324.8072289156627" y="0.0" name="bottom"/>
  <anchor x="324.578313253012" y="349.9879518072289" name="center"/>
  <anchor x="324.578313253012" y="705.0" name="top"/>
  <outline>
    <contour>
      <point x="288.73493975903614" y="0.0" type="line"/>
      <point x="360.65060240963857" y="0.0" type="line"/>
      <point x="360.65060240963857" y="638.9759036144578" type="line"/>
      <point x="619.1566265060242" y="638.9759036144578" type="line"/>
      <point x="619.1566265060242" y="705.0" type="line"/>
      <point x="30.230289156626505" y="705.0" type="line"/>
      <point x="30.2289156626506" y="638.9759036144578" type="line"/>
      <point x="288.73493975903614" y="638.9759036144578" type="line"/>
    </contour>
  </outline>
</glyph>
<glyph name="U" format="2">
  <advance width="762.4096385542169"/>
  <unicode hex="0055"/>
  <anchor x="381.20481927710847" y="0.0" name="bottom"/>
  <anchor x="438.43373493975906" y="0.0" name="ogonek"/>
  <anchor x="381.20481927710847" y="705.0" name="top"/>
  <anchor x="590.1686746987953" y="705.0" name="topright"/>
  <outline>
    <contour>
      <point x="381.20481927710847" y="-8.457831325301205" type="curve" smooth="yes"/>
      <point x="560.0963855421686" y="-8.457831325301205"/>
      <point x="655.7590361445783" y="86.9156626506024"/>
      <point x="655.7590361445783" y="269.51807228915663" type="curve" smooth="yes"/>
      <point x="655.7590361445783" y="705.0" type="line"/>
      <point x="583.0722891566265" y="705.0" type="line"/>
      <point x="583.0722891566265" y="265.49397590361446" type="line" smooth="yes"/>
      <point x="583.0722891566265" y="122.73493975903615"/>
      <point x="512.1084337349398" y="61.16867469879518"/>
      <point x="381.20481927710847" y="61.16867469879518" type="curve" smooth="yes"/>
      <point x="248.9879518072289" y="61.16867469879518"/>
      <point x="178.33734939759037" y="122.50602409638554"/>
      <point x="178.33734939759037" y="265.49397590361446" type="curve" smooth="yes"/>
      <point x="178.33734939759037" y="705.0" type="line"/>
      <point x="106.42168674698794" y="705.0" type="line"/>
      <point x="106.42168674698794" y="269.51807228915663" type="line" smooth="yes"/>
      <point x="106.42168674698794" y="86.4578313253012"/>
      <point x="201.08433734939757" y="-8.457831325301205"/>
    </contour>
  </outline>
</glyph>
<glyph name="V" format="2">
  <advance width="683.9036144578314"/>
  <unicode hex="0056"/>
  <anchor x="342.9518072289157" y="0.0" name="bottom"/>
  <anchor x="341.9518072289157" y="705.0" name="top"/>
  <outline>
    <contour>
      <point x="309.710843373494" y="0.0" type="line"/>
      <point x="373.96385542168673" y="0.0" type="line"/>
      <point x="675.7951807228915" y="705.0" type="line"/>
      <point x="598.277108433735" y="705.0" type="line"/>
      <point x="344.1807228915663" y="97.26506024096386" type="line"/>
      <point x="339.72289156626505" y="97.26506024096386" type="line"/>
      <point x="85.62650602409639" y="705.0" type="line"/>
      <point x="8.108433734939759" y="705.0" type="line"/>
    </contour>
  </outline>
</glyph>
<glyph name="W" format="2">
  <advance width="1101.5301204819277"/>
  <unicode hex="0057"/>
  <anchor x="551.2650602409639" y="0.0" name="bottom"/>
  <anchor x="550.4939759036145" y="705.0" name="top"/>
  <outline>
    <contour>
      <point x="270.1686746987952" y="0.0" type="line"/>
      <point x="342.1927710843373" y="0.0" type="line"/>
      <point x="549.0361445783133" y="595.9879518072289" type="line"/>
      <point x="553.4939759036145" y="595.9879518072289" type="line"/>
      <point x="757.9638554216867" y="0.0" type="line"/>
      <point x="831.132530120482" y="0.0" type="line"/>
      <point x="1046.277108433735" y="705.0" type="line"/>
      <point x="973.3614457831325" y="705.0" type="line"/>
      <point x="794.289156626506" y="99.72289156626506" type="line"/>
      <point x="789.8313253012047" y="99.72289156626506" type="line"/>
      <point x="582.5903614457832" y="705.0" type="line"/>
      <point x="519.7697108433734" y="705.0" type="line"/>
      <point x="312.3855421686747" y="99.95180722891567" type="line"/>
      <point x="308.1566265060241" y="99.95180722891567" type="line"/>
      <point x="130.77108433734938" y="705.0" type="line"/>
      <point x="55.253012048192765" y="705.0" type="line"/>
    </contour>
  </outline>
</glyph>
<glyph name="X" format="2">
  <advance width="677.2168674698795"/>
  <unicode hex="0058"/>
  <anchor x="339.7228915662651" y="0.0" name="bottom"/>
  <anchor x="339.49397590361446" y="705.0" name="top"/>
  <outline>
    <contour>
      <point x="34.795180722891565" y="0.0" type="line"/>
      <point x="117.0" y="0.0" type="line"/>
      <point x="334.72289156626505" y="321.5542168674699" type="line"/>
      <point x="339.1807228915663" y="321.5542168674699" type="line"/>
      <point x="558.9879518072289" y="0.0" type="line"/>
      <point x="642.4216867469879" y="0.0" type="line"/>
      <point x="385.3132530120482" y="375.6626506024096" type="line"/>
      <point x="385.3132530120482" y="351.27710843373495" type="line"/>
      <point x="628.3373493975904" y="705.0" type="line"/>
      <point x="545.9036144578313" y="705.0" type="line"/>
      <point x="340.72289156626505" y="405.1566265060241" type="line"/>
      <point x="336.26506024096386" y="405.1566265060241" type="line"/>
      <point x="133.0843373493976" y="705.0" type="line"/>
      <point x="49.87951807228916" y="705.0" type="line"/>
      <point x="290.13253012048193" y="351.04819277108436" type="line"/>
      <point x="289.13253012048193" y="374.89156626506025" type="line"/>
    </contour>
  </outline>
</glyph>
<glyph name="Y" format="2">
  <advance width="621.4457831325301"/>
  <unicode hex="0059"/>
  <anchor x="310.7228915662651" y="0.0" name="bottom"/>
  <anchor x="310.7228915662651" y="705.0" name="top"/>
  <anchor x="56.975903614457835" y="705.0" name="topleft"/>
  <outline>
    <contour>
      <point x="274.65060240963857" y="0.0" type="line"/>
      <point x="346.566265060241" y="0.0" type="line"/>
      <point x="346.566265060241" y="367.0" type="line"/>
      <point x="334.13253012048193" y="306.32530120481925" type="line"/>
      <point x="610.2530120481928" y="705.0" type="line"/>
      <point x="528.4216867469879" y="705.0" type="line"/>
      <point x="313.9518072289157" y="393.8433734939759" type="line"/>
      <point x="309.49397590361446" y="393.8433734939759" type="line"/>
      <point x="94.02409638554217" y="705.0" type="line"/>
      <point x="11.19277108433735" y="705.0" type="line"/>
      <point x="287.855421686747" y="306.32530120481925" type="line"/>
      <point x="274.65060240963857" y="367.0" type="line"/>
    </contour>
  </outline>
</glyph>
<glyph name="Z" format="2">
  <advance width="607.132530120482"/>
  <unicode hex="005A"/>
  <anchor x="310.72289156626505" y="0.0" name="bottom"/>
  <anchor x="302.4096385542169" y="705.0" name="top"/>
  <outline>
    <contour>
      <point x="51.831325301204814" y="0.0" type="line"/>
      <point x="561.5903614457832" y="0.0" type="line"/>
      <point x="561.5903614457832" y="66.02409638554217" type="line"/>
      <point x="109.144578313253" y="66.02409638554217" type="line"/>
      <point x="121.06024096385542" y="27.21686746987952" type="line"/>
      <point x="551.3614457831326" y="659.8072289156627" type="line"/>
      <point x="551.3614457831326" y="705.0" type="line"/>
      <point x="51.831325301204814" y="705.0" type="line"/>
      <point x="51.831325301204814" y="638.9759036144578" type="line"/>
      <point x="493.81927710843377" y="638.9759036144578" type="line"/>
      <point x="481.67469879518075" y="677.7831325301205" type="line"/>
      <point x="51.831325301204814" y="45.65060240963855" type="line"/>
    </contour>
  </outline>
</glyph>
<glyph name="bracketleft" format="2">
  <advance width="327.11672024096384"/>
  <unicode hex="005B"/>
  <outline>
    <contour>
      <point x="110.62650602409639" y="-180.0" type="line"/>
      <point x="312.33734939759034" y="-180.0" type="line"/>
      <point x="312.33734939759034" y="-120.72289156626506" type="line"/>
      <point x="181.3975903614458" y="-120.72289156626506" type="line"/>
      <point x="181.3975903614458" y="645.722891566265" type="line"/>
      <point x="312.33734939759034" y="645.722891566265" type="line"/>
      <point x="312.33734939759034" y="705.0" type="line"/>
      <point x="110.62650602409639" y="705.0" type="line"/>
    </contour>
  </outline>
</glyph>
<glyph name="bracketright" format="2">
  <advance width="327.11672024096384"/>
  <unicode hex="005D"/>
  <outline>
    <contour>
      <point x="14.686746987951807" y="-180.0" type="line"/>
      <point x="216.3975903614458" y="-180.0" type="line"/>
      <point x="216.3975903614458" y="705.0" type="line"/>
      <point x="14.686746987951807" y="705.0" type="line"/>
      <point x="14.686746987951807" y="645.722891566265" type="line"/>
      <point x="145.62650602409636" y="645.722891566265" type="line"/>
      <point x="145.62650602409636" y="-120.72289156626506" type="line"/>
      <point x="14.686746987951807" y="-120.72289156626506" type="line"/>
    </contour>
  </outline>
</glyph>
<glyph name="asciicircum" format="2">
  <advance width="600.0"/>
  <unicode hex="005E"/>
  <outline>
    <contour>
      <point x="49.855421686746986" y="140.0" type="line"/>
      <point x="109.53012048192771" y="140.0" type="line"/>
      <point x="297.2289156626506" y="547.3493975903614" type="line"/>
      <point x="301.68674698795184" y="547.3493975903614" type="line"/>
      <point x="490.46987951807233" y="140.0" type="line"/>
      <point x="550.144578313253" y="140.0" type="line"/>
      <point x="324.6385542168675" y="628.0" type="line"/>
      <point x="275.3614457831325" y="628.0" type="line"/>
    </contour>
  </outline>
</glyph>
<glyph name="underscore" format="2">
  <advance width="500.0"/>
  <unicode hex="005F"/>
  <outline>
    <contour>
      <point x="5.831325301204819" y="-54.5301204819277" type="line"/>
      <point x="494.1686746987952" y="-54.5301204819277" type="line"/>
      <point x="494.1686746987952" y="0.0" type="line"/>
      <point x="5.831325301204819" y="0.0" type="line"/>
    </contour>
  </outline>
</glyph>
<glyph name="a" format="2">
  <advance width="628.3253012048193"/>
  <unicode hex="0061"/>
  <anchor x="270.86746987951807" y="0.0" name="bottom"/>
  <anchor x="514.3253012048193" y="0.0" name="ogonek"/>
  <anchor x="317.6626506024096" y="484.0" name="top"/>
  <outline>
    <contour>
      <point x="267.0843373493976" y="-8.457831325301205" type="curve" smooth="yes"/>
      <point x="364.6265060240964" y="-8.457831325301205"/>
      <point x="429.3373493975904" y="51.337349397590366"/>
      <point x="460.2530120481928" y="108.16867469879519" type="curve"/>
      <point x="465.71084337349396" y="108.16867469879519" type="line"/>
      <point x="465.71084337349396" y="0.0" type="line"/>
      <point x="529.1325301204819" y="0.0" type="line"/>
      <point x="529.1325301204819" y="319.1927710843374" type="line" smooth="yes"/>
      <point x="529.1325301204819" y="448.144578313253"/>
      <point x="439.53012048192767" y="504.51807228915663"/>
      <point x="316.03614457831327" y="504.51807228915663" type="curve" smooth="yes"/>
      <point x="241.6867469879518" y="504.51807228915663"/>
      <point x="163.5421686746988" y="483.9759036144578"/>
      <point x="102.10843373493977" y="445.7469879518072" type="curve"/>
      <point x="127.5421686746988" y="389.61445783132535" type="line"/>
      <point x="190.14457831325302" y="427.9277108433735"/>
      <point x="247.9156626506024" y="442.4698795180723"/>
      <point x="309.855421686747" y="442.4698795180723" type="curve" smooth="yes"/>
      <point x="405.421686746988" y="442.4698795180723"/>
      <point x="458.13253012048193" y="403.96385542168673"/>
      <point x="458.13253012048193" y="323.0843373493976" type="curve" smooth="yes"/>
      <point x="458.13253012048193" y="207.06024096385542" type="line" smooth="yes"/>
      <point x="458.13253012048193" y="125.09638554216868"/>
      <point x="374.08433734939763" y="52.674698795180724"/>
      <point x="277.4096385542169" y="52.674698795180724" type="curve" smooth="yes"/>
      <point x="207.5301204819277" y="52.674698795180724"/>
      <point x="153.10843373493975" y="82.46987951807229"/>
      <point x="153.10843373493975" y="141.34939759036143" type="curve" smooth="yes"/>
      <point x="153.10843373493975" y="215.6265060240964"/>
      <point x="226.9879518072289" y="231.71084337349396"/>
      <point x="388.31325301204816" y="231.71084337349396" type="curve" smooth="yes"/>
      <point x="471.73493975903614" y="231.71084337349396" type="line"/>
      <point x="471.73493975903614" y="287.4096385542169" type="line"/>
      <point x="384.71084337349396" y="287.4096385542169" type="line" smooth="yes"/>
      <point x="187.04819277108433" y="287.4096385542169"/>
      <point x="81.10843373493977" y="254.3734939759036"/>
      <point x="81.10843373493977" y="136.66265060240963" type="curve" smooth="yes"/>
      <point x="81.10843373493977" y="53.373493975903614"/>
      <point x="160.48192771084337" y="-8.457831325301205"/>
    </contour>
  </outline>
</glyph>
<glyph name="b" format="2">
  <advance width="658.0963855421687"/>
  <unicode hex="0062"/>
  <anchor x="348.0240963855421" y="0.0" name="bottom"/>
  <anchor x="347.51807228915663" y="705.0" name="top"/>
  <outline>
    <contour>
      <point x="355.5301204819277" y="-8.457831325301205" type="curve" smooth="yes"/>
      <point x="495.5903614457831" y="-8.457831325301205"/>
      <point x="587.9879518072289" y="95.144578313253"/>
      <point x="587.9879518072289" y="248.14457831325302" type="curve" smooth="yes"/>
      <point x="587.9879518072289" y="400.4578313253012"/>
      <point x="495.5903614457831" y="504.51807228915663"/>
      <point x="356.44578313253015" y="504.51807228915663" type="curve" smooth="yes"/>
      <point x="272.3614457831325" y="504.51807228915663"/>
      <point x="208.10843373493978" y="462.89156626506025"/>
      <point x="178.10843373493975" y="393.09638554216866" type="curve"/>
      <point x="172.87951807228916" y="393.09638554216866" type="line"/>
      <point x="172.87951807228916" y="705.0" type="line"/>
      <point x="100.96385542168674" y="705.0" type="line"/>
      <point x="100.96385542168674" y="0.0" type="line"/>
      <point x="166.44578313253012" y="0.0" type="line"/>
      <point x="166.44578313253012" y="107.71084337349397" type="line"/>
      <point x="171.90361445783134" y="107.71084337349397" type="line"/>
      <point x="204.59036144578315" y="33.93975903614458"/>
      <point x="270.21686746987956" y="-8.457831325301205"/>
    </contour>
    <contour>
      <point x="344.2048192771084" y="54.04819277108434" type="curve" smooth="yes"/>
      <point x="237.84337349397592" y="54.04819277108434"/>
      <point x="172.42168674698794" y="130.78313253012047"/>
      <point x="172.42168674698794" y="247.3734939759036" type="curve" smooth="yes"/>
      <point x="172.42168674698794" y="364.50602409638554"/>
      <point x="237.6144578313253" y="442.0120481927711"/>
      <point x="343.2048192771084" y="442.0120481927711" type="curve" smooth="yes"/>
      <point x="449.7951807228916" y="442.0120481927711"/>
      <point x="515.7590361445783" y="364.50602409638554"/>
      <point x="515.7590361445783" y="247.3734939759036" type="curve" smooth="yes"/>
      <point x="515.7590361445783" y="130.78313253012047"/>
      <point x="450.7951807228916" y="54.04819277108434"/>
    </contour>
  </outline>
</glyph>
<glyph name="c" format="2">
  <advance width="525.9140618072289"/>
  <unicode hex="0063"/>
  <anchor x="316.7710843373494" y="0.0" name="bottom"/>
  <anchor x="316.7710843373494" y="484.0" name="top"/>
  <outline>
    <contour>
      <point x="321.9156626506024" y="-8.457831325301205" type="curve" smooth="yes"/>
      <point x="392.20481927710847" y="-8.457831325301205"/>
      <point x="455.03614457831327" y="16.08433734939759"/>
      <point x="492.95180722891564" y="55.71084337349397" type="curve"/>
      <point x="464.6024096385542" y="109.36144578313254" type="line"/>
      <point x="428.06024096385545" y="76.42168674698794"/>
      <point x="374.89156626506025" y="56.337349397590366"/>
      <point x="326.578313253012" y="56.337349397590366" type="curve" smooth="yes"/>
      <point x="214.53012048192772" y="56.337349397590366"/>
      <point x="142.7951807228916" y="125.9277108433735"/>
      <point x="142.7951807228916" y="246.3734939759036" type="curve" smooth="yes"/>
      <point x="142.7951807228916" y="369.13253012048193"/>
      <point x="214.53012048192772" y="439.72289156626505"/>
      <point x="327.578313253012" y="439.72289156626505" type="curve" smooth="yes"/>
      <point x="375.6626506024096" y="439.72289156626505"/>
      <point x="429.06024096385545" y="418.86746987951807"/>
      <point x="468.3734939759036" y="383.1566265060241" type="curve"/>
      <point x="496.49397590361446" y="437.8072289156627" type="line"/>
      <point x="456.03614457831327" y="478.9759036144578"/>
      <point x="392.20481927710847" y="504.51807228915663"/>
      <point x="322.9156626506024" y="504.51807228915663" type="curve" smooth="yes"/>
      <point x="170.93975903614458" y="504.51807228915663"/>
      <point x="70.10843373493977" y="405.6024096385542"/>
      <point x="70.10843373493977" y="247.144578313253" type="curve" smooth="yes"/>
      <point x="70.10843373493977" y="90.6867469879518"/>
      <point x="169.16867469879517" y="-8.457831325301205"/>
    </contour>
  </outline>
</glyph>
<glyph name="d" format="2">
  <advance width="658.0963855421687"/>
  <unicode hex="0064"/>
  <anchor x="308.7469879518072" y="0.0" name="bottom"/>
  <anchor x="281.24096385542174" y="245.6867469879518" name="center"/>
  <anchor x="463.28915662650604" y="583.6626506024097" name="stroke"/>
  <anchor x="310.5783132530121" y="509.4096385542169" name="top"/>
  <anchor x="607.132530120482" y="705.0" name="topright"/>
  <outline>
    <contour>
      <point x="302.56626506024094" y="-8.457831325301205" type="curve" smooth="yes"/>
      <point x="387.87951807228916" y="-8.457831325301205"/>
      <point x="453.50602409638554" y="33.93975903614458"/>
      <point x="486.1927710843374" y="107.71084337349397" type="curve"/>
      <point x="491.65060240963857" y="107.71084337349397" type="line"/>
      <point x="491.65060240963857" y="0.0" type="line"/>
      <point x="557.1325301204819" y="0.0" type="line"/>
      <point x="557.1325301204819" y="705.0" type="line"/>
      <point x="485.2168674698795" y="705.0" type="line"/>
      <point x="485.2168674698795" y="393.09638554216866" type="line"/>
      <point x="479.9879518072289" y="393.09638554216866" type="line"/>
      <point x="449.9879518072289" y="462.89156626506025"/>
      <point x="385.73493975903614" y="504.51807228915663"/>
      <point x="301.6506024096385" y="504.51807228915663" type="curve" smooth="yes"/>
      <point x="162.50602409638554" y="504.51807228915663"/>
      <point x="70.10843373493977" y="400.4578313253012"/>
      <point x="70.10843373493977" y="248.14457831325302" type="curve" smooth="yes"/>
      <point x="70.10843373493977" y="95.144578313253"/>
      <point x="162.50602409638554" y="-8.457831325301205"/>
    </contour>
    <contour>
      <point x="314.12048192771084" y="54.04819277108434" type="curve" smooth="yes"/>
      <point x="207.75903614457832" y="54.04819277108434"/>
      <point x="142.33734939759037" y="130.78313253012047"/>
      <point x="142.33734939759037" y="247.3734939759036" type="curve" smooth="yes"/>
      <point x="142.33734939759037" y="364.50602409638554"/>
      <point x="208.53012048192772" y="442.0120481927711"/>
      <point x="314.89156626506025" y="442.0120481927711" type="curve" smooth="yes"/>
      <point x="420.710843373494" y="442.0120481927711"/>
      <point x="485.67469879518075" y="364.50602409638554"/>
      <point x="485.67469879518075" y="247.3734939759036" type="curve" smooth="yes"/>
      <point x="485.67469879518075" y="130.78313253012047"/>
      <point x="420.710843373494" y="54.04819277108434"/>
    </contour>
  </outline>
</glyph>
<glyph name="e" format="2">
  <advance width="611.8350169879518"/>
  <unicode hex="0065"/>
  <anchor x="313.8313253012048" y="0.0" name="bottom"/>
  <anchor x="385.49397590361446" y="0.0" name="ogonek"/>
  <anchor x="314.7469879518072" y="484.0" name="top"/>
  <outline>
    <contour>
      <point x="335.95180722891564" y="-8.457831325301205" type="curve" smooth="yes"/>
      <point x="402.4096385542169" y="-8.457831325301205"/>
      <point x="480.1807228915663" y="8.855421686746988"/>
      <point x="532.3253012048193" y="54.25301204819277" type="curve"/>
      <point x="504.12048192771084" y="107.07228915662651" type="line"/>
      <point x="452.1807228915663" y="64.27710843373494"/>
      <point x="390.09638554216866" y="54.27710843373494"/>
      <point x="335.7831325301205" y="54.27710843373494" type="curve" smooth="yes"/>
      <point x="217.69879518072287" y="54.27710843373494"/>
      <point x="140.73493975903614" y="122.40963855421687"/>
      <point x="140.73493975903614" y="249.3734939759036" type="curve" smooth="yes"/>
      <point x="140.73493975903614" y="259.20481927710847" type="line" smooth="yes"/>
      <point x="140.73493975903614" y="375.7951807228916"/>
      <point x="214.9277108433735" y="444.6144578313253"/>
      <point x="313.43373493975906" y="444.6144578313253" type="curve" smooth="yes"/>
      <point x="417.0240963855422" y="444.6144578313253"/>
      <point x="477.5903614457832" y="376.93975903614455"/>
      <point x="477.5903614457832" y="260.578313253012" type="curve"/>
      <point x="500.3012048192771" y="284.2048192771084" type="line"/>
      <point x="121.04819277108435" y="284.2048192771084" type="line"/>
      <point x="121.04819277108435" y="228.04819277108433" type="line"/>
      <point x="541.9277108433736" y="228.04819277108433" type="line"/>
      <point x="541.9277108433736" y="248.4578313253012" type="line" smooth="yes"/>
      <point x="541.9277108433736" y="401.89156626506025"/>
      <point x="466.289156626506" y="504.51807228915663"/>
      <point x="313.9759036144578" y="504.51807228915663" type="curve" smooth="yes"/>
      <point x="158.855421686747" y="504.51807228915663"/>
      <point x="70.10843373493977" y="395.9156626506024"/>
      <point x="70.10843373493977" y="248.9156626506024" type="curve" smooth="yes"/>
      <point x="70.10843373493977" y="84.37349397590361"/>
      <point x="173.33734939759034" y="-8.457831325301205"/>
    </contour>
  </outline>
</glyph>
<glyph name="f" format="2">
  <advance width="407.5549122891566"/>
  <unicode hex="0066"/>
  <anchor x="167.95180722891567" y="0.0" name="bottom"/>
  <anchor x="158.63855421686748" y="705.0" name="top"/>
  <outline>
    <contour>
      <point x="131.87951807228916" y="0.0" type="line"/>
      <point x="203.7951807228916" y="0.0" type="line"/>
      <point x="203.7951807228916" y="436.0120481927711" type="line"/>
      <point x="372.9879518072289" y="436.0120481927711" type="line"/>
      <point x="372.9879518072289" y="496.06024096385545" type="line"/>
      <point x="191.50602409638554" y="496.06024096385545" type="line"/>
      <point x="203.7951807228916" y="487.20481927710847" type="line"/>
      <point x="203.7951807228916" y="512.6867469879519" type="line" smooth="yes"/>
      <point x="203.7951807228916" y="617.2409638554217"/>
      <point x="270.0963855421687" y="637.9518072289156"/>
      <point x="338.03614457831327" y="642.4939759036145" type="curve" smooth="yes"/>
      <point x="398.21686746987956" y="646.4939759036145" type="line"/>
      <point x="392.0722891566265" y="708.6024096385541" type="line"/>
      <point x="340.26506024096386" y="705.6024096385541" type="line" smooth="yes"/>
      <point x="207.39759036144576" y="698.0602409638554"/>
      <point x="131.87951807228916" y="631.6867469879518"/>
      <point x="131.87951807228916" y="507.421686746988" type="curve" smooth="yes"/>
      <point x="131.87951807228916" y="478.65060240963857" type="line"/>
      <point x="149.06024096385542" y="496.06024096385545" type="line"/>
      <point x="26.481927710843372" y="496.06024096385545" type="line"/>
      <point x="26.481927710843372" y="436.0120481927711" type="line"/>
      <point x="131.87951807228916" y="436.0120481927711" type="line"/>
    </contour>
  </outline>
</glyph>
<glyph name="g" format="2">
  <advance width="656.5542168674699"/>
  <unicode hex="0067"/>
  <anchor x="311.26506024096386" y="484.0" name="top"/>
  <outline>
    <contour>
      <point x="309.7710843373494" y="-187.6867469879518" type="curve" smooth="yes"/>
      <point x="458.6987951807229" y="-187.6867469879518"/>
      <point x="555.5903614457831" y="-95.93975903614458"/>
      <point x="555.5903614457831" y="42.325301204819276" type="curve" smooth="yes"/>
      <point x="555.5903614457831" y="496.06024096385545" type="line"/>
      <point x="488.7349397590362" y="496.06024096385545" type="line"/>
      <point x="488.7349397590362" y="386.9518072289157" type="line"/>
      <point x="483.50602409638554" y="386.9518072289157" type="line"/>
      <point x="456.04819277108436" y="457.89156626506025"/>
      <point x="388.421686746988" y="504.51807228915663"/>
      <point x="306.56626506024094" y="504.51807228915663" type="curve" smooth="yes"/>
      <point x="163.02409638554218" y="504.51807228915663"/>
      <point x="70.10843373493977" y="406.51807228915663"/>
      <point x="70.10843373493977" y="258.5180722891566" type="curve" smooth="yes"/>
      <point x="70.10843373493977" y="110.51807228915663"/>
      <point x="163.02409638554218" y="12.518072289156626"/>
      <point x="306.56626506024094" y="12.518072289156626" type="curve" smooth="yes"/>
      <point x="388.4216867469879" y="12.518072289156626"/>
      <point x="454.27710843373495" y="57.83132530120482"/>
      <point x="480.73493975903614" y="123.5421686746988" type="curve"/>
      <point x="487.96385542168673" y="123.5421686746988" type="line"/>
      <point x="487.96385542168673" y="35.867469879518076" type="line" smooth="yes"/>
      <point x="487.96385542168673" y="-61.84337349397591"/>
      <point x="418.3975903614458" y="-123.57831325301206"/>
      <point x="309.85542168674704" y="-123.57831325301206" type="curve" smooth="yes"/>
      <point x="249.2289156626506" y="-123.57831325301206"/>
      <point x="173.14457831325302" y="-99.49397590361446"/>
      <point x="119.51807228915663" y="-62.867469879518076" type="curve"/>
      <point x="94.0843373493976" y="-120.97590361445782" type="line"/>
      <point x="147.77108433734938" y="-161.06024096385542"/>
      <point x="233.77108433734938" y="-187.6867469879518"/>
    </contour>
    <contour>
      <point x="314.12048192771084" y="75.02409638554217" type="curve" smooth="yes"/>
      <point x="208.75903614457832" y="75.02409638554217"/>
      <point x="142.10843373493975" y="148.0722891566265"/>
      <point x="142.10843373493975" y="258.74698795180717" type="curve" smooth="yes"/>
      <point x="142.10843373493975" y="368.96385542168673"/>
      <point x="208.75903614457832" y="442.0120481927711"/>
      <point x="314.12048192771084" y="442.0120481927711" type="curve" smooth="yes"/>
      <point x="419.2530120481928" y="442.0120481927711"/>
      <point x="485.9036144578313" y="368.96385542168673"/>
      <point x="485.9036144578313" y="258.74698795180717" type="curve" smooth="yes"/>
      <point x="485.9036144578313" y="148.0722891566265"/>
      <point x="419.2530120481928" y="75.02409638554217"/>
    </contour>
  </outline>
</glyph>
<glyph name="h" format="2">
  <advance width="641.698795180723"/>
  <unicode hex="0068"/>
  <anchor x="328.66265060240966" y="0.0" name="bottom"/>
  <anchor x="328.66265060240966" y="245.6867469879518" name="center"/>
  <anchor x="271.22891566265054" y="352.5421686746988" name="dot"/>
  <anchor x="163.63855421686748" y="583.6626506024097" name="stroke"/>
  <anchor x="308.12048192771084" y="705.0" name="top"/>
  <anchor x="205.75903614457832" y="705.0" name="topright"/>
  <outline>
    <contour>
      <point x="100.96385542168674" y="0.0" type="line"/>
      <point x="172.87951807228916" y="0.0" type="line"/>
      <point x="172.87951807228916" y="281.56626506024094" type="line" smooth="yes"/>
      <point x="172.87951807228916" y="363.13253012048193"/>
      <point x="245.8433734939759" y="440.18072289156623"/>
      <point x="344.51807228915663" y="440.18072289156623" type="curve" smooth="yes"/>
      <point x="438.73493975903614" y="440.18072289156623"/>
      <point x="470.5903614457831" y="382.21686746987956"/>
      <point x="470.5903614457831" y="305.96385542168673" type="curve" smooth="yes"/>
      <point x="470.5903614457831" y="0.0" type="line"/>
      <point x="542.5060240963857" y="0.0" type="line"/>
      <point x="542.5060240963857" y="310.1927710843373" type="line" smooth="yes"/>
      <point x="542.5060240963857" y="439.144578313253"/>
      <point x="479.13253012048193" y="504.51807228915663"/>
      <point x="354.3614457831325" y="504.51807228915663" type="curve" smooth="yes"/>
      <point x="273.8192771084337" y="504.51807228915663"/>
      <point x="205.96385542168676" y="458.66265060240966"/>
      <point x="176.27710843373495" y="389.49397590361446" type="curve"/>
      <point x="170.81927710843374" y="389.49397590361446" type="line"/>
      <point x="170.81927710843374" y="705.0" type="line"/>
      <point x="100.96385542168674" y="705.0" type="line"/>
    </contour>
  </outline>
</glyph>
<glyph name="i" format="2">
  <advance width="273.8433734939759"/>
  <unicode hex="0069"/>
  <anchor x="132.49397590361448" y="0.0" name="bottom"/>
  <anchor x="166.9277108433735" y="0.0" name="ogonek"/>
  <outline>
    <contour>
      <point x="91.27710843373495" y="622.5903614457832" type="line"/>
      <point x="181.87951807228916" y="622.5903614457832" type="line"/>
      <point x="181.87951807228916" y="708.6144578313254" type="line"/>
      <point x="91.27710843373495" y="708.6144578313254" type="line"/>
    </contour>
    <contour>
      <point x="100.96385542168674" y="0.0" type="line"/>
      <point x="172.87951807228916" y="0.0" type="line"/>
      <point x="172.87951807228916" y="496.06024096385545" type="line"/>
      <point x="100.96385542168674" y="496.06024096385545" type="line"/>
    </contour>
  </outline>
</glyph>
<glyph name="j" format="2">
  <advance width="246.21686746987953"/>
  <unicode hex="006A"/>
  <outline>
    <contour>
      <point x="79.42168674698794" y="622.5903614457832" type="line"/>
      <point x="170.02409638554215" y="622.5903614457832" type="line"/>
      <point x="170.02409638554215" y="708.6144578313254" type="line"/>
      <point x="79.42168674698794" y="708.6144578313254" type="line"/>
    </contour>
    <contour>
      <point x="-56.33734939759036" y="-193.0" type="line"/>
      <point x="-2.4216867469879517" y="-187.0" type="line" smooth="yes"/>
      <point x="105.39759036144578" y="-174.855421686747"/>
      <point x="160.56626506024097" y="-120.79518072289157"/>
      <point x="160.56626506024097" y="-12.987951807228916" type="curve" smooth="yes"/>
      <point x="160.56626506024097" y="496.06024096385545" type="line"/>
      <point x="88.65060240963855" y="496.06024096385545" type="line"/>
      <point x="88.65060240963855" y="-13.987951807228917" type="line" smooth="yes"/>
      <point x="88.65060240963855" y="-88.55421686746989"/>
      <point x="51.71084337349398" y="-115.80722891566265"/>
      <point x="-10.85542168674699" y="-123.34939759036146" type="curve" smooth="yes"/>
      <point x="-61.397590361445786" y="-129.34939759036143" type="line"/>
    </contour>
  </outline>
</glyph>
<glyph name="l" format="2">
  <advance width="325.1665861445783"/>
  <unicode hex="006C"/>
  <anchor x="204.26506024096386" y="1.7710843373493976" name="bottom"/>
  <anchor x="146.80722891566265" y="357.0" name="center"/>
  <anchor x="309.144578313253" y="357.0" name="dot"/>
  <anchor x="137.03614457831324" y="705.0" name="top"/>
  <anchor x="222.87951807228916" y="705.0" name="topright"/>
  <outline>
    <contour>
      <point x="239.49397590361446" y="-8.457831325301205" type="curve" smooth="yes"/>
      <point x="268.6987951807229" y="-8.457831325301205"/>
      <point x="290.6144578313253" y="-5.228915662650603"/>
      <point x="311.8192771084337" y="2.144578313253012" type="curve"/>
      <point x="310.8433734939759" y="61.59036144578313" type="line"/>
      <point x="289.8433734939759" y="55.81927710843373"/>
      <point x="269.7590361445783" y="53.81927710843374"/>
      <point x="249.5301204819277" y="53.81927710843374" type="curve" smooth="yes"/>
      <point x="203.13253012048193" y="53.81927710843374"/>
      <point x="172.87951807228916" y="89.3012048192771"/>
      <point x="172.87951807228916" y="147.78313253012047" type="curve" smooth="yes"/>
      <point x="172.87951807228916" y="705.0" type="line"/>
      <point x="100.96385542168674" y="705.0" type="line"/>
      <point x="100.96385542168674" y="138.09638554216866" type="line" smooth="yes"/>
      <point x="100.96385542168674" y="46.83132530120482"/>
      <point x="153.71084337349396" y="-8.457831325301205"/>
    </contour>
  </outline>
</glyph>
<glyph name="m" format="2">
  <advance width="963.6144578313252"/>
  <unicode hex="006D"/>
  <anchor x="481.0361445783132" y="0.0" name="bottom"/>
  <anchor x="477.49397590361446" y="484.0" name="top"/>
  <outline>
    <contour>
      <point x="102.96385542168674" y="0.0" type="line"/>
      <point x="174.19277108433735" y="0.0" type="line"/>
      <point x="174.19277108433735" y="282.71084337349396" type="line" smooth="yes"/>
      <point x="174.19277108433735" y="350.7349397590362"/>
      <point x="233.5301204819277" y="440.18072289156623"/>
      <point x="330.66265060240966" y="440.18072289156623" type="curve" smooth="yes"/>
      <point x="404.855421686747" y="440.18072289156623"/>
      <point x="447.1927710843373" y="389.07228915662654"/>
      <point x="447.1927710843373" y="302.33734939759034" type="curve" smooth="yes"/>
      <point x="447.1927710843373" y="0.0" type="line"/>
      <point x="517.9638554216867" y="0.0" type="line"/>
      <point x="517.9638554216867" y="278.3975903614458" type="line" smooth="yes"/>
      <point x="517.9638554216867" y="365.90361445783134"/>
      <point x="573.987951807229" y="440.18072289156623"/>
      <point x="673.8915662650602" y="440.18072289156623" type="curve" smooth="yes"/>
      <point x="764.0240963855422" y="440.18072289156623"/>
      <point x="790.9638554216867" y="390.84337349397595"/>
      <point x="790.9638554216867" y="302.33734939759034" type="curve" smooth="yes"/>
      <point x="790.9638554216867" y="0.0" type="line"/>
      <point x="862.4216867469879" y="0.0" type="line"/>
      <point x="862.4216867469879" y="310.1927710843373" type="line" smooth="yes"/>
      <point x="862.4216867469879" y="440.9156626506024"/>
      <point x="796.9638554216867" y="504.51807228915663"/>
      <point x="682.5060240963855" y="504.51807228915663" type="curve" smooth="yes"/>
      <point x="591.7349397590361" y="504.51807228915663"/>
      <point x="537.5903614457831" y="450.433734939759"/>
      <point x="510.2771084337349" y="387.26506024096386" type="curve"/>
      <point x="505.0481927710843" y="387.26506024096386" type="line"/>
      <point x="493.2168674698795" y="450.8072289156627"/>
      <point x="430.90361445783134" y="504.51807228915663"/>
      <point x="340.421686746988" y="504.51807228915663" type="curve" smooth="yes"/>
      <point x="257.4216867469879" y="504.51807228915663"/>
      <point x="198.27710843373492" y="445.49397590361446"/>
      <point x="173.67469879518075" y="387.2048192771084" type="curve"/>
      <point x="168.44578313253012" y="387.2048192771084" type="line"/>
      <point x="168.44578313253012" y="496.06024096385545" type="line"/>
      <point x="102.96385542168674" y="496.06024096385545" type="line"/>
    </contour>
  </outline>
</glyph>
<glyph name="n" format="2">
  <advance width="641.6339571084337"/>
  <unicode hex="006E"/>
  <anchor x="316.03614457831327" y="0.0" name="bottom"/>
  <anchor x="334.7469879518072" y="484.0" name="top"/>
  <outline>
    <contour>
      <point x="100.96385542168674" y="0.0" type="line"/>
      <point x="172.87951807228916" y="0.0" type="line"/>
      <point x="172.87951807228916" y="281.56626506024094" type="line" smooth="yes"/>
      <point x="172.87951807228916" y="363.13253012048193"/>
      <point x="245.8433734939759" y="440.18072289156623"/>
      <point x="344.51807228915663" y="440.18072289156623" type="curve" smooth="yes"/>
      <point x="438.96385542168673" y="440.18072289156623"/>
      <point x="470.5903614457831" y="382.21686746987956"/>
      <point x="470.5903614457831" y="305.96385542168673" type="curve" smooth="yes"/>
      <point x="470.5903614457831" y="0.0" type="line"/>
      <point x="542.5060240963857" y="0.0" type="line"/>
      <point x="542.5060240963857" y="310.1927710843373" type="line" smooth="yes"/>
      <point x="542.5060240963857" y="439.144578313253"/>
      <point x="479.13253012048193" y="504.51807228915663"/>
      <point x="354.3614457831325" y="504.51807228915663" type="curve" smooth="yes"/>
      <point x="273.8192771084337" y="504.51807228915663"/>
      <point x="206.04819277108436" y="458.66265060240966"/>
      <point x="172.59036144578315" y="387.89156626506025" type="curve"/>
      <point x="167.36144578313255" y="387.89156626506025" type="line"/>
      <point x="167.36144578313255" y="496.06024096385545" type="line"/>
      <point x="100.96385542168674" y="496.06024096385545" type="line"/>
    </contour>
  </outline>
</glyph>
<glyph name="o" format="2">
  <advance width="626.6769273493976"/>
  <unicode hex="006F"/>
  <anchor x="313.433734939759" y="-8.397590361445783" name="bottom"/>
  <anchor x="313.433734939759" y="246.7710843373494" name="center"/>
  <anchor x="377.578313253012" y="0.0" name="ogonek"/>
  <anchor x="314.2048192771084" y="484.0" name="top"/>
  <anchor x="366.78313253012044" y="484.0" name="topright"/>
  <outline>
    <contour>
      <point x="313.433734939759" y="-8.457831325301205" type="curve" smooth="yes"/>
      <point x="462.78313253012044" y="-8.457831325301205"/>
      <point x="556.5301204819277" y="94.2289156626506"/>
      <point x="556.5301204819277" y="249.14457831325302" type="curve" smooth="yes"/>
      <point x="556.5301204819277" y="402.0602409638554"/>
      <point x="462.78313253012044" y="504.51807228915663"/>
      <point x="313.433734939759" y="504.51807228915663" type="curve" smooth="yes"/>
      <point x="163.855421686747" y="504.51807228915663"/>
      <point x="70.10843373493977" y="402.0602409638554"/>
      <point x="70.10843373493977" y="249.14457831325302" type="curve" smooth="yes"/>
      <point x="70.10843373493977" y="94.2289156626506"/>
      <point x="163.855421686747" y="-8.457831325301205"/>
    </contour>
    <contour>
      <point x="312.6626506024096" y="55.87951807228916" type="curve" smooth="yes"/>
      <point x="207.0722891566265" y="55.87951807228916"/>
      <point x="141.65060240963857" y="133.15662650602408"/>
      <point x="141.65060240963857" y="249.14457831325302" type="curve" smooth="yes"/>
      <point x="141.65060240963857" y="364.3614457831325"/>
      <point x="206.84337349397592" y="440.1807228915663"/>
      <point x="313.433734939759" y="440.1807228915663" type="curve" smooth="yes"/>
      <point x="420.0240963855422" y="440.1807228915663"/>
      <point x="484.9879518072289" y="364.3614457831325"/>
      <point x="484.9879518072289" y="249.14457831325302" type="curve" smooth="yes"/>
      <point x="484.9879518072289" y="133.15662650602408"/>
      <point x="419.0240963855422" y="55.87951807228916"/>
    </contour>
  </outline>
</glyph>
<glyph name="p" format="2">
  <advance width="658.0963855421687"/>
  <unicode hex="0070"/>
  <anchor x="329.1686746987952" y="0.0" name="bottom"/>
  <anchor x="332.71084337349396" y="484.0" name="top"/>
  <outline>
    <contour>
      <point x="100.96385542168674" y="-180.0" type="line"/>
      <point x="172.87951807228916" y="-180.0" type="line"/>
      <point x="172.87951807228916" y="102.96385542168674" type="line"/>
      <point x="178.10843373493975" y="102.96385542168674" type="line"/>
      <point x="208.10843373493978" y="33.39759036144578"/>
      <point x="272.5903614457831" y="-8.457831325301205"/>
      <point x="356.2168674698795" y="-8.457831325301205" type="curve" smooth="yes"/>
      <point x="496.2771084337349" y="-8.457831325301205"/>
      <point x="587.9879518072289" y="96.28915662650601"/>
      <point x="587.9879518072289" y="248.14457831325302" type="curve" smooth="yes"/>
      <point x="587.9879518072289" y="401.144578313253"/>
      <point x="495.13253012048193" y="504.51807228915663"/>
      <point x="355.9879518072289" y="504.51807228915663" type="curve" smooth="yes"/>
      <point x="270.67469879518075" y="504.51807228915663"/>
      <point x="204.59036144578315" y="462.12048192771084"/>
      <point x="171.90361445783134" y="388.5783132530121" type="curve"/>
      <point x="166.44578313253012" y="388.5783132530121" type="line"/>
      <point x="166.44578313253012" y="496.28915662650604" type="line"/>
      <point x="100.96385542168674" y="496.28915662650604" type="line"/>
    </contour>
    <contour>
      <point x="343.433734939759" y="54.04819277108434" type="curve" smooth="yes"/>
      <point x="237.84337349397592" y="54.04819277108434"/>
      <point x="172.42168674698794" y="131.78313253012047"/>
      <point x="172.42168674698794" y="249.14457831325302" type="curve" smooth="yes"/>
      <point x="172.42168674698794" y="365.50602409638554"/>
      <point x="237.6144578313253" y="442.0120481927711"/>
      <point x="344.2048192771084" y="442.0120481927711" type="curve" smooth="yes"/>
      <point x="450.7951807228916" y="442.0120481927711"/>
      <point x="515.7590361445783" y="365.50602409638554"/>
      <point x="515.7590361445783" y="249.14457831325302" type="curve" smooth="yes"/>
      <point x="515.7590361445783" y="131.78313253012047"/>
      <point x="449.7951807228916" y="54.04819277108434"/>
    </contour>
  </outline>
</glyph>
<glyph name="q" format="2">
  <advance width="658.0963855421687"/>
  <unicode hex="0071"/>
  <anchor x="311.56626506024094" y="0.0" name="bottom"/>
  <anchor x="311.56626506024094" y="488.31325301204816" name="top"/>
  <outline>
    <contour>
      <point x="485.2168674698795" y="-180.0" type="line"/>
      <point x="557.1325301204819" y="-180.0" type="line"/>
      <point x="557.1325301204819" y="496.28915662650604" type="line"/>
      <point x="491.65060240963857" y="496.28915662650604" type="line"/>
      <point x="491.65060240963857" y="388.34939759036143" type="line"/>
      <point x="486.1927710843374" y="388.34939759036143" type="line"/>
      <point x="453.50602409638554" y="462.12048192771084"/>
      <point x="387.87951807228916" y="504.51807228915663"/>
      <point x="302.56626506024094" y="504.51807228915663" type="curve" smooth="yes"/>
      <point x="162.50602409638554" y="504.51807228915663"/>
      <point x="70.10843373493977" y="401.144578313253"/>
      <point x="70.10843373493977" y="247.9156626506024" type="curve" smooth="yes"/>
      <point x="70.10843373493977" y="95.83132530120481"/>
      <point x="162.50602409638554" y="-8.457831325301205"/>
      <point x="301.6506024096385" y="-8.457831325301205" type="curve" smooth="yes"/>
      <point x="385.73493975903614" y="-8.457831325301205"/>
      <point x="449.9879518072289" y="33.16867469879518"/>
      <point x="479.9879518072289" y="102.96385542168674" type="curve"/>
      <point x="485.2168674698795" y="102.96385542168674" type="line"/>
    </contour>
    <contour>
      <point x="315.12048192771084" y="54.04819277108434" type="curve" smooth="yes"/>
      <point x="208.53012048192772" y="54.04819277108434"/>
      <point x="142.33734939759037" y="131.55421686746988"/>
      <point x="142.33734939759037" y="248.9156626506024" type="curve" smooth="yes"/>
      <point x="142.33734939759037" y="365.27710843373495"/>
      <point x="207.53012048192772" y="441.7831325301205"/>
      <point x="314.12048192771084" y="441.7831325301205" type="curve" smooth="yes"/>
      <point x="420.710843373494" y="441.7831325301205"/>
      <point x="485.67469879518075" y="365.27710843373495"/>
      <point x="485.67469879518075" y="248.9156626506024" type="curve" smooth="yes"/>
      <point x="485.67469879518075" y="131.55421686746988"/>
      <point x="420.710843373494" y="54.04819277108434"/>
    </contour>
  </outline>
</glyph>
<glyph name="r" format="2">
  <advance width="435.3177801204819"/>
  <unicode hex="0072"/>
  <anchor x="137.57831325301206" y="0.0" name="bottom"/>
  <anchor x="240.03614457831327" y="484.0" name="top"/>
  <outline>
    <contour>
      <point x="100.96385542168674" y="0.0" type="line"/>
      <point x="172.87951807228916" y="0.0" type="line"/>
      <point x="172.87951807228916" y="281.69879518072287" type="line" smooth="yes"/>
      <point x="172.87951807228916" y="359.72289156626505"/>
      <point x="233.5301204819277" y="422.9759036144578"/>
      <point x="331.95180722891564" y="430.7469879518072" type="curve" smooth="yes"/>
      <point x="405.50602409638554" y="436.43373493975906" type="line"/>
      <point x="398.6746987951807" y="504.51807228915663" type="line"/>
      <point x="350.86746987951807" y="502.06024096385545" type="line" smooth="yes"/>
      <point x="266.3253012048193" y="497.83132530120486"/>
      <point x="197.53012048192772" y="454.31325301204816"/>
      <point x="171.98795180722894" y="387.48192771084337" type="curve"/>
      <point x="166.53012048192772" y="387.48192771084337" type="line"/>
      <point x="166.53012048192772" y="496.06024096385545" type="line"/>
      <point x="100.96385542168674" y="496.06024096385545" type="line"/>
    </contour>
  </outline>
</glyph>
<glyph name="s" format="2">
  <advance width="566.1511939759037"/>
  <unicode hex="0073"/>
  <anchor x="283.37349397590367" y="0.0" name="bottom"/>
  <anchor x="285.0602409638554" y="484.0" name="top"/>
  <outline>
    <contour>
      <point x="284.9156626506024" y="-8.457831325301205" type="curve" smooth="yes"/>
      <point x="413.26506024096386" y="-8.457831325301205"/>
      <point x="497.32530120481925" y="47.68674698795181"/>
      <point x="497.32530120481925" y="132.89156626506025" type="curve" smooth="yes"/>
      <point x="497.32530120481925" y="208.72289156626505"/>
      <point x="447.55421686746985" y="250.7831325301205"/>
      <point x="345.26506024096386" y="269.32530120481925" type="curve" smooth="yes"/>
      <point x="241.66265060240963" y="287.86746987951807" type="line" smooth="yes"/>
      <point x="178.46987951807228" y="299.49397590361446"/>
      <point x="153.3012048192771" y="320.28915662650604"/>
      <point x="153.3012048192771" y="363.1686746987952" type="curve" smooth="yes"/>
      <point x="153.3012048192771" y="411.8192771084337"/>
      <point x="205.18072289156626" y="442.4698795180723"/>
      <point x="286.34939759036143" y="442.4698795180723" type="curve" smooth="yes"/>
      <point x="344.3493975903615" y="442.4698795180723"/>
      <point x="414.9759036144578" y="427.3855421686747"/>
      <point x="459.51807228915663" y="388.4457831325301" type="curve"/>
      <point x="486.9518072289157" y="441.0361445783132" type="line"/>
      <point x="447.8072289156627" y="482.43373493975906"/>
      <point x="357.4096385542169" y="504.51807228915663"/>
      <point x="287.12048192771084" y="504.51807228915663" type="curve" smooth="yes"/>
      <point x="162.04819277108433" y="504.51807228915663"/>
      <point x="85.27710843373494" y="446.54216867469876"/>
      <point x="85.27710843373494" y="361.71084337349396" type="curve" smooth="yes"/>
      <point x="85.27710843373494" y="285.3975903614458"/>
      <point x="134.04819277108433" y="241.81927710843374"/>
      <point x="228.10843373493975" y="225.73493975903614" type="curve" smooth="yes"/>
      <point x="334.6265060240964" y="207.65060240963854" type="line" smooth="yes"/>
      <point x="402.3614457831325" y="196.02409638554218"/>
      <point x="429.3012048192771" y="173.6867469879518"/>
      <point x="429.3012048192771" y="131.1204819277108" type="curve" smooth="yes"/>
      <point x="429.3012048192771" y="82.78313253012048"/>
      <point x="373.65060240963857" y="53.59036144578313"/>
      <point x="285.6265060240964" y="53.59036144578313" type="curve" smooth="yes"/>
      <point x="223.0843373493976" y="53.59036144578313"/>
      <point x="149.0843373493976" y="67.90361445783132"/>
      <point x="97.62650602409639" y="109.8433734939759" type="curve"/>
      <point x="70.87951807228916" y="56.024096385542165" type="line"/>
      <point x="116.71084337349397" y="15.16867469879518"/>
      <point x="204.25301204819277" y="-8.457831325301205"/>
    </contour>
  </outline>
</glyph>
<glyph name="t" format="2">
  <advance width="439.82122795180726"/>
  <unicode hex="0074"/>
  <anchor x="261.72289156626505" y="-9.168674698795181" name="bottom"/>
  <anchor x="185.49397590361446" y="284.0240963855422" name="center"/>
  <anchor x="159.78313253012047" y="651.4096385542168" name="top"/>
  <anchor x="252.65060240963857" y="705.0" name="topright"/>
  <outline>
    <contour>
      <point x="302.5542168674699" y="-8.457831325301205" type="curve" smooth="yes"/>
      <point x="341.3855421686747" y="-8.457831325301205"/>
      <point x="383.6144578313253" y="-1.4578313253012047"/>
      <point x="411.90361445783134" y="15.771084337349397" type="curve"/>
      <point x="399.8433734939759" y="74.96385542168674" type="line"/>
      <point x="371.7590361445783" y="61.10843373493976"/>
      <point x="342.9879518072289" y="56.10843373493976"/>
      <point x="310.3614457831326" y="56.10843373493976" type="curve" smooth="yes"/>
      <point x="238.65060240963854" y="56.10843373493976"/>
      <point x="201.25301204819277" y="91.73493975903615"/>
      <point x="201.25301204819277" y="173.24096385542168" type="curve" smooth="yes"/>
      <point x="201.25301204819277" y="433.72289156626505" type="line"/>
      <point x="394.04819277108436" y="433.72289156626505" type="line"/>
      <point x="394.04819277108436" y="496.06024096385545" type="line"/>
      <point x="201.25301204819277" y="496.06024096385545" type="line"/>
      <point x="201.25301204819277" y="644.3132530120482" type="line"/>
      <point x="131.62650602409641" y="644.3132530120482" type="line"/>
      <point x="131.62650602409641" y="496.06024096385545" type="line"/>
      <point x="26.481927710843372" y="496.06024096385545" type="line"/>
      <point x="26.481927710843372" y="433.72289156626505" type="line"/>
      <point x="129.33734939759037" y="433.72289156626505" type="line"/>
      <point x="129.33734939759037" y="165.1566265060241" type="line" smooth="yes"/>
      <point x="129.33734939759037" y="54.74698795180723"/>
      <point x="191.93975903614458" y="-8.457831325301205"/>
    </contour>
  </outline>
</glyph>
<glyph name="u" format="2">
  <advance width="637.6987951807229"/>
  <unicode hex="0075"/>
  <anchor x="298.86746987951807" y="0.0" name="bottom"/>
  <anchor x="528.9518072289156" y="0.0" name="ogonek"/>
  <anchor x="317.5783132530121" y="484.0" name="top"/>
  <anchor x="474.89156626506025" y="484.0" name="topright"/>
  <outline>
    <contour>
      <point x="289.7951807228916" y="-8.457831325301205" type="curve" smooth="yes"/>
      <point x="373.87951807228916" y="-8.457831325301205"/>
      <point x="428.56626506024094" y="37.397590361445786"/>
      <point x="465.3373493975904" y="108.62650602409639" type="curve"/>
      <point x="470.56626506024094" y="108.62650602409639" type="line"/>
      <point x="470.56626506024094" y="0.0" type="line"/>
      <point x="536.7349397590361" y="0.0" type="line"/>
      <point x="536.7349397590361" y="496.06024096385545" type="line"/>
      <point x="464.8192771084337" y="496.06024096385545" type="line"/>
      <point x="464.8192771084337" y="213.57831325301203" type="line" smooth="yes"/>
      <point x="464.8192771084337" y="133.15662650602408"/>
      <point x="393.6265060240964" y="55.87951807228916"/>
      <point x="298.9518072289157" y="55.87951807228916" type="curve" smooth="yes"/>
      <point x="204.50602409638552" y="55.87951807228916"/>
      <point x="171.10843373493975" y="114.0722891566265"/>
      <point x="171.10843373493975" y="189.40963855421685" type="curve" smooth="yes"/>
      <point x="171.10843373493975" y="496.06024096385545" type="line"/>
      <point x="99.19277108433735" y="496.06024096385545" type="line"/>
      <point x="99.19277108433735" y="184.72289156626505" type="line" smooth="yes"/>
      <point x="99.19277108433735" y="56.68674698795181"/>
      <point x="165.02409638554218" y="-8.457831325301205"/>
    </contour>
  </outline>
</glyph>
<glyph name="v" format="2">
  <advance width="557.877984939759"/>
  <unicode hex="0076"/>
  <anchor x="279.6024096385542" y="0.0" name="bottom"/>
  <anchor x="279.6024096385542" y="484.0" name="top"/>
  <outline>
    <contour>
      <point x="242.30120481927713" y="0.0" type="line"/>
      <point x="316.44578313253015" y="0.0" type="line"/>
      <point x="523.4457831325301" y="496.06024096385545" type="line"/>
      <point x="448.3012048192771" y="496.06024096385545" type="line"/>
      <point x="283.06024096385545" y="82.855421686747" type="line"/>
      <point x="276.8313253012048" y="82.855421686747" type="line"/>
      <point x="112.36144578313252" y="496.06024096385545" type="line"/>
      <point x="34.75903614457831" y="496.06024096385545" type="line"/>
    </contour>
  </outline>
</glyph>
<glyph name="w" format="2">
  <advance width="870.0721491566266"/>
  <unicode hex="0077"/>
  <anchor x="435.4578313253012" y="0.0" name="bottom"/>
  <anchor x="436.3734939759036" y="484.0" name="top"/>
  <outline>
    <contour>
      <point x="204.73493975903617" y="0.0" type="line"/>
      <point x="277.78313253012044" y="0.0" type="line"/>
      <point x="432.68674698795184" y="413.144578313253" type="line"/>
      <point x="437.144578313253" y="413.144578313253" type="line"/>
      <point x="590.277108433735" y="0.0" type="line"/>
      <point x="662.7831325301205" y="0.0" type="line"/>
      <point x="831.2409638554217" y="496.06024096385545" type="line"/>
      <point x="758.6987951807229" y="496.06024096385545" type="line"/>
      <point x="624.0843373493976" y="85.60240963855422" type="line"/>
      <point x="619.6265060240963" y="85.60240963855422" type="line"/>
      <point x="469.4096385542168" y="496.06024096385545" type="line"/>
      <point x="400.6506024096385" y="496.06024096385545" type="line"/>
      <point x="248.66265060240963" y="85.60240963855422" type="line"/>
      <point x="244.20481927710844" y="85.60240963855422" type="line"/>
      <point x="111.36144578313252" y="496.06024096385545" type="line"/>
      <point x="38.59036144578314" y="496.06024096385545" type="line"/>
    </contour>
  </outline>
</glyph>
<glyph name="x" format="2">
  <advance width="548.3676437349397"/>
  <unicode hex="0078"/>
  <anchor x="275.43373493975906" y="0.0" name="bottom"/>
  <anchor x="275.43373493975906" y="484.0" name="top"/>
  <outline>
    <contour>
      <point x="37.963855421686745" y="0.0" type="line"/>
      <point x="120.19277108433734" y="0.0" type="line"/>
      <point x="271.43373493975906" y="206.75903614457832" type="line"/>
      <point x="275.89156626506025" y="206.75903614457832" type="line"/>
      <point x="427.13253012048193" y="0.0" type="line"/>
      <point x="510.3614457831325" y="0.0" type="line"/>
      <point x="310.87951807228916" y="270.6385542168675" type="line"/>
      <point x="309.7349397590362" y="238.13253012048193" type="line"/>
      <point x="499.73493975903614" y="496.06024096385545" type="line"/>
      <point x="417.50602409638554" y="496.06024096385545" type="line"/>
      <point x="275.89156626506025" y="301.07228915662654" type="line"/>
      <point x="271.43373493975906" y="301.07228915662654" type="line"/>
      <point x="129.81927710843374" y="496.06024096385545" type="line"/>
      <point x="47.59036144578314" y="496.06024096385545" type="line"/>
      <point x="239.13253012048193" y="235.59036144578312" type="line"/>
      <point x="237.9879518072289" y="273.95180722891564" type="line"/>
    </contour>
  </outline>
</glyph>
<glyph name="y" format="2">
  <advance width="558.4535842168675"/>
  <unicode hex="0079"/>
  <anchor x="395.65060240963857" y="0.0" name="bottom"/>
  <anchor x="278.0602409638554" y="484.0" name="top"/>
  <outline>
    <contour>
      <point x="166.75903614457832" y="-180.0" type="line"/>
      <point x="242.9036144578313" y="-180.0" type="line"/>
      <point x="523.4457831325301" y="496.06024096385545" type="line"/>
      <point x="448.3012048192771" y="496.06024096385545" type="line"/>
      <point x="283.28915662650604" y="81.08433734939759" type="line"/>
      <point x="277.06024096385545" y="81.08433734939759" type="line"/>
      <point x="112.36144578313254" y="496.06024096385545" type="line"/>
      <point x="34.75903614457832" y="496.06024096385545" type="line"/>
      <point x="255.7951807228916" y="-31.614457831325304" type="line"/>
      <point x="255.7951807228916" y="26.78313253012048" type="line"/>
    </contour>
  </outline>
</glyph>
<glyph name="z" format="2">
  <advance width="542.1443006024097"/>
  <unicode hex="007A"/>
  <anchor x="275.43373493975906" y="0.0" name="bottom"/>
  <anchor x="277.5180722891567" y="484.0" name="top"/>
  <outline>
    <contour>
      <point x="63.084337349397586" y="0.0" type="line"/>
      <point x="484.0963855421687" y="0.0" type="line"/>
      <point x="484.0963855421687" y="63.87951807228915" type="line"/>
      <point x="128.0843373493976" y="63.87951807228915" type="line"/>
      <point x="136.710843373494" y="32.21686746987952" type="line"/>
      <point x="472.3253012048193" y="449.69879518072287" type="line"/>
      <point x="472.3253012048193" y="496.06024096385545" type="line"/>
      <point x="76.02409638554217" y="496.06024096385545" type="line"/>
      <point x="76.02409638554217" y="432.18072289156623" type="line"/>
      <point x="405.86746987951807" y="432.18072289156623" type="line"/>
      <point x="397.0120481927711" y="458.9879518072289" type="line"/>
      <point x="63.084337349397586" y="43.19277108433735" type="line"/>
    </contour>
  </outline>
</glyph>
<glyph name="braceleft" format="2">
  <advance width="371.8143322891566"/>
  <unicode hex="007B"/>
  <outline>
    <contour>
      <point x="248.55421686746988" y="-180.0" type="curve" smooth="yes"/>
      <point x="356.3614457831325" y="-180.0" type="line"/>
      <point x="356.3614457831325" y="-120.72289156626506" type="line"/>
      <point x="262.93975903614455" y="-120.72289156626506" type="line" smooth="yes"/>
      <point x="232.93975903614458" y="-120.72289156626506"/>
      <point x="218.3975903614458" y="-110.49397590361446"/>
      <point x="218.3975903614458" y="-79.49397590361446" type="curve" smooth="yes"/>
      <point x="218.3975903614458" y="176.50602409638554" type="line" smooth="yes"/>
      <point x="218.3975903614458" y="226.56626506024097"/>
      <point x="186.93975903614458" y="254.0843373493976"/>
      <point x="130.27710843373492" y="260.3132530120482" type="curve"/>
      <point x="130.27710843373492" y="264.7710843373494" type="line"/>
      <point x="186.93975903614458" y="271.2289156626506"/>
      <point x="218.3975903614458" y="299.20481927710847"/>
      <point x="218.3975903614458" y="349.26506024096386" type="curve" smooth="yes"/>
      <point x="218.3975903614458" y="604.4939759036145" type="line" smooth="yes"/>
      <point x="218.3975903614458" y="635.4939759036145"/>
      <point x="232.93975903614458" y="645.722891566265"/>
      <point x="262.93975903614455" y="645.722891566265" type="curve" smooth="yes"/>
      <point x="356.3614457831325" y="645.722891566265" type="line"/>
      <point x="356.3614457831325" y="705.0" type="line"/>
      <point x="248.55421686746988" y="705.0" type="line" smooth="yes"/>
      <point x="189.289156626506" y="705.0"/>
      <point x="147.6265060240964" y="672.3373493975904"/>
      <point x="147.6265060240964" y="611.5301204819277" type="curve" smooth="yes"/>
      <point x="147.6265060240964" y="369.95180722891564" type="line" smooth="yes"/>
      <point x="147.6265060240964" y="314.4096385542169"/>
      <point x="131.4578313253012" y="295.86746987951807"/>
      <point x="75.51807228915662" y="293.86746987951807" type="curve" smooth="yes"/>
      <point x="46.93975903614458" y="292.4096385542169" type="line"/>
      <point x="46.93975903614458" y="233.36144578313255" type="line"/>
      <point x="75.51807228915662" y="231.90361445783134" type="line" smooth="yes"/>
      <point x="131.4578313253012" y="229.67469879518075"/>
      <point x="147.6265060240964" y="211.36144578313252"/>
      <point x="147.6265060240964" y="155.81927710843374" type="curve" smooth="yes"/>
      <point x="147.6265060240964" y="-86.53012048192771" type="line" smooth="yes"/>
      <point x="147.6265060240964" y="-147.33734939759037"/>
      <point x="189.289156626506" y="-180.0"/>
    </contour>
  </outline>
</glyph>
<glyph name="bar" format="2">
  <advance width="308.6385542168675"/>
  <unicode hex="007C"/>
  <outline>
    <contour>
      <point x="122.19277108433735" y="-180.0" type="line"/>
      <point x="186.44578313253012" y="-180.0" type="line"/>
      <point x="186.44578313253012" y="705.0" type="line"/>
      <point x="122.19277108433735" y="705.0" type="line"/>
    </contour>
  </outline>
</glyph>
<glyph name="braceright" format="2">
  <advance width="371.8143322891566"/>
  <unicode hex="007D"/>
  <outline>
    <contour>
      <point x="15.373493975903614" y="-180.0" type="line"/>
      <point x="123.40963855421687" y="-180.0" type="line" smooth="yes"/>
      <point x="182.44578313253012" y="-180.0"/>
      <point x="224.10843373493978" y="-147.33734939759034"/>
      <point x="224.10843373493978" y="-86.53012048192771" type="curve" smooth="yes"/>
      <point x="224.10843373493978" y="155.04819277108433" type="line" smooth="yes"/>
      <point x="224.10843373493978" y="210.59036144578315"/>
      <point x="240.50602409638554" y="229.13253012048193"/>
      <point x="296.2168674698795" y="231.13253012048193" type="curve" smooth="yes"/>
      <point x="324.79518072289153" y="232.59036144578315" type="line"/>
      <point x="324.79518072289153" y="291.6385542168675" type="line"/>
      <point x="296.2168674698795" y="293.09638554216866" type="line" smooth="yes"/>
      <point x="240.50602409638554" y="295.32530120481925"/>
      <point x="224.10843373493978" y="313.6385542168675"/>
      <point x="224.10843373493978" y="369.18072289156623" type="curve" smooth="yes"/>
      <point x="224.10843373493978" y="611.5301204819277" type="line" smooth="yes"/>
      <point x="224.10843373493978" y="672.3373493975904"/>
      <point x="182.44578313253012" y="705.0"/>
      <point x="123.40963855421687" y="705.0" type="curve" smooth="yes"/>
      <point x="15.373493975903614" y="705.0" type="line"/>
      <point x="15.373493975903614" y="645.722891566265" type="line"/>
      <point x="108.79518072289156" y="645.722891566265" type="line" smooth="yes"/>
      <point x="138.7951807228916" y="645.722891566265"/>
      <point x="153.33734939759034" y="635.4939759036145"/>
      <point x="153.33734939759034" y="604.4939759036145" type="curve" smooth="yes"/>
      <point x="153.33734939759034" y="348.49397590361446" type="line" smooth="yes"/>
      <point x="153.33734939759034" y="298.43373493975906"/>
      <point x="184.7951807228916" y="270.9156626506024"/>
      <point x="241.4578313253012" y="264.68674698795184" type="curve"/>
      <point x="241.4578313253012" y="260.2289156626506" type="line"/>
      <point x="184.7951807228916" y="253.7710843373494"/>
      <point x="153.33734939759034" y="225.79518072289156"/>
      <point x="153.33734939759034" y="175.73493975903614" type="curve" smooth="yes"/>
      <point x="153.33734939759034" y="-79.49397590361446" type="line" smooth="yes"/>
      <point x="153.33734939759034" y="-110.49397590361446"/>
      <point x="138.7951807228916" y="-120.72289156626506"/>
      <point x="108.79518072289156" y="-120.72289156626506" type="curve" smooth="yes"/>
      <point x="15.373493975903614" y="-120.72289156626506" type="line"/>
    </contour>
  </outline>
</glyph>
<glyph name="asciitilde" format="2">
  <advance width="600.0"/>
  <unicode hex="007E"/>
  <outline>
    <contour>
      <point x="415.71084337349396" y="216.02409638554218" type="curve" smooth="yes"/>
      <point x="473.6265060240964" y="216.02409638554218"/>
      <point x="517.144578313253" y="250.08433734939757"/>
      <point x="544.0" y="312.54216867469876" type="curve"/>
      <point x="498.13253012048193" y="336.26506024096386" type="line"/>
      <point x="482.5903614457831" y="301.03614457831327"/>
      <point x="459.04819277108436" y="269.86746987951807"/>
      <point x="411.56626506024094" y="269.86746987951807" type="curve" smooth="yes"/>
      <point x="384.3975903614458" y="269.86746987951807"/>
      <point x="352.3132530120482" y="284.9518072289157"/>
      <point x="316.6265060240964" y="304.9518072289157" type="curve" smooth="yes"/>
      <point x="274.3975903614458" y="328.72289156626505"/>
      <point x="230.77108433734938" y="350.89156626506025"/>
      <point x="184.06024096385542" y="350.89156626506025" type="curve" smooth="yes"/>
      <point x="125.37349397590361" y="350.89156626506025"/>
      <point x="81.08433734939759" y="317.0602409638554"/>
      <point x="56.0" y="255.14457831325302" type="curve"/>
      <point x="101.86746987951807" y="231.42168674698797" type="line"/>
      <point x="118.18072289156626" y="268.6506024096385"/>
      <point x="142.72289156626505" y="298.04819277108436"/>
      <point x="188.20481927710844" y="298.04819277108436" type="curve" smooth="yes"/>
      <point x="215.83132530120483" y="298.04819277108436"/>
      <point x="248.144578313253" y="281.96385542168673"/>
      <point x="283.6024096385542" y="261.96385542168673" type="curve" smooth="yes"/>
      <point x="326.28915662650604" y="237.96385542168676"/>
      <point x="369.4578313253012" y="216.02409638554218"/>
    </contour>
  </outline>
</glyph>
<glyph name="exclamdown" format="2">
  <advance width="254.56180795180722"/>
  <unicode hex="00A1"/>
  <outline>
    <contour>
      <point x="83.0722891566265" y="-180.0" type="line"/>
      <point x="171.33734939759034" y="-180.0" type="line"/>
      <point x="154.5301204819277" y="305.9277108433735" type="line"/>
      <point x="100.10843373493977" y="305.9277108433735" type="line"/>
    </contour>
    <contour>
      <point x="78.50602409638554" y="403.18072289156623" type="line"/>
      <point x="175.9036144578313" y="403.18072289156623" type="line"/>
      <point x="175.9036144578313" y="496.06024096385545" type="line"/>
      <point x="78.50602409638554" y="496.06024096385545" type="line"/>
    </contour>
  </outline>
</glyph>
<glyph name="cent" format="2">
  <advance width="600.0"/>
  <unicode hex="00A2"/>
  <outline>
    <contour>
      <point x="289.90361445783134" y="-115.0" type="line"/>
      <point x="352.72289156626505" y="-115.0" type="line"/>
      <point x="352.72289156626505" y="28.34939759036145" type="line"/>
      <point x="344.0602409638554" y="13.457831325301203" type="line"/>
      <point x="399.2650602409638" y="16.228915662650603"/>
      <point x="462.34939759036143" y="38.39759036144578"/>
      <point x="497.95180722891564" y="75.02409638554217" type="curve"/>
      <point x="471.66265060240966" y="127.53012048192772" type="line"/>
      <point x="434.2048192771084" y="94.81927710843374"/>
      <point x="379.6626506024096" y="75.42168674698794"/>
      <point x="331.578313253012" y="75.42168674698794" type="curve" smooth="yes"/>
      <point x="218.84337349397592" y="75.42168674698794"/>
      <point x="142.10843373493975" y="141.9277108433735"/>
      <point x="142.10843373493975" y="253.28915662650604" type="curve" smooth="yes"/>
      <point x="142.10843373493975" y="367.421686746988"/>
      <point x="218.8433734939759" y="432.9277108433735"/>
      <point x="332.34939759036143" y="432.9277108433735" type="curve" smooth="yes"/>
      <point x="380.6626506024096" y="432.9277108433735"/>
      <point x="434.51807228915663" y="412.7590361445783"/>
      <point x="475.20481927710847" y="377.27710843373495" type="curve"/>
      <point x="501.49397590361446" y="430.5542168674699" type="line"/>
      <point x="463.8072289156626" y="469.95180722891564"/>
      <point x="401.1807228915663" y="493.12048192771084"/>
      <point x="339.66265060240966" y="494.89156626506025" type="curve"/>
      <point x="352.72289156626505" y="481.0" type="line"/>
      <point x="352.72289156626505" y="618.578313253012" type="line"/>
      <point x="289.90361445783134" y="618.578313253012" type="line"/>
      <point x="289.90361445783134" y="479.39759036144574" type="line"/>
      <point x="302.4216867469879" y="494.433734939759" type="line"/>
      <point x="164.33734939759034" y="484.3734939759036"/>
      <point x="71.71084337349399" y="395.7469879518072"/>
      <point x="71.71084337349399" y="254.28915662650604" type="curve" smooth="yes"/>
      <point x="71.71084337349399" y="113.60240963855422"/>
      <point x="164.33734939759037" y="23.20481927710843"/>
      <point x="302.4216867469879" y="13.91566265060241" type="curve"/>
      <point x="289.90361445783134" y="29.722891566265062" type="line"/>
    </contour>
  </outline>
</glyph>
<glyph name="sterling" format="2">
  <advance width="600.0"/>
  <unicode hex="00A3"/>
  <outline>
    <contour>
      <point x="39.5421686746988" y="0.0" type="line"/>
      <point x="550.433734939759" y="0.0" type="line"/>
      <point x="550.433734939759" y="63.50602409638554" type="line"/>
      <point x="232.21686746987953" y="63.50602409638554" type="line"/>
      <point x="232.21686746987953" y="322.5903614457831" type="line"/>
      <point x="481.0602409638554" y="322.5903614457831" type="line"/>
      <point x="481.0602409638554" y="379.49397590361446" type="line"/>
      <point x="232.21686746987953" y="379.49397590361446" type="line"/>
      <point x="232.21686746987953" y="515.9638554216867" type="line" smooth="yes"/>
      <point x="232.21686746987953" y="605.0120481927711"/>
      <point x="278.0120481927711" y="649.1807228915662"/>
      <point x="368.9759036144578" y="649.1807228915662" type="curve" smooth="yes"/>
      <point x="438.0843373493976" y="649.1807228915662"/>
      <point x="484.6265060240964" y="627.698795180723"/>
      <point x="533.5421686746988" y="577.9036144578313" type="curve"/>
      <point x="561.7469879518072" y="634.2650602409639" type="line"/>
      <point x="512.8313253012047" y="683.5180722891566"/>
      <point x="446.9156626506024" y="713.4578313253012"/>
      <point x="370.5421686746988" y="713.4578313253012" type="curve" smooth="yes"/>
      <point x="232.50602409638554" y="713.4578313253012"/>
      <point x="162.59036144578315" y="640.1084337349398"/>
      <point x="162.59036144578315" y="513.277108433735" type="curve" smooth="yes"/>
      <point x="162.59036144578315" y="379.49397590361446" type="line"/>
      <point x="39.5421686746988" y="379.49397590361446" type="line"/>
      <point x="39.5421686746988" y="322.5903614457831" type="line"/>
      <point x="162.59036144578315" y="322.5903614457831" type="line"/>
      <point x="162.59036144578315" y="63.50602409638554" type="line"/>
      <point x="39.5421686746988" y="63.50602409638554" type="line"/>
    </contour>
  </outline>
</glyph>
<glyph name="currency" format="2">
  <advance width="600.0"/>
  <unicode hex="00A4"/>
  <outline>
    <contour>
      <point x="61.12048192771084" y="-43.51807228915663" type="line"/>
      <point x="153.43373493975903" y="50.024096385542165" type="line"/>
      <point x="195.51807228915663" y="15.855421686746988"/>
      <point x="248.14457831325302" y="-2.2289156626506026"/>
      <point x="300.7710843373494" y="-2.2289156626506026" type="curve" smooth="yes"/>
      <point x="356.3975903614458" y="-2.2289156626506026"/>
      <point x="407.0240963855422" y="16.626506024096386"/>
      <point x="447.3373493975904" y="49.02409638554217" type="curve"/>
      <point x="538.1084337349397" y="-43.51807228915663" type="line"/>
      <point x="581.5180722891566" y="0.8915662650602405" type="line"/>
      <point x="490.7469879518072" y="93.43373493975903" type="line"/>
      <point x="523.144578313253" y="135.74698795180723"/>
      <point x="542.2289156626506" y="188.3734939759036"/>
      <point x="542.2289156626506" y="245.7710843373494" type="curve" smooth="yes"/>
      <point x="542.2289156626506" y="303.16867469879514"/>
      <point x="523.144578313253" y="355.79518072289153"/>
      <point x="490.7469879518072" y="399.10843373493975" type="curve"/>
      <point x="582.5180722891566" y="490.6506024096385" type="line"/>
      <point x="538.1084337349397" y="535.0602409638554" type="line"/>
      <point x="447.33734939759034" y="442.51807228915663" type="line"/>
      <point x="408.0240963855421" y="474.144578313253"/>
      <point x="358.1686746987952" y="493.7710843373494"/>
      <point x="300.7710843373494" y="493.7710843373494" type="curve" smooth="yes"/>
      <point x="245.3734939759036" y="493.7710843373494"/>
      <point x="192.97590361445782" y="474.144578313253"/>
      <point x="153.43373493975903" y="440.7469879518073" type="curve"/>
      <point x="61.12048192771084" y="535.0602409638554" type="line"/>
      <point x="17.481927710843372" y="490.65060240963857" type="line"/>
      <point x="110.02409638554217" y="396.33734939759034" type="line"/>
      <point x="78.62650602409639" y="355.0240963855422"/>
      <point x="60.5421686746988" y="301.3975903614458"/>
      <point x="60.5421686746988" y="245.7710843373494" type="curve" smooth="yes"/>
      <point x="60.5421686746988" y="189.3734939759036"/>
      <point x="79.39759036144578" y="136.74698795180723"/>
      <point x="110.02409638554217" y="95.20481927710844" type="curve"/>
      <point x="17.481927710843372" y="0.8915662650602405" type="line"/>
    </contour>
    <contour>
      <point x="300.7710843373494" y="59.75903614457831" type="curve" smooth="yes"/>
      <point x="203.49397590361446" y="59.98795180722891"/>
      <point x="126.07228915662651" y="141.49397590361446"/>
      <point x="126.07228915662651" y="245.7710843373494" type="curve" smooth="yes"/>
      <point x="126.07228915662651" y="349.27710843373495"/>
      <point x="201.72289156626505" y="430.7831325301205"/>
      <point x="300.0" y="431.78313253012044" type="curve" smooth="yes"/>
      <point x="398.27710843373495" y="432.7831325301205"/>
      <point x="474.6987951807229" y="350.81927710843377"/>
      <point x="474.6987951807229" y="245.7710843373494" type="curve" smooth="yes"/>
      <point x="474.6987951807229" y="141.49397590361446"/>
      <point x="398.27710843373495" y="59.75903614457831"/>
    </contour>
  </outline>
</glyph>
<glyph name="yen" format="2">
  <advance width="600.0"/>
  <unicode hex="00A5"/>
  <outline>
    <contour>
      <point x="264.6144578313253" y="0.0" type="line"/>
      <point x="335.15662650602405" y="0.0" type="line"/>
      <point x="335.15662650602405" y="175.13253012048193" type="line"/>
      <point x="530.2650602409639" y="175.13253012048193" type="line"/>
      <point x="530.2650602409639" y="227.45783132530119" type="line"/>
      <point x="335.15662650602405" y="227.45783132530119" type="line"/>
      <point x="335.15662650602405" y="328.10843373493975" type="line"/>
      <point x="530.2650602409639" y="328.10843373493975" type="line"/>
      <point x="530.2650602409639" y="380.43373493975906" type="line"/>
      <point x="358.6987951807229" y="380.43373493975906" type="line"/>
      <point x="368.07228915662654" y="371.7469879518072" type="line"/>
      <point x="590.289156626506" y="705.0" type="line"/>
      <point x="513.1204819277108" y="705.0" type="line"/>
      <point x="303.2289156626506" y="385.0722891566265" type="line"/>
      <point x="298.7710843373494" y="385.0722891566265" type="line"/>
      <point x="87.87951807228914" y="705.0" type="line"/>
      <point x="8.93975903614458" y="705.0" type="line"/>
      <point x="234.24096385542168" y="371.7469879518072" type="line"/>
      <point x="243.6144578313253" y="380.43373493975906" type="line"/>
      <point x="70.73493975903615" y="380.43373493975906" type="line"/>
      <point x="70.73493975903615" y="328.10843373493975" type="line"/>
      <point x="264.6144578313253" y="328.10843373493975" type="line"/>
      <point x="264.6144578313253" y="227.45783132530119" type="line"/>
      <point x="70.73493975903615" y="227.45783132530119" type="line"/>
      <point x="70.73493975903615" y="175.13253012048193" type="line"/>
      <point x="264.6144578313253" y="175.13253012048193" type="line"/>
    </contour>
  </outline>
</glyph>
<glyph name="section" format="2">
  <advance width="533.7590361445783"/>
  <unicode hex="00A7"/>
  <outline>
    <contour>
      <point x="244.95180722891567" y="-188.4578313253012" type="curve" smooth="yes"/>
      <point x="366.2168674698795" y="-188.4578313253012"/>
      <point x="456.5903614457831" y="-122.3132530120482"/>
      <point x="456.5903614457831" y="-10.93975903614458" type="curve" smooth="yes"/>
      <point x="456.5903614457831" y="33.28915662650602"/>
      <point x="443.4457831325301" y="60.34939759036145"/>
      <point x="431.78313253012044" y="74.86746987951808" type="curve"/>
      <point x="425.6385542168674" y="55.662650602409634" type="line"/>
      <point x="466.6746987951807" y="85.72289156626506"/>
      <point x="496.5903614457831" y="138.80722891566265"/>
      <point x="496.5903614457831" y="193.55421686746988" type="curve" smooth="yes"/>
      <point x="496.5903614457831" y="266.78313253012044"/>
      <point x="463.2168674698795" y="314.38554216867465"/>
      <point x="354.96385542168673" y="366.5542168674699" type="curve" smooth="yes"/>
      <point x="249.32530120481928" y="416.8433734939759" type="line" smooth="yes"/>
      <point x="178.36144578313252" y="451.3253012048193"/>
      <point x="155.50602409638554" y="486.5783132530121"/>
      <point x="155.50602409638554" y="538.7710843373494" type="curve" smooth="yes"/>
      <point x="155.50602409638554" y="614.5903614457831"/>
      <point x="213.1566265060241" y="657.6987951807229"/>
      <point x="289.8072289156626" y="657.6987951807229" type="curve" smooth="yes"/>
      <point x="347.89156626506025" y="657.6987951807229"/>
      <point x="412.8072289156627" y="637.156626506024"/>
      <point x="453.9518072289157" y="600.5301204819277" type="curve"/>
      <point x="478.92771084337346" y="651.0602409638554" type="line"/>
      <point x="438.78313253012044" y="690.1445783132531"/>
      <point x="370.6385542168674" y="713.4578313253012"/>
      <point x="291.3493975903615" y="713.4578313253012" type="curve" smooth="yes"/>
      <point x="174.3975903614458" y="713.4578313253012"/>
      <point x="85.02409638554217" y="645.5421686746988"/>
      <point x="85.02409638554217" y="535.1686746987951" type="curve" smooth="yes"/>
      <point x="85.02409638554217" y="491.48192771084337"/>
      <point x="97.16867469879517" y="466.56626506024094"/>
      <point x="110.06024096385542" y="450.27710843373495" type="curve"/>
      <point x="116.97590361445783" y="470.48192771084337" type="line"/>
      <point x="75.71084337349399" y="440.421686746988"/>
      <point x="45.024096385542165" y="385.4216867469879"/>
      <point x="45.024096385542165" y="331.4457831325301" type="curve" smooth="yes"/>
      <point x="45.024096385542165" y="253.67469879518072"/>
      <point x="84.71084337349397" y="206.30120481927713"/>
      <point x="186.65060240963857" y="157.67469879518075" type="curve" smooth="yes"/>
      <point x="292.28915662650604" y="107.1566265060241" type="line" smooth="yes"/>
      <point x="363.2530120481928" y="72.67469879518073"/>
      <point x="386.10843373493975" y="37.65060240963855"/>
      <point x="386.10843373493975" y="-14.771084337349398" type="curve" smooth="yes"/>
      <point x="386.10843373493975" y="-90.36144578313252"/>
      <point x="329.45783132530124" y="-132.6987951807229"/>
      <point x="247.49397590361446" y="-132.6987951807229" type="curve" smooth="yes"/>
      <point x="183.49397590361446" y="-132.6987951807229"/>
      <point x="114.66265060240964" y="-110.24096385542168"/>
      <point x="74.97590361445783" y="-73.3855421686747" type="curve"/>
      <point x="49.54216867469879" y="-125.144578313253" type="line"/>
      <point x="91.6024096385542" y="-164.6867469879518"/>
      <point x="161.12048192771084" y="-188.4578313253012"/>
    </contour>
    <contour>
      <point x="110.13253012048192" y="338.6506024096385" type="curve" smooth="yes"/>
      <point x="110.13253012048192" y="373.1325301204819"/>
      <point x="123.21686746987952" y="406.4457831325301"/>
      <point x="150.3855421686747" y="430.9879518072289" type="curve"/>
      <point x="129.0120481927711" y="430.8433734939759" type="line"/>
      <point x="147.32530120481928" y="405.3614457831325"/>
      <point x="181.80722891566265" y="378.10843373493975"/>
      <point x="233.08433734939757" y="352.855421686747" type="curve" smooth="yes"/>
      <point x="323.26506024096386" y="310.79518072289153" type="line" smooth="yes"/>
      <point x="406.3132530120482" y="271.7710843373494"/>
      <point x="431.48192771084337" y="235.8313253012048"/>
      <point x="431.48192771084337" y="185.57831325301203" type="curve" smooth="yes"/>
      <point x="431.48192771084337" y="150.09638554216866"/>
      <point x="417.6265060240964" y="116.78313253012048"/>
      <point x="391.2289156626506" y="93.01204819277109" type="curve"/>
      <point x="412.6024096385542" y="93.1566265060241" type="line"/>
      <point x="394.51807228915663" y="118.63855421686748"/>
      <point x="361.8072289156627" y="145.89156626506025"/>
      <point x="309.53012048192767" y="171.14457831325302" type="curve" smooth="yes"/>
      <point x="218.34939759036143" y="213.43373493975903" type="line" smooth="yes"/>
      <point x="144.15662650602408" y="247.91566265060243"/>
      <point x="110.13253012048192" y="282.0843373493976"/>
    </contour>
  </outline>
</glyph>
<glyph name="copyright" format="2">
  <advance width="816.7710843373494"/>
  <unicode hex="00A9"/>
  <outline>
    <contour>
      <point x="408.7710843373494" y="-8.457831325301205" type="curve" smooth="yes"/>
      <point x="613.2289156626506" y="-8.457831325301205"/>
      <point x="770.2302891566264" y="148.7697108433735"/>
      <point x="770.2302891566264" y="353.0" type="curve" smooth="yes"/>
      <point x="770.2302891566264" y="557.2302891566264"/>
      <point x="613.2289156626506" y="713.4578313253012"/>
      <point x="408.7710843373494" y="713.4578313253012" type="curve" smooth="yes"/>
      <point x="203.54216867469881" y="713.4578313253012"/>
      <point x="46.54216867469879" y="557.2289156626506"/>
      <point x="46.54216867469879" y="353.0" type="curve" smooth="yes"/>
      <point x="46.54216867469879" y="148.7710843373494"/>
      <point x="204.3132530120482" y="-8.457831325301205"/>
    </contour>
    <contour>
      <point x="420.83132530120486" y="137.0" type="curve" smooth="yes"/>
      <point x="470.28915662650604" y="137.0"/>
      <point x="527.7469879518072" y="156.3132530120482"/>
      <point x="563.5180722891566" y="191.16867469879517" type="curve"/>
      <point x="540.5421686746988" y="238.32530120481925" type="line"/>
      <point x="504.6024096385542" y="205.3855421686747"/>
      <point x="462.9759036144579" y="190.84337349397592"/>
      <point x="423.66265060240966" y="190.84337349397592" type="curve" smooth="yes"/>
      <point x="333.15662650602405" y="190.84337349397592"/>
      <point x="279.13253012048193" y="254.49397590361446"/>
      <point x="279.13253012048193" y="354.5421686746988" type="curve" smooth="yes"/>
      <point x="279.13253012048193" y="455.5903614457831"/>
      <point x="333.15662650602405" y="514.156626506024"/>
      <point x="423.66265060240966" y="514.156626506024" type="curve" smooth="yes"/>
      <point x="462.9759036144579" y="514.156626506024"/>
      <point x="504.6024096385542" y="500.3855421686747"/>
      <point x="540.5421686746988" y="467.4457831325301" type="curve"/>
      <point x="563.5180722891566" y="513.8313253012049" type="line"/>
      <point x="527.7469879518072" y="548.6867469879518"/>
      <point x="472.06024096385545" y="568.0"/>
      <point x="420.83132530120486" y="568.0" type="curve" smooth="yes"/>
      <point x="293.7710843373494" y="568.0"/>
      <point x="215.16867469879517" y="486.7710843373494"/>
      <point x="215.16867469879517" y="355.5421686746988" type="curve" smooth="yes"/>
      <point x="215.16867469879517" y="224.0843373493976"/>
      <point x="293.0" y="137.0"/>
    </contour>
    <contour>
      <point x="408.7710843373494" y="33.204819277108435" type="curve" smooth="yes"/>
      <point x="229.144578313253" y="33.204819277108435"/>
      <point x="90.66265060240963" y="171.83132530120483"/>
      <point x="90.66265060240963" y="353.0" type="curve" smooth="yes"/>
      <point x="90.66265060240963" y="534.1686746987951"/>
      <point x="229.144578313253" y="671.7951807228916"/>
      <point x="408.7710843373494" y="671.7951807228916" type="curve" smooth="yes"/>
      <point x="588.3975903614457" y="671.7951807228916"/>
      <point x="726.1084337349398" y="534.1686746987951"/>
      <point x="726.1084337349398" y="353.0" type="curve" smooth="yes"/>
      <point x="726.1084337349398" y="171.83132530120483"/>
      <point x="588.3975903614457" y="33.204819277108435"/>
    </contour>
  </outline>
</glyph>
<glyph name="ordfeminine" format="2">
  <advance width="366.72289156626505"/>
  <unicode hex="00AA"/>
  <outline>
    <contour>
      <point x="156.3132530120482" y="381.71084337349396" type="curve" smooth="yes"/>
      <point x="202.3132530120482" y="381.71084337349396"/>
      <point x="238.4578313253012" y="399.08433734939763"/>
      <point x="263.54216867469876" y="445.6265060240964" type="curve"/>
      <point x="265.77108433734935" y="445.6265060240964" type="line"/>
      <point x="265.77108433734935" y="387.16867469879514" type="line"/>
      <point x="317.2409638554217" y="387.16867469879514" type="line"/>
      <point x="317.2409638554217" y="591.0240963855422" type="line" smooth="yes"/>
      <point x="317.2409638554217" y="672.3132530120482"/>
      <point x="271.95180722891564" y="713.4578313253012"/>
      <point x="185.06024096385542" y="713.4578313253012" type="curve" smooth="yes"/>
      <point x="138.14457831325302" y="713.4578313253012"/>
      <point x="89.39759036144578" y="702.4578313253012"/>
      <point x="53.16867469879518" y="680.6024096385541" type="curve"/>
      <point x="69.4578313253012" y="633.5903614457832" type="line"/>
      <point x="103.6867469879518" y="654.9879518072289"/>
      <point x="143.6024096385542" y="664.7590361445783"/>
      <point x="183.4578313253012" y="664.7590361445783" type="curve" smooth="yes"/>
      <point x="236.5421686746988" y="664.7590361445783"/>
      <point x="264.855421686747" y="642.9036144578313"/>
      <point x="264.855421686747" y="592.5662650602409" type="curve" smooth="yes"/>
      <point x="264.855421686747" y="531.4819277108434" type="line" smooth="yes"/>
      <point x="264.855421686747" y="464.06024096385545"/>
      <point x="221.16867469879517" y="427.433734939759"/>
      <point x="166.51807228915663" y="427.433734939759" type="curve" smooth="yes"/>
      <point x="119.55421686746989" y="427.433734939759"/>
      <point x="96.2409638554217" y="447.9156626506024"/>
      <point x="96.2409638554217" y="479.3132530120482" type="curve" smooth="yes"/>
      <point x="96.2409638554217" y="517.710843373494"/>
      <point x="133.49397590361446" y="534.9638554216867"/>
      <point x="204.83132530120483" y="534.9638554216867" type="curve" smooth="yes"/>
      <point x="270.6265060240964" y="534.9638554216867" type="line"/>
      <point x="270.6265060240964" y="576.7710843373494" type="line"/>
      <point x="204.06024096385542" y="576.7710843373494" type="line" smooth="yes"/>
      <point x="105.25301204819277" y="576.7710843373494"/>
      <point x="40.93975903614457" y="545.6867469879518"/>
      <point x="40.93975903614457" y="479.0843373493976" type="curve" smooth="yes"/>
      <point x="40.93975903614457" y="422.710843373494"/>
      <point x="89.48192771084338" y="381.71084337349396"/>
    </contour>
  </outline>
</glyph>
<glyph name="logicalnot" format="2">
  <advance width="600.0"/>
  <unicode hex="00AC"/>
  <outline>
    <contour>
      <point x="487.0120481927711" y="151.33734939759034" type="line"/>
      <point x="544.0" y="151.33734939759034" type="line"/>
      <point x="544.0" y="416.8072289156627" type="line"/>
      <point x="56.0" y="416.8072289156627" type="line"/>
      <point x="56.0" y="361.27710843373495" type="line"/>
      <point x="487.0120481927711" y="361.27710843373495" type="line"/>
    </contour>
  </outline>
</glyph>
<glyph name="registered" format="2">
  <advance width="816.7710843373494"/>
  <unicode hex="00AE"/>
  <outline>
    <contour>
      <point x="408.7710843373494" y="-7.542168674698796" type="curve" smooth="yes"/>
      <point x="612.5421686746988" y="-7.542168674698796"/>
      <point x="769.3132530120482" y="149.22891566265062"/>
      <point x="769.3132530120482" y="353.0" type="curve" smooth="yes"/>
      <point x="769.3132530120482" y="556.7710843373494"/>
      <point x="612.5421686746988" y="712.5421686746988"/>
      <point x="408.7710843373494" y="712.5421686746988" type="curve" smooth="yes"/>
      <point x="204.22891566265062" y="712.5421686746988"/>
      <point x="47.4578313253012" y="556.7710843373494"/>
      <point x="47.4578313253012" y="353.0" type="curve" smooth="yes"/>
      <point x="47.4578313253012" y="149.22891566265062"/>
      <point x="204.77108433734938" y="-7.542168674698796"/>
    </contour>
    <contour>
      <point x="408.7710843373494" y="34.12048192771084" type="curve" smooth="yes"/>
      <point x="229.6024096385542" y="34.12048192771084"/>
      <point x="91.34939759036143" y="172.28915662650604"/>
      <point x="91.34939759036143" y="353.0" type="curve" smooth="yes"/>
      <point x="91.34939759036143" y="533.710843373494"/>
      <point x="229.6024096385542" y="670.8795180722892"/>
      <point x="408.7710843373494" y="670.8795180722892" type="curve" smooth="yes"/>
      <point x="587.9397590361446" y="670.8795180722892"/>
      <point x="725.421686746988" y="533.710843373494"/>
      <point x="725.421686746988" y="353.0" type="curve" smooth="yes"/>
      <point x="725.421686746988" y="172.28915662650604"/>
      <point x="587.9397590361446" y="34.12048192771084"/>
    </contour>
    <contour>
      <point x="267.421686746988" y="142.0" type="line"/>
      <point x="325.95180722891564" y="142.0" type="line"/>
      <point x="325.95180722891564" y="327.93975903614455" type="line"/>
      <point x="313.72289156626505" y="319.1686746987952" type="line"/>
      <point x="392.2289156626506" y="319.1686746987952" type="line" smooth="yes"/>
      <point x="431.0240963855422" y="319.1686746987952"/>
      <point x="456.56626506024094" y="307.1686746987952"/>
      <point x="469.4216867469879" y="274.77108433734935" type="curve" smooth="yes"/>
      <point x="520.7590361445783" y="142.0" type="line"/>
      <point x="581.0602409638554" y="142.0" type="line"/>
      <point x="530.1807228915663" y="272.73493975903614" type="line" smooth="yes"/>
      <point x="521.1807228915662" y="297.2530120481928"/>
      <point x="508.49397590361446" y="315.1686746987952"/>
      <point x="483.8072289156626" y="322.1686746987952" type="curve"/>
      <point x="483.8072289156626" y="326.6265060240964" type="line"/>
      <point x="539.4337349397591" y="339.2289156626506"/>
      <point x="575.5180722891566" y="381.7710843373494"/>
      <point x="575.5180722891566" y="441.16867469879514" type="curve" smooth="yes"/>
      <point x="575.5180722891566" y="517.6265060240963"/>
      <point x="525.6024096385543" y="563.4578313253012"/>
      <point x="436.2289156626506" y="563.4578313253012" type="curve" smooth="yes"/>
      <point x="267.421686746988" y="563.4578313253012" type="line"/>
    </contour>
    <contour>
      <point x="325.72289156626505" y="364.9759036144578" type="line"/>
      <point x="325.72289156626505" y="515.3614457831325" type="line"/>
      <point x="428.855421686747" y="515.3614457831325" type="line" smooth="yes"/>
      <point x="483.73493975903614" y="515.3614457831325"/>
      <point x="517.2168674698795" y="495.27710843373495"/>
      <point x="517.2168674698795" y="440.1686746987952" type="curve" smooth="yes"/>
      <point x="517.2168674698795" y="384.289156626506"/>
      <point x="482.96385542168673" y="364.9759036144578"/>
      <point x="428.855421686747" y="364.9759036144578" type="curve" smooth="yes"/>
    </contour>
  </outline>
</glyph>
<glyph name="degree" format="2">
  <advance width="374.3493975903615"/>
  <unicode hex="00B0"/>
  <outline>
    <contour>
      <point x="187.28915662650604" y="419.5903614457831" type="curve" smooth="yes"/>
      <point x="270.03614457831327" y="419.5903614457831"/>
      <point x="334.4096385542169" y="482.96385542168673"/>
      <point x="334.4096385542169" y="567.0240963855422" type="curve" smooth="yes"/>
      <point x="334.4096385542169" y="650.0843373493976"/>
      <point x="269.8072289156627" y="713.4578313253012"/>
      <point x="187.28915662650604" y="713.4578313253012" type="curve" smooth="yes"/>
      <point x="103.5421686746988" y="713.4578313253012"/>
      <point x="39.93975903614458" y="649.0843373493976"/>
      <point x="39.93975903614458" y="567.0240963855422" type="curve" smooth="yes"/>
      <point x="39.93975903614458" y="483.73493975903614"/>
      <point x="103.5421686746988" y="419.5903614457831"/>
    </contour>
    <contour>
      <point x="187.28915662650604" y="470.91566265060237" type="curve" smooth="yes"/>
      <point x="133.57831325301203" y="470.91566265060237"/>
      <point x="94.95180722891567" y="510.54216867469876"/>
      <point x="94.95180722891567" y="567.0240963855422" type="curve" smooth="yes"/>
      <point x="94.95180722891567" y="622.5060240963855"/>
      <point x="133.57831325301203" y="662.3614457831326"/>
      <point x="187.28915662650604" y="662.3614457831326" type="curve" smooth="yes"/>
      <point x="240.7710843373494" y="662.3614457831326"/>
      <point x="279.3975903614458" y="622.5060240963855"/>
      <point x="279.3975903614458" y="567.0240963855422" type="curve" smooth="yes"/>
      <point x="279.3975903614458" y="510.54216867469876"/>
      <point x="240.7710843373494" y="470.91566265060237"/>
    </contour>
  </outline>
</glyph>
<glyph name="plusminus" format="2">
  <advance width="600.0"/>
  <unicode hex="00B1"/>
  <outline>
    <contour>
      <point x="271.50602409638554" y="119.63855421686748" type="line"/>
      <point x="328.49397590361446" y="119.63855421686748" type="line"/>
      <point x="328.49397590361446" y="299.7710843373494" type="line"/>
      <point x="544.0" y="299.7697108433735" type="line"/>
      <point x="544.0" y="354.5301204819277" type="line"/>
      <point x="328.49397590361446" y="354.5301204819277" type="line"/>
      <point x="328.49397590361446" y="532.1204819277108" type="line"/>
      <point x="271.50602409638554" y="532.1204819277108" type="line"/>
      <point x="271.50602409638554" y="354.5301204819277" type="line"/>
      <point x="56.0" y="354.5301204819277" type="line"/>
      <point x="56.0" y="299.7697108433735" type="line"/>
      <point x="271.50602409638554" y="299.7710843373494" type="line"/>
    </contour>
    <contour>
      <point x="56.0" y="0.0" type="line"/>
      <point x="544.0" y="0.0" type="line"/>
      <point x="544.0" y="55.53012048192771" type="line"/>
      <point x="56.0" y="55.53012048192771" type="line"/>
    </contour>
  </outline>
</glyph>
<glyph name="micro" format="2">
  <advance width="600.0"/>
  <unicode hex="00B5"/>
  <outline>
    <contour>
      <point x="88.36144578313252" y="-180.0" type="line"/>
      <point x="158.21686746987953" y="-180.0" type="line"/>
      <point x="155.92771084337352" y="56.19277108433735" type="line"/>
      <point x="161.3855421686747" y="56.19277108433735" type="line"/>
      <point x="181.46987951807228" y="18.481927710843372"/>
      <point x="212.95180722891564" y="-8.457831325301205"/>
      <point x="279.91566265060237" y="-8.457831325301205" type="curve" smooth="yes"/>
      <point x="358.50602409638554" y="-8.457831325301205"/>
      <point x="405.44578313253015" y="36.93975903614458"/>
      <point x="438.78313253012044" y="106.79518072289156" type="curve"/>
      <point x="444.2409638554217" y="106.79518072289156" type="line"/>
      <point x="444.2409638554217" y="0.0" type="line"/>
      <point x="510.86746987951807" y="0.0" type="line"/>
      <point x="510.86746987951807" y="496.06024096385545" type="line"/>
      <point x="441.01204819277103" y="496.06024096385545" type="line"/>
      <point x="441.01204819277103" y="210.60240963855424" type="line" smooth="yes"/>
      <point x="441.01204819277103" y="130.18072289156626"/>
      <point x="375.04819277108436" y="53.13253012048193"/>
      <point x="280.6024096385542" y="53.13253012048193" type="curve" smooth="yes"/>
      <point x="186.6144578313253" y="53.13253012048193"/>
      <point x="158.21686746987953" y="111.09638554216868"/>
      <point x="158.21686746987953" y="185.06024096385542" type="curve" smooth="yes"/>
      <point x="158.21686746987953" y="496.06024096385545" type="line"/>
      <point x="88.36144578313252" y="496.06024096385545" type="line"/>
    </contour>
  </outline>
</glyph>
<glyph name="paragraph" format="2">
  <advance width="576.6024096385543"/>
  <unicode hex="00B6"/>
  <outline>
    <contour>
      <point x="211.95180722891564" y="-180.0" type="line"/>
      <point x="275.1686746987952" y="-180.0" type="line"/>
      <point x="275.1686746987952" y="643.5542168674699" type="line"/>
      <point x="395.9638554216868" y="643.5542168674699" type="line"/>
      <point x="395.9638554216868" y="-180.0" type="line"/>
      <point x="459.4096385542169" y="-180.0" type="line"/>
      <point x="459.4096385542169" y="705.0" type="line"/>
      <point x="213.18072289156626" y="705.0" type="line" smooth="yes"/>
      <point x="94.51807228915663" y="705.0"/>
      <point x="17.0" y="623.6265060240963"/>
      <point x="17.0" y="511.27710843373495" type="curve" smooth="yes"/>
      <point x="17.0" y="398.92771084337346"/>
      <point x="94.51807228915663" y="317.5542168674699"/>
      <point x="211.95180722891564" y="317.5542168674699" type="curve"/>
    </contour>
  </outline>
</glyph>
<glyph name="periodcentered" format="2">
  <advance width="262.36075036144575"/>
  <unicode hex="00B7"/>
  <outline>
    <contour>
      <point x="81.19277108433735" y="226.2168674698795" type="line"/>
      <point x="181.10843373493975" y="226.2168674698795" type="line"/>
      <point x="181.10843373493975" y="321.3855421686747" type="line"/>
      <point x="81.19277108433735" y="321.3855421686747" type="line"/>
    </contour>
  </outline>
</glyph>
<glyph name="ordmasculine" format="2">
  <advance width="381.06024096385545"/>
  <unicode hex="00BA"/>
  <outline>
    <contour>
      <point x="190.14457831325302" y="381.71084337349396" type="curve" smooth="yes"/>
      <point x="277.34939759036143" y="381.71084337349396"/>
      <point x="345.89156626506025" y="449.48192771084337"/>
      <point x="345.89156626506025" y="548.0843373493976" type="curve" smooth="yes"/>
      <point x="345.89156626506025" y="645.9156626506024"/>
      <point x="277.34939759036143" y="713.4578313253012"/>
      <point x="190.14457831325302" y="713.4578313253012" type="curve" smooth="yes"/>
      <point x="103.71084337349397" y="713.4578313253012"/>
      <point x="35.16867469879518" y="645.9156626506024"/>
      <point x="35.16867469879518" y="548.0843373493976" type="curve" smooth="yes"/>
      <point x="35.16867469879518" y="449.48192771084337"/>
      <point x="103.71084337349397" y="381.71084337349396"/>
    </contour>
    <contour>
      <point x="190.91566265060243" y="432.6385542168675" type="curve" smooth="yes"/>
      <point x="131.26506024096386" y="432.6385542168675"/>
      <point x="91.24096385542168" y="474.34939759036143"/>
      <point x="91.24096385542168" y="548.0843373493976" type="curve" smooth="yes"/>
      <point x="91.24096385542168" y="621.0481927710844"/>
      <point x="131.26506024096386" y="662.5301204819277"/>
      <point x="190.91566265060243" y="662.5301204819277" type="curve" smooth="yes"/>
      <point x="249.79518072289156" y="662.5301204819277"/>
      <point x="289.81927710843377" y="621.0481927710842"/>
      <point x="289.81927710843377" y="548.0843373493976" type="curve" smooth="yes"/>
      <point x="289.81927710843377" y="474.34939759036143"/>
      <point x="249.79518072289156" y="432.6385542168675"/>
    </contour>
  </outline>
</glyph>
<glyph name="questiondown" format="2">
  <advance width="483.4689740963855"/>
  <unicode hex="00BF"/>
  <outline>
    <contour>
      <point x="226.6987951807229" y="-187.6867469879518" type="curve" smooth="yes"/>
      <point x="305.07228915662654" y="-187.6867469879518"/>
      <point x="394.73493975903614" y="-154.2048192771084"/>
      <point x="454.0240963855422" y="-97.97590361445783" type="curve"/>
      <point x="424.9879518072289" y="-39.78313253012048" type="line"/>
      <point x="364.5301204819277" y="-95.18072289156626"/>
      <point x="299.0722891566265" y="-121.57831325301204"/>
      <point x="228.67469879518072" y="-121.57831325301204" type="curve" smooth="yes"/>
      <point x="154.42168674698794" y="-121.57831325301204"/>
      <point x="80.7710843373494" y="-101.95180722891565"/>
      <point x="80.7710843373494" y="-22.36144578313253" type="curve" smooth="yes"/>
      <point x="80.7710843373494" y="43.06024096385542"/>
      <point x="125.62650602409637" y="82.7710843373494"/>
      <point x="175.93975903614458" y="120.93975903614457" type="curve" smooth="yes"/>
      <point x="245.56626506024094" y="173.96385542168673"/>
      <point x="280.6506024096385" y="231.0722891566265"/>
      <point x="280.6506024096385" y="290.3855421686747" type="curve" smooth="yes"/>
      <point x="280.6506024096385" y="305.92771084337346" type="line"/>
      <point x="223.77108433734938" y="305.92771084337346" type="line"/>
      <point x="222.5421686746988" y="291.8433734939759" type="line" smooth="yes"/>
      <point x="219.0843373493976" y="246.19277108433735"/>
      <point x="193.7710843373494" y="212.1686746987952"/>
      <point x="129.51807228915663" y="162.06024096385542" type="curve" smooth="yes"/>
      <point x="74.144578313253" y="119.66265060240964"/>
      <point x="10.0" y="63.72289156626506"/>
      <point x="10.0" y="-25.10843373493976" type="curve" smooth="yes"/>
      <point x="10.0" y="-134.3132530120482"/>
      <point x="96.43373493975903" y="-187.6867469879518"/>
    </contour>
    <contour>
      <point x="202.6265060240964" y="403.18072289156623" type="line"/>
      <point x="300.2530120481928" y="403.18072289156623" type="line"/>
      <point x="300.2530120481928" y="496.06024096385545" type="line"/>
      <point x="202.6265060240964" y="496.06024096385545" type="line"/>
    </contour>
  </outline>
</glyph>
<glyph name="AE" format="2">
  <advance width="1045.6626506024095"/>
  <unicode hex="00C6"/>
  <anchor x="510.28915662650604" y="0.0" name="bottom"/>
  <anchor x="509.51807228915663" y="705.0" name="top"/>
  <outline>
    <contour>
      <point x="4.445783132530121" y="0.0" type="line"/>
      <point x="84.65060240963855" y="0.0" type="line"/>
      <point x="206.27710843373492" y="205.4819277108434" type="line"/>
      <point x="170.63855421686745" y="179.46987951807228" type="line"/>
      <point x="572.6626506024097" y="179.46987951807228" type="line"/>
      <point x="545.9397590361447" y="205.3975903614458" type="line"/>
      <point x="588.9397590361447" y="0.0" type="line"/>
      <point x="957.4939759036145" y="0.0" type="line"/>
      <point x="957.4939759036145" y="65.56626506024095" type="line"/>
      <point x="613.6385542168674" y="65.56626506024095" type="line"/>
      <point x="654.0240963855422" y="30.30120481927711" type="line"/>
      <point x="587.0843373493976" y="346.3975903614458" type="line"/>
      <point x="548.132530120482" y="324.2168674698795" type="line"/>
      <point x="937.4939759036145" y="324.2168674698795" type="line"/>
      <point x="937.4939759036145" y="389.78313253012044" type="line"/>
      <point x="536.698795180723" y="389.78313253012044" type="line"/>
      <point x="582.3975903614459" y="367.8313253012048" type="line"/>
      <point x="517.9156626506024" y="677.8674698795181" type="line"/>
      <point x="491.9036144578313" y="639.4337349397591" type="line"/>
      <point x="957.4939759036145" y="639.4337349397591" type="line"/>
      <point x="957.4939759036145" y="705.0" type="line"/>
      <point x="418.1084337349398" y="705.0" type="line"/>
    </contour>
    <contour>
      <point x="450.3734939759036" y="635.3132530120482" type="line"/>
      <point x="455.6024096385542" y="635.3132530120482" type="line"/>
      <point x="541.4819277108435" y="226.14457831325302" type="line"/>
      <point x="553.0602409638554" y="244.34939759036143" type="line"/>
      <point x="191.16867469879517" y="244.34939759036143" type="line"/>
      <point x="216.96385542168676" y="227.06024096385542" type="line"/>
    </contour>
  </outline>
</glyph>
<glyph name="multiply" format="2">
  <advance width="600.0"/>
  <unicode hex="00D7"/>
  <outline>
    <contour>
      <point x="105.32530120481928" y="50.45783132530121" type="line"/>
      <point x="300.0" y="244.9036144578313" type="line"/>
      <point x="494.6746987951807" y="50.45783132530121" type="line"/>
      <point x="534.0" y="88.78313253012048" type="line"/>
      <point x="339.3253012048193" y="284.4578313253012" type="line"/>
      <point x="534.0" y="478.9036144578313" type="line"/>
      <point x="494.6746987951807" y="518.4578313253012" type="line"/>
      <point x="300.0" y="323.7831325301205" type="line"/>
      <point x="105.32530120481928" y="518.4578313253012" type="line"/>
      <point x="66.0" y="478.9036144578313" type="line"/>
      <point x="260.6746987951807" y="284.4578313253012" type="line"/>
      <point x="66.0" y="88.78313253012048" type="line"/>
    </contour>
  </outline>
</glyph>
<glyph name="Thorn" format="2">
  <advance width="691.3855421686746"/>
  <unicode hex="00DE"/>
  <anchor x="347.72289156626505" y="0.0" name="bottom"/>
  <anchor x="347.49397590361446" y="705.0" name="top"/>
  <outline>
    <contour>
      <point x="117.19277108433735" y="0.0" type="line"/>
      <point x="189.10843373493978" y="0.0" type="line"/>
      <point x="189.10843373493978" y="158.96385542168676" type="line"/>
      <point x="399.7831325301205" y="158.96385542168676" type="line" smooth="yes"/>
      <point x="547.9277108433735" y="158.96385542168676"/>
      <point x="636.9879518072289" y="236.16867469879517"/>
      <point x="636.9879518072289" y="367.0" type="curve" smooth="yes"/>
      <point x="636.9879518072289" y="498.06024096385545"/>
      <point x="548.9277108433735" y="572.3493975903615"/>
      <point x="399.7831325301205" y="572.3493975903615" type="curve" smooth="yes"/>
      <point x="189.10843373493978" y="572.3493975903615" type="line"/>
      <point x="189.10843373493978" y="705.0" type="line"/>
      <point x="117.19277108433735" y="705.0" type="line"/>
    </contour>
    <contour>
      <point x="189.10843373493978" y="223.84337349397592" type="line"/>
      <point x="189.10843373493978" y="507.4698795180723" type="line"/>
      <point x="389.66265060240966" y="507.4698795180723" type="line" smooth="yes"/>
      <point x="503.87951807228916" y="507.4698795180723"/>
      <point x="563.5301204819277" y="465.6746987951807"/>
      <point x="563.5301204819277" y="366.31325301204816" type="curve" smooth="yes"/>
      <point x="563.5301204819277" y="267.18072289156623"/>
      <point x="503.65060240963857" y="223.84337349397592"/>
      <point x="389.66265060240966" y="223.84337349397592" type="curve" smooth="yes"/>
    </contour>
  </outline>
</glyph>
<glyph name="germandbls" format="2">
  <advance width="664.3830359036144"/>
  <unicode hex="00DF"/>
  <outline>
    <contour>
      <point x="436.5903614457831" y="-8.457831325301205" type="curve" smooth="yes"/>
      <point x="541.2530120481928" y="-8.457831325301205"/>
      <point x="617.144578313253" y="48.831325301204814"/>
      <point x="617.144578313253" y="129.95180722891564" type="curve" smooth="yes"/>
      <point x="617.144578313253" y="200.40963855421685"/>
      <point x="574.5180722891566" y="238.01204819277106"/>
      <point x="472.34939759036143" y="277.6385542168675" type="curve" smooth="yes"/>
      <point x="407.12048192771084" y="303.18072289156623"/>
      <point x="388.34939759036143" y="322.26506024096386"/>
      <point x="388.34939759036143" y="354.9759036144579" type="curve" smooth="yes"/>
      <point x="388.34939759036143" y="380.3734939759036"/>
      <point x="412.433734939759" y="409.54216867469876"/>
      <point x="450.28915662650604" y="447.855421686747" type="curve" smooth="yes"/>
      <point x="499.91566265060237" y="497.9397590361446"/>
      <point x="522.5421686746988" y="533.1686746987951"/>
      <point x="522.5421686746988" y="582.5662650602409" type="curve" smooth="yes"/>
      <point x="522.5421686746988" y="660.3132530120482"/>
      <point x="439.1927710843374" y="710.3734939759036"/>
      <point x="332.2409638554217" y="710.3734939759036" type="curve" smooth="yes"/>
      <point x="197.71084337349396" y="710.3734939759036"/>
      <point x="100.96385542168674" y="626.9397590361446"/>
      <point x="100.96385542168674" y="486.0722891566265" type="curve" smooth="yes"/>
      <point x="100.96385542168674" y="0.0" type="line"/>
      <point x="172.87951807228916" y="0.0" type="line"/>
      <point x="172.87951807228916" y="491.1927710843373" type="line" smooth="yes"/>
      <point x="172.87951807228916" y="598.0722891566265"/>
      <point x="235.21686746987953" y="648.3253012048193"/>
      <point x="332.6385542168675" y="648.3253012048193" type="curve" smooth="yes"/>
      <point x="394.12048192771084" y="648.3253012048193"/>
      <point x="452.0" y="623.156626506024"/>
      <point x="452.0" y="575.6746987951807" type="curve" smooth="yes"/>
      <point x="452.0" y="540.421686746988"/>
      <point x="433.68674698795184" y="512.8795180722891"/>
      <point x="395.9759036144578" y="474.48192771084337" type="curve" smooth="yes"/>
      <point x="340.9518072289157" y="419.0843373493976"/>
      <point x="322.4096385542169" y="384.9397590361446"/>
      <point x="322.4096385542169" y="346.2530120481927" type="curve" smooth="yes"/>
      <point x="322.4096385542169" y="290.7951807228916"/>
      <point x="353.4096385542169" y="255.48192771084337"/>
      <point x="441.72289156626505" y="222.85542168674698" type="curve" smooth="yes"/>
      <point x="520.289156626506" y="193.91566265060243"/>
      <point x="546.3734939759037" y="175.06024096385542"/>
      <point x="546.3734939759037" y="131.03614457831324" type="curve" smooth="yes"/>
      <point x="546.3734939759037" y="77.92771084337349"/>
      <point x="505.51807228915663" y="53.59036144578313"/>
      <point x="432.7831325301205" y="53.59036144578313" type="curve" smooth="yes"/>
      <point x="373.4457831325301" y="53.59036144578313"/>
      <point x="304.71084337349396" y="66.21686746987952"/>
      <point x="250.19277108433735" y="108.1566265060241" type="curve"/>
      <point x="226.36144578313255" y="51.65060240963855" type="line"/>
      <point x="273.7951807228916" y="11.710843373493976"/>
      <point x="359.5903614457831" y="-8.457831325301205"/>
    </contour>
  </outline>
</glyph>
<glyph name="ae" format="2">
  <advance width="997.532626746988"/>
  <unicode hex="00E6"/>
  <anchor x="483.3132530120482" y="0.0" name="bottom"/>
  <anchor x="506.9759036144578" y="484.0" name="top"/>
  <outline>
    <contour>
      <point x="261.99999999999994" y="-8.457831325301205" type="curve" smooth="yes"/>
      <point x="381.0240963855422" y="-8.457831325301205"/>
      <point x="453.7951807228916" y="53.96385542168675"/>
      <point x="490.3975903614458" y="127.04819277108435" type="curve"/>
      <point x="495.6265060240964" y="127.04819277108435" type="line"/>
      <point x="523.7469879518073" y="44.33734939759036"/>
      <point x="598.9156626506024" y="-8.457831325301205"/>
      <point x="720.289156626506" y="-8.457831325301205" type="curve" smooth="yes"/>
      <point x="796.2048192771084" y="-8.457831325301205"/>
      <point x="869.8915662650602" y="11.626506024096384"/>
      <point x="918.0361445783133" y="54.25301204819277" type="curve"/>
      <point x="889.8313253012049" y="106.8433734939759" type="line"/>
      <point x="836.2048192771084" y="68.36144578313254"/>
      <point x="790.5180722891566" y="54.27710843373494"/>
      <point x="721.0361445783133" y="54.27710843373494" type="curve" smooth="yes"/>
      <point x="595.3253012048193" y="54.27710843373494"/>
      <point x="526.4457831325301" y="130.95180722891567"/>
      <point x="526.4457831325301" y="245.6867469879518" type="curve" smooth="yes"/>
      <point x="526.4457831325301" y="257.12048192771084" type="line" smooth="yes"/>
      <point x="526.4457831325301" y="373.0240963855422"/>
      <point x="595.0963855421686" y="444.6144578313253"/>
      <point x="702.6867469879518" y="444.6144578313253" type="curve" smooth="yes"/>
      <point x="808.0481927710844" y="444.6144578313253"/>
      <point x="863.301204819277" y="366.855421686747"/>
      <point x="863.301204819277" y="260.8072289156627" type="curve"/>
      <point x="886.6987951807229" y="284.20481927710847" type="line"/>
      <point x="505.7590361445783" y="284.20481927710847" type="line"/>
      <point x="505.7590361445783" y="228.04819277108436" type="line"/>
      <point x="927.6385542168675" y="228.04819277108436" type="line"/>
      <point x="927.6385542168675" y="248.91566265060243" type="line" smooth="yes"/>
      <point x="927.6385542168675" y="402.43373493975906"/>
      <point x="849.6867469879518" y="504.51807228915663"/>
      <point x="702.7710843373494" y="504.51807228915663" type="curve" smooth="yes"/>
      <point x="615.2891566265059" y="504.51807228915663"/>
      <point x="548.7469879518072" y="469.3493975903615"/>
      <point x="510.20481927710847" y="400.4698795180723" type="curve"/>
      <point x="505.7469879518072" y="400.4698795180723" type="line"/>
      <point x="480.4578313253012" y="459.49397590361446"/>
      <point x="412.7469879518072" y="504.51807228915663"/>
      <point x="316.43373493975906" y="504.51807228915663" type="curve" smooth="yes"/>
      <point x="243.22891566265062" y="504.51807228915663"/>
      <point x="162.6265060240964" y="483.51807228915663"/>
      <point x="102.10843373493977" y="445.7469879518072" type="curve"/>
      <point x="127.5421686746988" y="389.6144578313253" type="line"/>
      <point x="189.22891566265062" y="427.6987951807229"/>
      <point x="248.5421686746988" y="442.4698795180723"/>
      <point x="312.5421686746988" y="442.4698795180723" type="curve" smooth="yes"/>
      <point x="404.65060240963857" y="442.4698795180723"/>
      <point x="458.13253012048193" y="403.73493975903614"/>
      <point x="458.13253012048193" y="323.5421686746988" type="curve" smooth="yes"/>
      <point x="458.13253012048193" y="206.8313253012048" type="line" smooth="yes"/>
      <point x="458.13253012048193" y="126.55421686746988"/>
      <point x="377.5421686746988" y="52.674698795180724"/>
      <point x="272.09638554216866" y="52.674698795180724" type="curve" smooth="yes"/>
      <point x="207.44578313253012" y="52.674698795180724"/>
      <point x="153.10843373493975" y="83.55421686746989"/>
      <point x="153.10843373493975" y="141.34939759036143" type="curve" smooth="yes"/>
      <point x="153.10843373493975" y="214.6265060240964"/>
      <point x="222.44578313253012" y="231.710843373494"/>
      <point x="393.31325301204816" y="231.710843373494" type="curve" smooth="yes"/>
      <point x="482.81927710843377" y="231.710843373494" type="line"/>
      <point x="482.81927710843377" y="287.4096385542169" type="line"/>
      <point x="389.0240963855422" y="287.4096385542169" type="line" smooth="yes"/>
      <point x="185.48192771084337" y="287.4096385542169"/>
      <point x="81.10843373493977" y="255.74698795180723"/>
      <point x="81.10843373493977" y="136.66265060240963" type="curve" smooth="yes"/>
      <point x="81.10843373493977" y="55.144578313253014"/>
      <point x="158.71084337349396" y="-8.457831325301205"/>
    </contour>
  </outline>
</glyph>
